<svg width="62" height="62" viewBox="0 0 62 62" fill="none" xmlns="http://www.w3.org/2000/svg">
<path d="M53.9952 8H42.4974C35.7787 8 29.3299 10.6695 24.5808 15.4186L16.0036 23.9958V39.9916H27.5014C34.2201 39.9916 40.6689 37.3221 45.418 32.573L53.9952 23.9958V8Z" fill="white" fill-opacity="0.1"/>
<path d="M16.0036 39.9916V23.9958L24.5808 15.4186C29.3299 10.6695 35.7787 8 42.4974 8H53.9952V23.9958L45.418 32.573C40.6689 37.3221 34.2201 39.9916 27.5014 39.9916H16.0036ZM16.0036 39.9916L33.9994 21.9958H38.0048M16.0036 39.9916L14.774 41.0689C10.4719 44.8383 8.00476 50.2802 8.00476 56V56" stroke="white" stroke-miterlimit="10"/>
<rect x="41.9952" y="48" width="2" height="2" stroke="white"/>
<rect x="51.9952" y="54" width="2" height="2" stroke="white"/>
<rect x="51.9952" y="42" width="2" height="2" stroke="white"/>
</svg>
