<svg width="62" height="62" viewBox="0 0 62 62" fill="none" xmlns="http://www.w3.org/2000/svg">
<path d="M40 26L36 22H26L22 26V34.1765V38L28 44H29L31 42L33 44H34L40 38V34.1765V26Z" fill="white" fill-opacity="0.1"/>
<path d="M31 42L33 44H34L40 38V34.1765V26L36 22H26L22 26V34.1765V38L28 44H29L31 42ZM31 42V34.1765" stroke="white"/>
<path d="M31 16.2856C28.2386 16.2856 26 18.5242 26 21.2856V21.9999H36V21.2856C36 18.5242 33.7614 16.2856 31 16.2856Z" fill="white" fill-opacity="0.1" stroke="white"/>
<path d="M37 41L42 45.9997V49.9997" stroke="white"/>
<path d="M25 41L20 45.9997V49.9997" stroke="white"/>
<path d="M22 26L18 26L16 24" stroke="white"/>
<path d="M22 34L16 34L14 36" stroke="white"/>
<path d="M40 34L46 34L48 36" stroke="white"/>
<path d="M40 26L44 26L46 24" stroke="white"/>
<path d="M26 14L24 12" stroke="white"/>
<path d="M36 14L38 12" stroke="white"/>
<path d="M14 8H8V14" stroke="white"/>
<path d="M48 54L54 54L54 48" stroke="white"/>
<path d="M8 48L8 54L14 54" stroke="white"/>
<path d="M54 14L54 8L48 8" stroke="white"/>
</svg>
