<svg width="62" height="62" viewBox="0 0 62 62" fill="none" xmlns="http://www.w3.org/2000/svg">
<path d="M16 40L12 48" stroke="white"/>
<path d="M22 44L18 52" stroke="white"/>
<path d="M32 40L28 48" stroke="white"/>
<path d="M48 40L44 48" stroke="white"/>
<path d="M42 52L40 56" stroke="white"/>
<path d="M26 52L24 56" stroke="white"/>
<path d="M10 52L8 56" stroke="white"/>
<path d="M38 44L34 52" stroke="white"/>
<path fill-rule="evenodd" clip-rule="evenodd" d="M28 6C30.8014 6 33.3038 7.27989 34.9545 9.28681C36.0968 8.47643 37.4928 8.00008 39 8.00008C42.866 8.00008 46 11.1341 46 15.0001C46 15.3558 45.9735 15.7053 45.9223 16.0467C50.4596 16.5086 54.0001 20.3409 54.0001 25.0001V28.0001L48 34.0002H45.0001C44.985 34.0002 44.97 34.0001 44.955 34.0001H17.0452C17.0301 34.0001 17.0151 34.0002 17.0001 34.0002C12.0295 34.0002 8 29.9707 8 25.0001V22.0001L14 16.0001H17H17.0001H19.0549C19.0186 15.6717 18.9999 15.3381 18.9999 15.0001V12.0001L25.0001 6H28Z" fill="white" fill-opacity="0.1"/>
<path d="M34.9545 9.28681L34.5683 9.60442L34.864 9.96399L35.2437 9.69462L34.9545 9.28681ZM45.9223 16.0467L45.4278 15.9726L45.3501 16.4911L45.8716 16.5442L45.9223 16.0467ZM54.0001 28.0001L54.3537 28.3536L54.5001 28.2072V28.0001H54.0001ZM48 34.0002V34.5002H48.2071L48.3536 34.3537L48 34.0002ZM44.955 34.0001L44.9574 33.5001H44.955V34.0001ZM17.0452 34.0001V33.5001L17.0427 33.5001L17.0452 34.0001ZM8 22.0001L7.64645 21.6465L7.5 21.793V22.0001H8ZM14 16.0001V15.5001H13.7929L13.6464 15.6465L14 16.0001ZM19.0549 16.0001V16.5001H19.6132L19.5518 15.9451L19.0549 16.0001ZM18.9999 12.0001L18.6464 11.6466L18.4999 11.793V12.0001H18.9999ZM25.0001 6V5.5H24.7929L24.6465 5.64645L25.0001 6ZM35.3406 8.9692C33.5991 6.85175 30.9572 5.5 28 5.5V6.5C30.6455 6.5 33.0085 7.70802 34.5683 9.60442L35.3406 8.9692ZM39 7.50008C37.3858 7.50008 35.8893 8.01062 34.6652 8.879L35.2437 9.69462C36.3043 8.94224 37.5998 8.50008 39 8.50008V7.50008ZM46.5 15.0001C46.5 10.8579 43.1421 7.50008 39 7.50008V8.50008C42.5899 8.50008 45.5 11.4102 45.5 15.0001H46.5ZM46.4167 16.1209C46.4716 15.755 46.5 15.3807 46.5 15.0001H45.5C45.5 15.3309 45.4753 15.6556 45.4278 15.9726L46.4167 16.1209ZM54.5001 25.0001C54.5001 20.0817 50.7629 16.0368 45.9729 15.5493L45.8716 16.5442C50.1564 16.9803 53.5001 20.6 53.5001 25.0001H54.5001ZM54.5001 28.0001V25.0001H53.5001V28.0001H54.5001ZM48.3536 34.3537L54.3537 28.3536L53.6466 27.6465L47.6464 33.6466L48.3536 34.3537ZM45.0001 34.5002H48V33.5002H45.0001V34.5002ZM44.9525 34.5001C44.9683 34.5001 44.9842 34.5002 45.0001 34.5002V33.5002C44.9858 33.5002 44.9716 33.5002 44.9574 33.5001L44.9525 34.5001ZM44.955 33.5001H17.0452V34.5001H44.955V33.5001ZM17.0001 34.5002C17.0159 34.5002 17.0318 34.5001 17.0476 34.5001L17.0427 33.5001C17.0285 33.5002 17.0143 33.5002 17.0001 33.5002V34.5002ZM7.5 25.0001C7.5 30.2469 11.7533 34.5002 17.0001 34.5002V33.5002C12.3056 33.5002 8.5 29.6946 8.5 25.0001H7.5ZM7.5 22.0001V25.0001H8.5V22.0001H7.5ZM13.6464 15.6465L7.64645 21.6465L8.35355 22.3536L14.3536 16.3536L13.6464 15.6465ZM17 15.5001H14V16.5001H17V15.5001ZM17 16.5001H17.0001V15.5001H17V16.5001ZM17.0001 16.5001H19.0549V15.5001H17.0001V16.5001ZM18.4999 15.0001C18.4999 15.3565 18.5196 15.7085 18.5579 16.055L19.5518 15.9451C19.5176 15.635 19.4999 15.3197 19.4999 15.0001H18.4999ZM18.4999 12.0001V15.0001H19.4999V12.0001H18.4999ZM24.6465 5.64645L18.6464 11.6466L19.3535 12.3537L25.3536 6.35355L24.6465 5.64645ZM28 5.5H25.0001V6.5H28V5.5Z" fill="white"/>
</svg>
