<svg width="62" height="62" viewBox="0 0 62 62" fill="none" xmlns="http://www.w3.org/2000/svg">
<path d="M5.84424 31C8.34543 32.2604 11.3038 32.2643 13.805 31.0039" stroke="white"/>
<path d="M13.8049 30.9961C16.3061 29.7357 19.2645 29.7396 21.7657 31C24.2669 32.2605 27.2252 32.2643 29.7264 31.0039" stroke="white"/>
<path d="M29.7264 30.9961C32.2276 29.7357 35.1859 29.7396 37.6871 31C39.0369 31.6802 40.5276 32.0529 42 32H56M56 32L50 26M56 32L50 38" stroke="white"/>
<path d="M5.80493 18.9961C8.30612 17.7357 11.2645 17.7396 13.7657 19C16.2669 20.2605 19.2252 20.2643 21.7264 19.0039" stroke="white"/>
<path d="M21.7264 18.9961C24.2276 17.7357 27.1859 17.7396 29.6871 19C31.0369 19.6802 32.5276 20.0529 34 20H48M48 20L42 14M48 20L42 26" stroke="white"/>
<path d="M5.80493 42.9961C8.30612 41.7357 11.2645 41.7396 13.7657 43C16.2669 44.2605 19.2252 44.2643 21.7264 43.0039" stroke="white"/>
<path d="M21.7264 42.9961C24.2276 41.7357 27.1859 41.7396 29.6871 43C31.0369 43.6802 32.5276 44.0529 34 44H48M48 44L42 38M48 44L42 50" stroke="white"/>
</svg>
