<svg width="28" height="28" viewBox="0 0 28 28" fill="none" xmlns="http://www.w3.org/2000/svg">
	<rect width="28" height="28" rx="8" fill="black"/>
	<path d="M23.0485 11.0801C22.6062 14.3802 19.5442 14.3462 17.9792 16.2514C15.3595 19.5175 16.4142 22.4093 13.9646 23.0557C11.5151 22.4093 12.5698 19.4834 9.95008 16.2174C8.45312 14.2781 5.35714 14.3462 4.94887 11.012C4.60866 8.49441 5.93551 6.92941 6.99018 5.94278C7.05823 5.87473 6.34377 8.35832 7.43246 9.8893C8.38507 11.1821 11.0048 11.9306 12.2976 12.9172C13.8286 14.142 13.9987 15.4689 13.9987 15.4349C14.0327 15.4349 14.2368 14.142 15.6998 12.9853C16.9926 11.9987 19.6123 11.2502 20.5649 9.95735C21.6536 8.46039 20.9391 5.9768 21.0072 6.04484C22.0959 7.03147 23.3887 8.59647 23.0485 11.0801Z" fill="#5AF1B0"/>
</svg>
