<?xml version="1.0" encoding="utf-8"?>
<!-- Generator: Adobe Illustrator 27.4.1, SVG Export Plug-In . SVG Version: 6.00 Build 0)  -->
<svg version="1.1" id="Layer_1" xmlns="http://www.w3.org/2000/svg" xmlns:xlink="http://www.w3.org/1999/xlink" x="0px" y="0px"
	 viewBox="0 0 700 460.2" style="enable-background:new 0 0 700 460.2;" xml:space="preserve">
<style type="text/css">
	.st0{fill:#FFFFFF;}
</style>
<g>
	<path class="st0" d="M426.6,0h-152c-17.6,0-31.9,14.3-31.9,31.8v152c0,17.6,14.3,31.9,31.9,31.9h152c17.6,0,31.9-14.3,31.9-31.9
		v-152C458.5,14.3,444.2,0,426.6,0L426.6,0z M327.5,117.6l23.1-34.3l23,34.3L327.5,117.6z"/>
	<path class="st0" d="M426,244.4H274c-17.6,0-31.8,14.3-31.8,31.9v152c0,17.6,14.3,31.9,31.8,31.9h152c17.6,0,31.9-14.3,31.9-31.9
		v-152C457.9,258.7,443.6,244.4,426,244.4L426,244.4z M350.6,375.3l-23.1-34.3h46.1L350.6,375.3z"/>
	<path class="st0" d="M668.2,244.4h-152c-17.6,0-31.9,14.3-31.9,31.9v152c0,17.6,14.3,31.9,31.9,31.9h152
		c17.6,0,31.8-14.3,31.8-31.9l0-152C700,258.7,685.8,244.4,668.2,244.4L668.2,244.4z M583.8,375.3v-46.1l34.3,23.1L583.8,375.3z"/>
	<path class="st0" d="M183.9,244.4h-152C14.3,244.4,0,258.7,0,276.3v152c0,17.6,14.3,31.9,31.9,31.9h152c17.6,0,31.9-14.3,31.9-31.9
		v-152C215.7,258.7,201.5,244.4,183.9,244.4L183.9,244.4z M116.8,375.3l-34.3-23l34.3-23.1V375.3z"/>
</g>
</svg>
