<?xml version="1.0" encoding="utf-8"?>
<!-- Generator: Adobe Illustrator 26.5.0, SVG Export Plug-In . SVG Version: 6.00 Build 0)  -->
<svg version="1.1" id="Layer_1" xmlns="http://www.w3.org/2000/svg" xmlns:xlink="http://www.w3.org/1999/xlink" x="0px" y="0px"
	 viewBox="0 0 77.9 102.6" style="enable-background:new 0 0 77.9 102.6;" xml:space="preserve">
<style type="text/css">
	.st0{fill:#FFFFFF;}
</style>
<g>
	<path class="st0" d="M14.3,8.4c0.4,0,0.7-0.1,1-0.4l3.2-3.2v9.5c0,0.8,0.6,1.4,1.4,1.4s1.4-0.6,1.4-1.4V4.8L24.6,8
		c0.3,0.3,0.7,0.4,1,0.4s0.7-0.1,1-0.4c0.6-0.6,0.6-1.4,0-2l-5.6-5.6c-0.1-0.1-0.3-0.3-0.4-0.3c-0.3-0.1-0.7-0.1-1.1,0
		c-0.1,0.1-0.3,0.1-0.4,0.3L13.3,6c-0.6,0.6-0.6,1.4,0,2C13.5,8.3,13.9,8.4,14.3,8.4z"/>
	<path class="st0" d="M24.6,30l-3.2,3.2v-9.5c0-0.8-0.6-1.4-1.4-1.4c-0.8,0-1.4,0.6-1.4,1.4v9.5L15.3,30c-0.6-0.6-1.4-0.6-2,0
		c-0.6,0.6-0.6,1.4,0,2l5.6,5.6c0.1,0.1,0.3,0.3,0.4,0.3c0.1,0.1,0.4,0.1,0.6,0.1s0.4,0,0.6-0.1c0.1-0.1,0.3-0.1,0.4-0.3l5.6-5.6
		c0.6-0.6,0.6-1.4,0-2C26,29.6,25.1,29.6,24.6,30z"/>
	<path class="st0" d="M39.6,19.7c0.1-0.3,0.1-0.7,0-1.1c-0.1-0.1-0.1-0.3-0.3-0.4l-5.6-5.6c-0.6-0.6-1.4-0.6-2,0
		c-0.6,0.6-0.6,1.4,0,2l3.2,3.2h-9.5c-0.8,0-1.4,0.6-1.4,1.4c0,0.8,0.6,1.4,1.4,1.4h9.5l-3.2,3.2c-0.6,0.6-0.6,1.4,0,2
		c0.3,0.3,0.7,0.4,1,0.4s0.7-0.1,1-0.4l5.6-5.6C39.4,19.9,39.6,19.8,39.6,19.7z"/>
	<path class="st0" d="M4.9,20.5h9.5c0.8,0,1.4-0.6,1.4-1.4c0-0.8-0.6-1.4-1.4-1.4H4.9l3.2-3.2c0.6-0.6,0.6-1.4,0-2
		c-0.6-0.6-1.4-0.6-2,0l-5.6,5.6c-0.1,0.1-0.3,0.3-0.3,0.4c-0.1,0.1-0.1,0.3-0.1,0.6l0,0l0,0c0,0.1,0,0.4,0.1,0.6s0.1,0.3,0.3,0.4
		l5.6,5.6c0.3,0.3,0.7,0.4,1,0.4c0.3,0,0.7-0.1,1-0.4c0.6-0.6,0.6-1.4,0-2L4.9,20.5z"/>
</g>
<path class="st0" d="M56.7,30.8v-0.1h-2.2h-2.2v0.1c-11.9,1.1-21.2,11.1-21.2,23.3v5.3v4.4v15.5c0,12.9,10.5,23.4,23.4,23.4
	s23.4-10.5,23.4-23.4V63.8v-4.4v-5.3C77.9,41.9,68.6,31.9,56.7,30.8z M35.5,54.1c0-9.7,7.3-17.7,16.8-18.8v15.1c0,0-0.1,0-0.1,0
	c-0.3,0.1-0.5,0.2-0.8,0.3c0,0-0.1,0-0.1,0c-0.3,0.1-0.5,0.3-0.8,0.5c-0.1,0-0.1,0.1-0.2,0.1c-0.2,0.2-0.5,0.4-0.7,0.6
	c0,0,0,0-0.1,0.1c-0.2,0.2-0.4,0.4-0.5,0.6c0,0.1-0.1,0.1-0.1,0.2c-0.2,0.2-0.3,0.5-0.5,0.8c0,0.1,0,0.1-0.1,0.2
	c-0.1,0.2-0.2,0.5-0.3,0.8c0,0,0,0.1,0,0.1c-0.1,0.3-0.2,0.6-0.2,0.9c0,0.1,0,0.1,0,0.2c0,0.3-0.1,0.6-0.1,1v2.6H35.5V54.1z
	 M73.4,79.2c0,10.5-8.5,19-19,19s-19-8.5-19-19V63.8h14.4h2.2v-2.2v-4.8c0-1.3,1.1-2.4,2.3-2.4s2.3,1.1,2.3,2.4v4.8v2.2H59h14.4
	L73.4,79.2L73.4,79.2z M61.3,59.3v-2.6c0-0.3,0-0.7-0.1-1c0-0.1,0-0.1,0-0.2c-0.1-0.3-0.1-0.6-0.2-0.9c0,0,0-0.1,0-0.1
	c-0.1-0.3-0.2-0.5-0.3-0.8c0-0.1,0-0.1-0.1-0.2c-0.1-0.3-0.3-0.5-0.5-0.8c0-0.1-0.1-0.1-0.1-0.2c-0.2-0.2-0.4-0.4-0.5-0.6
	c0,0,0,0-0.1-0.1c-0.2-0.2-0.4-0.4-0.7-0.6c-0.1,0-0.1-0.1-0.2-0.1c-0.2-0.2-0.5-0.3-0.8-0.5c0,0-0.1,0-0.1,0
	c-0.2-0.1-0.5-0.2-0.8-0.3c0,0-0.1,0-0.1,0V35.2c9.4,1.1,16.8,9.1,16.8,18.8v5.3L61.3,59.3L61.3,59.3z"/>
</svg>
