<?xml version="1.0" encoding="utf-8"?>
<!-- Generator: Adobe Illustrator 27.4.1, SVG Export Plug-In . SVG Version: 6.00 Build 0)  -->
<svg version="1.1" id="Layer_1" xmlns="http://www.w3.org/2000/svg" xmlns:xlink="http://www.w3.org/1999/xlink" x="0px" y="0px"
	 viewBox="0 0 273 282.8" style="enable-background:new 0 0 273 282.8;" xml:space="preserve">
<style type="text/css">
	.st0{fill:#FFFFFF;}
</style>
<g>
	<path class="st0" d="M271.1,69.9l-24.8-56.7C244.1,8.2,240,4.2,235,2s-10.7-2.6-16-0.9c-18.1,5.6-45.2,15.4-71.5,27l-4.5,2
		c-36.5,16.1-48.7,21.5-103.2,85.8C-4,167.7-1.6,236.4,1.5,263.5h0c0.9,7.3,5.3,13.7,11.9,17s14.4,3,20.7-0.7
		c6.4-3.7,10.4-10.4,10.7-17.8c0.4-8.1,1.1-15.6,2.1-22.4c3.3,4.9,8.5,8.2,14.4,8.9c5.9,0.8,11.8-1.1,16.2-5
		c4.4-3.9,6.9-9.6,6.9-15.5v-11.7c3.6,4.4,8.9,7.1,14.6,7.3c5.7,0.2,11.2-1.9,15.2-6c4-4.1,6.1-9.6,5.7-15.3v-3
		c-1-21.1,6.5-41.8,20.9-57.2l3.2-3.5c7-0.2,13.8,1.4,19.9,4.8c3,1.8,5,4.8,5.6,8.2c1.1,7.4-4.2,18.3-16.3,33.6l-0.8,0.3
		c-6.8,7.6-12.5,16.2-16.8,25.5c-2.7,7.7-2.8,16.1-0.1,23.9s7.8,14.4,14.7,18.8c4.1,2.7,9.1,3.6,13.9,2.4c4.8-1.1,8.9-4.2,11.3-8.4
		c11.2-18.8,30.6-49.3,30.9-49.8l63.5-107.6C273.5,84.2,274,76.6,271.1,69.9L271.1,69.9z M76,209.3v18.6c0.2,6.7-5,12.3-11.7,12.5
		c-6.7,0.2-12.3-5-12.5-11.7c-0.6-5-0.5-10.1,0.4-15.1c9.5-33.6,25.9-49.3,39.2-58C82.2,172,76.9,190.4,76,209.3L76,209.3z
		 M111.1,199.5v3.3c0.3,3.1-0.7,6.3-2.7,8.7c-2.1,2.4-5,3.9-8.1,4.1c-3.2,0.2-6.2-0.9-8.6-3s-3.7-5.1-3.8-8.3
		c-0.7-7.9-0.2-15.8,1.4-23.6c4.1-11.9,9.7-23.2,16.8-33.6c8-4,16.6-6.5,25.5-7.5C117.4,156.2,110.1,177.7,111.1,199.5L111.1,199.5z
		 M262.3,85.8l-62.9,107.7c0,0.3-19.9,31.1-31,50h0c-1.3,2.2-3.5,3.9-6,4.4c-2.5,0.6-5.2,0.1-7.3-1.3c-5.2-3.4-9.2-8.5-11.2-14.4
		c-2-5.9-2-12.3,0-18.3c4.1-8.3,9.2-15.9,15.3-22.8l0.7-0.8c14.1-17.5,19.6-29.8,18.1-40c-1-5.8-4.4-10.9-9.4-13.9
		c-16.8-11.2-50.4-5.6-66.9,3.5l-3.1,1.7c-13.3,6.9-40.6,21.6-54.3,69.2c0,0.3,0,0.7,0,1c-4.4,16.3-6.9,33-7.6,49.8
		c-0.1,7.1-5.7,12.8-12.8,13.1c-7.1,0.3-13.1-5-13.7-12.1c-3-26-5.6-92,36.3-141.2c53-62.8,64.6-68,99.9-83.6l4.5-2
		c26-11.5,52.8-20.9,70.7-26.8v0c1.4-0.4,2.9-0.7,4.3-0.7c5.5,0,10.4,3.3,12.6,8.3l24.8,56.9c1.7,4,1.4,8.5-0.7,12.3L262.3,85.8z"/>
</g>
</svg>
