<?xml version="1.0" encoding="utf-8"?>
<!-- Generator: Adobe Illustrator 28.3.0, SVG Export Plug-In . SVG Version: 6.00 Build 0)  -->
<svg version="1.1" id="Layer_1" xmlns="http://www.w3.org/2000/svg" xmlns:xlink="http://www.w3.org/1999/xlink" x="0px" y="0px"
	 viewBox="0 0 454.1 549.1" style="enable-background:new 0 0 454.1 549.1;" xml:space="preserve">
<style type="text/css">
	.st0{fill:#FFFFFF;stroke:#FFFFFF;stroke-width:15;}
</style>
<g>
	<path class="st0" d="M108.7,336.9c-0.8,3.6-6.3,2.4-5.4-1.2c2.6-11.7,9.8-21.7,12-34.5c-7.6-19.8-15-39.8-23.3-59.4
		c-8.2,8.9-17,27.8-21.9,38.9c-12.4,28.1-30.9,36.8-22.8,71.8c6.1,26.4,21.2,73.5,39.2,93.9c42,47.7,81.5,58.8,130.4,90
		c3.1,2,0.1,6.7-3,4.7c-49.6-31.6-89-42.6-131.6-91c-18.7-21.2-34.1-68.9-40.4-96.3c-8.7-38,9.9-45.4,23.2-75.3
		c4.9-11.2,15.7-34,24.7-42.1c-16-36.5-33.2-72.6-49.5-109C29.9,104.5,16.9,77.6,9.5,53.8C-3,13.3,45.6-11,66.9,25.1
		c12.3,20.7,22.6,42.7,32.8,64.4c11.7,24.9,23.5,49.9,37.6,72.2c4.5-10.1,11-23.8,23.5-31.7c18-11.3,36.1-5.8,49.8,9.1
		c23-32.9,54.8-16.3,74.1,9.6c19.6-18.5,36.8-13.6,51.7,1.4c15.3,15.4,27.9,41.7,38.3,63.4c26.9,56.2,37.1,105.1,45.7,167.6
		c5.4,39.2,11.2,80.7,26,127.8c1.1,3.5-4.2,5.2-5.3,1.7c-15-47.6-20.8-89.3-26.2-128.7c-8.6-61.9-18.5-110.3-45.2-166
		c-10.2-21.3-22.6-47.1-37.2-61.8c-12.8-12.9-27.6-17-44.5-0.6c9.9,16,20.8,41.5,27.2,59.2c1.2,3.5-4,5.3-5.2,1.9
		c-6.1-17-17.5-44.4-29.5-61.8c-16.6-24-45.7-40.1-66-9.2c15.4,18.9,27.6,40.2,38.4,62c1.6,3.3-3.4,5.8-5,2.5
		c-10.3-20.8-22-41.2-36.5-59.4c-12.2-15.3-28.5-26-47.7-13.6c-11,7.1-17,19.9-22.6,32.4c14.8,22.4,28.6,45.8,43,68.5
		c2,3.1-2.8,6.1-4.7,3c-15-23.8-29.6-47.8-44.9-71.5c-15-23.3-27.3-49.4-39.6-75.5C84.5,70.3,74.3,48.5,62.1,28
		C44.2-2.5,4.3,18,14.9,52.1c7.3,23.6,20.2,50.4,30.3,72.9c17.3,38.5,36.5,77.5,52.6,116.3c7.4,17.7,14.1,35.8,21.1,53.7
		c6.3,16.4,12.9,33,16.1,50.2c2.5,13.5,3.2,27.8,2,47.5c-0.2,3.7-5.8,3.4-5.6-0.3c0.9-16,0.8-25.3-7.6-40
		c-4.4-7.7-9.8-13.8-14.6-17.7C109.1,335.4,108.8,336.2,108.7,336.9L108.7,336.9z M118.7,310.3c-2,6.5-4.9,12.5-7.4,18.8
		c5.6,4.3,12.2,11.4,17.4,20.5c3.6,6.2,1.6,0.8,0.8-3.4C127.4,334.7,123.8,323.7,118.7,310.3L118.7,310.3z"/>
	<g transform="matrix(1 0 0 1 -60.534 547.0488)">
	</g>
	<g transform="matrix(1 0 0 1 -60.5145 547.0488)">
	</g>
	<g transform="matrix(1 0 0 1 -60.5028 547.0488)">
	</g>
	<g transform="matrix(1 0 0 1 -60.4833 547.0488)">
	</g>
	<g transform="matrix(1 0 0 1 -60.4676 547.0488)">
	</g>
	<g transform="matrix(1 0 0 1 -60.4364 547.0488)">
	</g>
	<g transform="matrix(1 0 0 1 -60.4051 547.0488)">
	</g>
	<g transform="matrix(1 0 0 1 -60.3895 547.0488)">
	</g>
	<g transform="matrix(1 0 0 1 -60.3622 547.0488)">
	</g>
	<g transform="matrix(1 0 0 1 -60.3465 547.0488)">
	</g>
	<g transform="matrix(1 0 0 1 -60.3114 547.0488)">
	</g>
	<g transform="matrix(1 0 0 1 -60.2958 547.0488)">
	</g>
	<g transform="matrix(1 0 0 1 -60.2606 547.0488)">
	</g>
	<g transform="matrix(1 0 0 1 -60.202 547.0488)">
	</g>
	<g transform="matrix(1 0 0 1 -60.1122 547.0488)">
	</g>
	<g transform="matrix(1 0 0 1 -60.0926 547.0488)">
	</g>
	<g transform="matrix(1 0 0 1 -60.034 547.0488)">
	</g>
	<g transform="matrix(1 0 0 1 -60.534 547.0761)">
	</g>
	<g transform="matrix(1 0 0 1 -60.4833 547.0761)">
	</g>
	<g transform="matrix(1 0 0 1 -60.4403 547.0761)">
	</g>
	<g transform="matrix(1 0 0 1 -60.3973 547.0761)">
	</g>
	<g transform="matrix(1 0 0 1 -60.3544 547.0761)">
	</g>
	<g transform="matrix(1 0 0 1 -60.2645 547.0761)">
	</g>
	<g transform="matrix(1 0 0 1 -60.2294 547.0761)">
	</g>
</g>
</svg>
