<?xml version="1.0" encoding="utf-8"?>
<!-- Generator: Adobe Illustrator 28.3.0, SVG Export Plug-In . SVG Version: 6.00 Build 0)  -->
<svg version="1.1" id="Layer_1" xmlns="http://www.w3.org/2000/svg" xmlns:xlink="http://www.w3.org/1999/xlink" x="0px" y="0px"
	 viewBox="0 0 548 548.5" style="enable-background:new 0 0 548 548.5;" xml:space="preserve">
<style type="text/css">
	.st0{fill-rule:evenodd;clip-rule:evenodd;fill:none;stroke:#FFFFFF;stroke-width:22;}
</style>
<path class="st0" d="M139.7,168c56.5,17,99.5,62.9,112.8,120.3l23.7,102.6c1.8,8,9.3,13.4,17.4,12.7l173.9-14.5
	c5.3-0.4,10.6-0.2,15.8,0.6c34.9,5.8,58.5,38.8,52.7,73.7l-0.9,5.3c-6.6,39.7-40.9,68.8-81.2,68.8H193.3c-21.4,0-40.4-13.8-47-34.2
	L63.4,245.8c-3.8-11.9-4-24.6-0.4-36.6C72.8,176.7,107.1,158.2,139.7,168z M146.8,52.5c0.7,1.6,1.2,3.3,1.8,5l14.1,45.9
	c5.3,17.4-4.4,35.8-21.8,41.1c-0.2,0.1-0.4,0.1-0.6,0.2l-67.8,19.4c-15.9,4.6-32.8-3.4-39.3-18.7l-16.8-39.2
	C2,72.9,17.5,34.2,50.9,19.9c0.5-0.2,1.1-0.5,1.6-0.7l8.9-3.5C95.2,2.2,133.4,18.7,146.8,52.5z"/>
</svg>
