<svg xmlns="http://www.w3.org/2000/svg" xml:space="preserve" viewBox="0 0 512 512"><path fill="#ffffff" d="M502 345c-11-6-20-7-30-10-13-4-17-20-22-21-10-4-19 11-25 9s-8-22-13-24c-9-3-20 12-26 10-5-2-9-21-14-23-9-4-19 12-25 10s-8-22-13-24c-10-4-20 12-29 11-6-1-19-4-36-15l-16-12c-1 0-6-1-5 7 3 21 38 36 79 47 40 12 81 23 106 35 15 7 21 15 16 23-4 6-15 7-26 1-12-5-13-15-21-17-9-2-21 16-29 14-9-2-10-22-19-25-11-3-23 15-31 13-7-1-10-23-17-25-11-3-23 15-31 13-7-1-11-23-17-25-12-5-28 13-44 4-52-35-42-53-82-65-21-6-47 1-62 3-35 3-34-27-34-27 10 2 25 9 51-1 29-11 45-13 82 0 32 10 51 1 62-2 5-1 9-4 19 2 11 7 20 14 25 12 8-4 5-25 19-29 6-2 22 14 30 12 7-3 5-25 18-29 6-2 23 14 30 11 7-2 5-24 18-28 6-2 23 14 30 11 7-2 5-24 19-28 6-2 22 14 30 11 7-2 6-8 12-23l6-8c8-6 20-21 13-37-6-14-20-14-50-7l-180 39c-24-45-41-15-77-20-23-3-60-26-118 28-29-8-55-2-75 8v270c45-9 84-24 115-43 92 22 226 24 270 24 44-1 78-3 105-16 29-14 25-35 12-44zM225 138c2-7 8-12 13-12 11 0 16 12 16 15l-25 5c-7 2-7-2-4-8zm-64-2c17 0 28 13 30 19l-37 8c-7 1-12-2-13-7-1-7 6-20 20-20z"/></svg>
