<svg width="42" height="42" viewBox="0 0 42 42" fill="none" xmlns="http://www.w3.org/2000/svg">
<g filter="url(#filter0_b_52_208)">
<path d="M1 3C1 1.89543 1.89543 1 3 1H39C40.1046 1 41 1.89543 41 3V34.1716C41 34.702 40.7893 35.2107 40.4142 35.5858L35.5858 40.4142C35.2107 40.7893 34.702 41 34.1716 41H3C1.89543 41 1 40.1046 1 39V3Z" fill="#0E1A19" fill-opacity="0.5"/>
<path d="M1 3C1 1.89543 1.89543 1 3 1H39C40.1046 1 41 1.89543 41 3V34.1716C41 34.702 40.7893 35.2107 40.4142 35.5858L35.5858 40.4142C35.2107 40.7893 34.702 41 34.1716 41H3C1.89543 41 1 40.1046 1 39V3Z" stroke="#434343"/>
</g>
<defs>
<filter id="filter0_b_52_208" x="-3.5" y="-3.5" width="49" height="49" filterUnits="userSpaceOnUse" color-interpolation-filters="sRGB">
<feFlood flood-opacity="0" result="BackgroundImageFix"/>
<feGaussianBlur in="BackgroundImageFix" stdDeviation="2"/>
<feComposite in2="SourceAlpha" operator="in" result="effect1_backgroundBlur_52_208"/>
<feBlend mode="normal" in="SourceGraphic" in2="effect1_backgroundBlur_52_208" result="shape"/>
</filter>
</defs>
</svg>
