<svg width="512" height="512" viewBox="0 0 512 512" fill="none" xmlns="http://www.w3.org/2000/svg">
<path fill-rule="evenodd" clip-rule="evenodd" d="M465.592 320.263L500.634 223.577C483.052 223.807 465.524 225.566 448.246 228.834L415.118 320.263H465.592ZM459.608 197.465L452.882 216.031C470.16 212.768 487.688 211.008 505.27 210.771L512 192.203C494.417 192.434 476.887 194.195 459.608 197.465ZM276.896 297.315C292.926 300.236 309.186 301.703 325.48 301.696H325.486C342.514 301.696 354.871 297.9 356.205 286.327C356.855 280.823 351.656 276.859 342.124 271.605C331.221 265.581 322.054 262.577 312.583 256.236C308.083 253.574 304.613 249.471 302.732 244.59C300.852 239.71 300.672 234.338 302.221 229.342C304.337 223.375 307.721 217.937 312.14 213.405C316.558 208.872 321.906 205.352 327.815 203.086C343.301 195.18 355.562 192.203 385.428 192.203C403.886 192.201 422.301 193.963 440.424 197.465L434.01 215.143C417.98 212.227 401.721 210.764 385.428 210.771C368.393 210.771 356.03 214.573 354.695 226.137C354.06 231.654 359.246 235.624 368.789 240.872C379.684 246.886 388.86 249.89 398.329 256.236C402.831 258.897 406.304 263.001 408.185 267.883C410.067 272.764 410.247 278.138 408.697 283.135C406.572 289.099 403.184 294.532 398.763 299.063C394.343 303.593 388.996 307.114 383.089 309.384C367.608 317.294 355.342 320.263 325.486 320.263H325.48C307.024 320.267 288.611 318.504 270.492 314.995L276.896 297.315ZM200.808 320.263L230.042 239.588C239.794 212.691 204.015 222.523 196.023 228.703C186.532 235.903 178.992 245.363 174.089 256.223L150.884 320.263H100.409L129.639 239.588C139.382 212.691 103.617 222.523 95.6193 228.703C86.1215 235.903 78.5775 245.369 73.6757 256.236L50.4817 320.263H0L46.4094 192.203C52.2232 191.622 58.0941 192.293 63.6269 194.172C69.1597 196.051 74.2256 199.094 78.4846 203.095C81.0857 205.772 82.8999 209.114 83.7281 212.753C91.2201 208.071 99.0681 203.984 107.2 200.531C119.745 195.226 133.198 192.399 146.816 192.203C152.627 191.621 158.496 192.293 164.027 194.171C169.557 196.05 174.621 199.093 178.877 203.095C181.488 205.766 183.308 209.11 184.134 212.753C191.627 208.07 199.476 203.982 207.609 200.531C220.151 195.226 233.6 192.399 247.215 192.203C253.028 191.621 258.899 192.292 264.431 194.171C269.964 196.05 275.03 199.093 279.288 203.095C282.358 206.899 284.385 211.436 285.172 216.261C285.958 221.086 285.476 226.032 283.773 230.614L251.287 320.263H200.808Z" fill="white"/>
</svg>
