
  <svg  viewBox="0 0 480 20" fill="none" preserveAspectRatio="none" xmlns="http://www.w3.org/2000/svg">
      <style>
          .graph-svg {
              width: 200%;
              transform: translateX(0%);
              animation: graph 20s infinite;
              animation-timing-function: steps(40, end);
              height: 100%;
           }
           .delay {
              animation-delay: 10s;
           }

          @keyframes graph {
              from {
                  transform: translateX(0%);
              }
              to {
                  transform: translateX(-50%);
              }
          }
      </style>
       <g class="graph-svg">
          <path d="M0 11.4832H5.39329C14.9521 11.4832 24.4987 10.7979 33.9595 9.43262L53.7647 6.57451C67.1077 4.64897 80.6112 4.07746 94.0692 4.86869L117.307 6.23492C120.959 6.44959 124.622 6.34988 128.256 5.9369C133.729 5.31498 139.259 5.40437 144.709 6.20285L166.331 9.37061C175.931 10.7771 185.621 11.4832 195.323 11.4832H245.393C254.952 11.4832 264.499 10.7979 273.96 9.43262L293.765 6.57451C307.108 4.64897 320.611 4.07746 334.069 4.86869L357.307 6.23492C360.959 6.44959 364.622 6.34988 368.256 5.9369C373.729 5.31498 379.259 5.40437 384.709 6.20285L406.331 9.37061C415.931 10.7771 425.621 11.4832 435.323 11.4832H480" stroke="white" stroke-opacity="0.75" stroke-weight="1px" vector-effect="non-scaling-stroke" />
    <path d="M117.307 6.23492L94.0692 4.86869C80.6112 4.07746 67.1077 4.64897 53.7647 6.57451L33.9595 9.43262C24.4987 10.7979 14.9521 11.4832 5.39329 11.4832H0V19H480V11.4832H435.323C425.621 11.4832 415.931 10.7771 406.331 9.37061L384.709 6.20285C379.259 5.40437 373.729 5.31498 368.256 5.9369C364.622 6.34988 360.959 6.44959 357.307 6.23492L334.069 4.86869C320.611 4.07746 307.108 4.64897 293.765 6.57451L273.96 9.43262C264.499 10.7979 254.952 11.4832 245.393 11.4832H195.323C185.621 11.4832 175.931 10.7771 166.331 9.37061L144.709 6.20285C139.259 5.40437 133.729 5.31498 128.256 5.9369C124.622 6.34988 120.959 6.44959 117.307 6.23492Z" fill="url(#paint0_linear_1458_24659)"/>
    <defs>
      <linearGradient id="paint0_linear_1458_24659" x1="240" y1="4.52393" x2="240" y2="19" gradientUnits="userSpaceOnUse">
        <stop stop-color="white" stop-opacity="0.5"/>
        <stop offset="1" stop-color="white" stop-opacity="0"/>
      </linearGradient>
    </defs>
      </g>

       <g transform="translate(480 0)" >
          <g  class="graph-svg">
             <path d="M0 11.4832H5.39329C14.9521 11.4832 24.4987 10.7979 33.9595 9.43262L53.7647 6.57451C67.1077 4.64897 80.6112 4.07746 94.0692 4.86869L117.307 6.23492C120.959 6.44959 124.622 6.34988 128.256 5.9369C133.729 5.31498 139.259 5.40437 144.709 6.20285L166.331 9.37061C175.931 10.7771 185.621 11.4832 195.323 11.4832H245.393C254.952 11.4832 264.499 10.7979 273.96 9.43262L293.765 6.57451C307.108 4.64897 320.611 4.07746 334.069 4.86869L357.307 6.23492C360.959 6.44959 364.622 6.34988 368.256 5.9369C373.729 5.31498 379.259 5.40437 384.709 6.20285L406.331 9.37061C415.931 10.7771 425.621 11.4832 435.323 11.4832H480" stroke="white" stroke-opacity="0.75" stroke-weight="1px" vector-effect="non-scaling-stroke" />
    <path d="M117.307 6.23492L94.0692 4.86869C80.6112 4.07746 67.1077 4.64897 53.7647 6.57451L33.9595 9.43262C24.4987 10.7979 14.9521 11.4832 5.39329 11.4832H0V19H480V11.4832H435.323C425.621 11.4832 415.931 10.7771 406.331 9.37061L384.709 6.20285C379.259 5.40437 373.729 5.31498 368.256 5.9369C364.622 6.34988 360.959 6.44959 357.307 6.23492L334.069 4.86869C320.611 4.07746 307.108 4.64897 293.765 6.57451L273.96 9.43262C264.499 10.7979 254.952 11.4832 245.393 11.4832H195.323C185.621 11.4832 175.931 10.7771 166.331 9.37061L144.709 6.20285C139.259 5.40437 133.729 5.31498 128.256 5.9369C124.622 6.34988 120.959 6.44959 117.307 6.23492Z" fill="url(#paint0_linear_1458_24659)"/>
    <defs>
      <linearGradient id="paint0_linear_1458_24659" x1="240" y1="4.52393" x2="240" y2="19" gradientUnits="userSpaceOnUse">
        <stop stop-color="white" stop-opacity="0.5"/>
        <stop offset="1" stop-color="white" stop-opacity="0"/>
      </linearGradient>
    </defs>
           </g>
      </g>
</svg>
