
  <svg  viewBox="0 0 480 20" fill="none" preserveAspectRatio="none" xmlns="http://www.w3.org/2000/svg">
      <style>
          .graph-svg {
              width: 200%;
              transform: translateX(0%);
              animation: graph 40s infinite;
              animation-timing-function: steps(40, end);
              height: 100%;
           }
           .delay {
              animation-delay: 10s;
           }

          @keyframes graph {
              from {
                  transform: translateX(0%);
              }
              to {
                  transform: translateX(-50%);
              }
          }
      </style>
       <g class="graph-svg">
          <path  d="M34.4151 7.61461L17.7642 3.80856C14.7256 3.11399 11.5535 4.16603 9.52648 6.54066C7.93235 8.40815 5.60393 9.48312 3.15298 9.48312H0V19.242H240H480V9.48312H475.854C473.948 9.48312 472.134 10.3074 470.877 11.745C468.771 14.1544 465.249 14.7107 462.506 13.0675L459.19 11.0805C457.445 10.0351 455.451 9.48312 453.418 9.48312H449.036C446.554 9.48312 444.084 9.82468 441.695 10.4982L440.972 10.702C435.447 12.2595 429.61 12.3255 424.051 10.8934L417.811 9.28577C413.409 8.15174 408.794 8.14517 404.389 9.26667L397.572 11.0022C392.513 12.2901 387.153 10.8066 383.468 7.09914C378.948 2.55069 372.022 1.43894 366.313 4.34527L363.937 5.55443C361.35 6.87119 358.49 7.55744 355.59 7.55744H343.439C340.673 7.55744 337.961 8.32701 335.605 9.78058L335.148 10.0626C329.581 13.4971 322.4 12.6974 317.72 8.12191C314.249 4.72876 309.298 3.33563 304.574 4.42293L290.761 7.60223C285.383 8.84018 279.795 8.84441 274.415 7.61461L257.764 3.80856C254.726 3.11399 251.554 4.16603 249.526 6.54066C247.932 8.40815 245.604 9.48312 243.153 9.48312H240H235.854C233.948 9.48312 232.134 10.3074 230.877 11.745C228.771 14.1544 225.249 14.7107 222.506 13.0675L219.19 11.0805C217.445 10.0351 215.451 9.48312 213.418 9.48312H209.036C206.554 9.48312 204.084 9.82468 201.695 10.4982L200.972 10.702C195.447 12.2595 189.61 12.3255 184.051 10.8934L177.811 9.28577C173.409 8.15174 168.794 8.14517 164.389 9.26667L157.572 11.0022C152.513 12.2901 147.153 10.8066 143.468 7.09914C138.948 2.55069 132.022 1.43894 126.313 4.34527L123.937 5.55443C121.35 6.87119 118.49 7.55744 115.59 7.55744H103.439C100.673 7.55744 97.9611 8.32701 95.6051 9.78058L95.1481 10.0626C89.5813 13.4971 82.3999 12.6974 77.7195 8.12191C74.2486 4.72876 69.2976 3.33563 64.5738 4.42293L50.7611 7.60223C45.3828 8.84018 39.7952 8.84441 34.4151 7.61461Z" fill="url(#paint0_linear_1458_23704)"/>
          <path  d="M0 9.48312H3.15298C5.60393 9.48312 7.93235 8.40815 9.52648 6.54066C11.5535 4.16603 14.7256 3.11399 17.7642 3.80856L34.4151 7.61461C39.7953 8.84441 45.3828 8.84018 50.7611 7.60223L64.5738 4.42293C69.2976 3.33563 74.2486 4.72876 77.7195 8.12191C82.3999 12.6974 89.5813 13.4971 95.1481 10.0626L95.6051 9.78058C97.9611 8.32701 100.673 7.55744 103.439 7.55744H115.59C118.49 7.55744 121.35 6.87119 123.937 5.55443L126.313 4.34527C132.022 1.43894 138.948 2.55069 143.468 7.09914C147.153 10.8066 152.513 12.2901 157.572 11.0022L164.389 9.26667C168.794 8.14517 173.409 8.15174 177.811 9.28577L184.051 10.8934C189.61 12.3255 195.447 12.2595 200.972 10.702L201.695 10.4982C204.084 9.82468 206.554 9.48312 209.036 9.48312H213.418C215.451 9.48312 217.445 10.0351 219.19 11.0805L222.506 13.0675C225.249 14.7107 228.771 14.1544 230.877 11.745C232.134 10.3074 233.948 9.48312 235.854 9.48312H243.153C245.604 9.48312 247.932 8.40815 249.526 6.54066C251.554 4.16603 254.726 3.11399 257.764 3.80856L274.415 7.61461C279.795 8.84441 285.383 8.84018 290.761 7.60223L304.574 4.42293C309.298 3.33563 314.249 4.72876 317.72 8.12191C322.4 12.6974 329.581 13.4971 335.148 10.0626L335.605 9.78058C337.961 8.32701 340.673 7.55744 343.439 7.55744H355.59C358.49 7.55744 361.35 6.87119 363.937 5.55443L366.313 4.34527C372.022 1.43894 378.948 2.55069 383.468 7.09914C387.153 10.8066 392.513 12.2901 397.572 11.0022L404.389 9.26667C408.794 8.14517 413.409 8.15174 417.811 9.28577L424.051 10.8934C429.61 12.3255 435.447 12.2595 440.972 10.702L441.695 10.4982C444.084 9.82468 446.554 9.48312 449.037 9.48312H453.418C455.451 9.48312 457.445 10.0351 459.19 11.0805L462.506 13.0675C465.249 14.7107 468.771 14.1544 470.877 11.745C472.134 10.3074 473.948 9.48312 475.854 9.48312H480" stroke="white" stroke-opacity="0.75" stroke-weight="1px" vector-effect="non-scaling-stroke"/>
          <defs>
          <linearGradient id="paint0_linear_1458_23704" x1="240" y1="2.73999" x2="240" y2="19.242" gradientUnits="userSpaceOnUse">
              <stop stop-color="white" stop-opacity="0.5"/>
              <stop offset="1" stop-color="white" stop-opacity="0"/>
          </linearGradient>
          </defs>
      </g>

       <g transform="translate(480 0)" >
          <g  class="graph-svg">
              <path  d="M34.4151 7.61461L17.7642 3.80856C14.7256 3.11399 11.5535 4.16603 9.52648 6.54066C7.93235 8.40815 5.60393 9.48312 3.15298 9.48312H0V19.242H240H480V9.48312H475.854C473.948 9.48312 472.134 10.3074 470.877 11.745C468.771 14.1544 465.249 14.7107 462.506 13.0675L459.19 11.0805C457.445 10.0351 455.451 9.48312 453.418 9.48312H449.036C446.554 9.48312 444.084 9.82468 441.695 10.4982L440.972 10.702C435.447 12.2595 429.61 12.3255 424.051 10.8934L417.811 9.28577C413.409 8.15174 408.794 8.14517 404.389 9.26667L397.572 11.0022C392.513 12.2901 387.153 10.8066 383.468 7.09914C378.948 2.55069 372.022 1.43894 366.313 4.34527L363.937 5.55443C361.35 6.87119 358.49 7.55744 355.59 7.55744H343.439C340.673 7.55744 337.961 8.32701 335.605 9.78058L335.148 10.0626C329.581 13.4971 322.4 12.6974 317.72 8.12191C314.249 4.72876 309.298 3.33563 304.574 4.42293L290.761 7.60223C285.383 8.84018 279.795 8.84441 274.415 7.61461L257.764 3.80856C254.726 3.11399 251.554 4.16603 249.526 6.54066C247.932 8.40815 245.604 9.48312 243.153 9.48312H240H235.854C233.948 9.48312 232.134 10.3074 230.877 11.745C228.771 14.1544 225.249 14.7107 222.506 13.0675L219.19 11.0805C217.445 10.0351 215.451 9.48312 213.418 9.48312H209.036C206.554 9.48312 204.084 9.82468 201.695 10.4982L200.972 10.702C195.447 12.2595 189.61 12.3255 184.051 10.8934L177.811 9.28577C173.409 8.15174 168.794 8.14517 164.389 9.26667L157.572 11.0022C152.513 12.2901 147.153 10.8066 143.468 7.09914C138.948 2.55069 132.022 1.43894 126.313 4.34527L123.937 5.55443C121.35 6.87119 118.49 7.55744 115.59 7.55744H103.439C100.673 7.55744 97.9611 8.32701 95.6051 9.78058L95.1481 10.0626C89.5813 13.4971 82.3999 12.6974 77.7195 8.12191C74.2486 4.72876 69.2976 3.33563 64.5738 4.42293L50.7611 7.60223C45.3828 8.84018 39.7952 8.84441 34.4151 7.61461Z" fill="url(#paint0_linear_1458_23704)"/>
              <path  d="M0 9.48312H3.15298C5.60393 9.48312 7.93235 8.40815 9.52648 6.54066C11.5535 4.16603 14.7256 3.11399 17.7642 3.80856L34.4151 7.61461C39.7953 8.84441 45.3828 8.84018 50.7611 7.60223L64.5738 4.42293C69.2976 3.33563 74.2486 4.72876 77.7195 8.12191C82.3999 12.6974 89.5813 13.4971 95.1481 10.0626L95.6051 9.78058C97.9611 8.32701 100.673 7.55744 103.439 7.55744H115.59C118.49 7.55744 121.35 6.87119 123.937 5.55443L126.313 4.34527C132.022 1.43894 138.948 2.55069 143.468 7.09914C147.153 10.8066 152.513 12.2901 157.572 11.0022L164.389 9.26667C168.794 8.14517 173.409 8.15174 177.811 9.28577L184.051 10.8934C189.61 12.3255 195.447 12.2595 200.972 10.702L201.695 10.4982C204.084 9.82468 206.554 9.48312 209.036 9.48312H213.418C215.451 9.48312 217.445 10.0351 219.19 11.0805L222.506 13.0675C225.249 14.7107 228.771 14.1544 230.877 11.745C232.134 10.3074 233.948 9.48312 235.854 9.48312H243.153C245.604 9.48312 247.932 8.40815 249.526 6.54066C251.554 4.16603 254.726 3.11399 257.764 3.80856L274.415 7.61461C279.795 8.84441 285.383 8.84018 290.761 7.60223L304.574 4.42293C309.298 3.33563 314.249 4.72876 317.72 8.12191C322.4 12.6974 329.581 13.4971 335.148 10.0626L335.605 9.78058C337.961 8.32701 340.673 7.55744 343.439 7.55744H355.59C358.49 7.55744 361.35 6.87119 363.937 5.55443L366.313 4.34527C372.022 1.43894 378.948 2.55069 383.468 7.09914C387.153 10.8066 392.513 12.2901 397.572 11.0022L404.389 9.26667C408.794 8.14517 413.409 8.15174 417.811 9.28577L424.051 10.8934C429.61 12.3255 435.447 12.2595 440.972 10.702L441.695 10.4982C444.084 9.82468 446.554 9.48312 449.037 9.48312H453.418C455.451 9.48312 457.445 10.0351 459.19 11.0805L462.506 13.0675C465.249 14.7107 468.771 14.1544 470.877 11.745C472.134 10.3074 473.948 9.48312 475.854 9.48312H480" stroke="white" stroke-opacity="0.75" stroke-weight="1px" vector-effect="non-scaling-stroke"/>
              <defs>
              <linearGradient id="paint0_linear_1458_23704" x1="240" y1="2.73999" x2="240" y2="19.242" gradientUnits="userSpaceOnUse">
                  <stop stop-color="white" stop-opacity="0.5"/>
                  <stop offset="1" stop-color="white" stop-opacity="0"/>
              </linearGradient>
              </defs>
           </g>
      </g>
</svg>
