
  <svg  viewBox="0 0 480 20" fill="none" preserveAspectRatio="none" xmlns="http://www.w3.org/2000/svg">
      <style>
          .graph-svg {
              width: 200%;
              transform: translateX(0%);
              animation: graph 40s infinite;
              animation-timing-function: steps(40, end);
              height: 100%;
           }
           .delay {
              animation-delay: 10s;
           }

          @keyframes graph {
              from {
                  transform: translateX(0%);
              }
              to {
                  transform: translateX(-50%);
              }
          }
      </style>
       <g class="graph-svg">
         <path d="M83.6463 8.21468L99.992 4.55383C102.938 3.89399 106.009 4.90107 107.992 7.17747C109.554 8.97067 111.816 9.99998 114.195 9.99998H115.283C116.621 9.99998 117.947 9.74711 119.191 9.25466L121.479 8.34919C124.652 7.09335 128.06 6.54292 131.467 6.73611L157.563 8.21596C162.288 8.48393 167.026 7.97697 171.588 6.71516C179.232 4.60083 187.309 4.62187 194.942 6.77598L197.486 7.49417C203.339 9.14579 209.476 9.53312 215.489 8.6304C217.595 8.31426 219.722 8.15553 221.851 8.15553H260.327L267.843 8.41985C271.609 8.55231 275.363 7.91676 278.876 6.55187C284.026 4.55124 289.655 4.13179 295.044 5.34717L307.706 8.20283C312.953 9.38617 318.398 9.39022 323.646 8.21468L339.992 4.55383C342.938 3.89399 346.009 4.90107 347.992 7.17747C349.554 8.97067 351.816 9.99998 354.195 9.99998H355.283C356.621 9.99998 357.947 9.74711 359.191 9.25466L361.479 8.34919C364.652 7.09335 368.06 6.54292 371.467 6.73611L397.563 8.21596C402.288 8.48393 407.026 7.97697 411.588 6.71516C419.232 4.60083 427.309 4.62187 434.942 6.77598L437.486 7.49417C443.339 9.14579 449.476 9.53312 455.489 8.6304C457.595 8.31426 459.722 8.15553 461.851 8.15553H480V19H0V8.15553H20.327L27.8427 8.41985C31.6093 8.55231 35.3634 7.91676 38.8765 6.55187C44.0259 4.55124 49.655 4.13179 55.0441 5.34717L67.7063 8.20283C72.9533 9.38617 78.3976 9.39022 83.6463 8.21468Z" fill="url(#paint0_linear_1458_24655)"/>
        <path d="M0 8.15553H20.327L27.8427 8.41985C31.6093 8.55231 35.3634 7.91676 38.8765 6.55187C44.0259 4.55124 49.655 4.13179 55.0441 5.34717L67.7063 8.20283C72.9533 9.38617 78.3976 9.39022 83.6463 8.21468L99.992 4.55383C102.938 3.89399 106.009 4.90107 107.992 7.17747C109.554 8.97067 111.816 9.99998 114.195 9.99998H115.283C116.621 9.99998 117.947 9.74711 119.191 9.25466L121.479 8.34919C124.652 7.09335 128.06 6.54292 131.467 6.73611L157.563 8.21596C162.288 8.48393 167.026 7.97697 171.588 6.71516C179.232 4.60083 187.309 4.62187 194.942 6.77598L197.486 7.49417C203.339 9.14579 209.476 9.53312 215.489 8.6304C217.595 8.31426 219.722 8.15553 221.851 8.15553H260.327L267.843 8.41985C271.609 8.55231 275.363 7.91676 278.876 6.55187C284.026 4.55124 289.655 4.13179 295.044 5.34717L307.706 8.20283C312.953 9.38617 318.398 9.39022 323.646 8.21468L339.992 4.55383C342.938 3.89399 346.009 4.90107 347.992 7.17747C349.554 8.97067 351.816 9.99998 354.195 9.99998H355.283C356.621 9.99998 357.947 9.74711 359.191 9.25466L361.479 8.34919C364.652 7.09335 368.06 6.54292 371.467 6.73611L397.563 8.21596C402.288 8.48393 407.026 7.97697 411.588 6.71516C419.232 4.60083 427.309 4.62187 434.942 6.77598L437.486 7.49417C443.339 9.14579 449.476 9.53312 455.489 8.6304C457.595 8.31426 459.722 8.15553 461.851 8.15553H480" stroke="white" stroke-opacity="0.75" stroke-weight="1px" vector-effect="non-scaling-stroke" />
        <defs>
        <linearGradient id="paint0_linear_1458_24655" x1="240" y1="4.35474" x2="240" y2="19" gradientUnits="userSpaceOnUse">
            <stop stop-color="white" stop-opacity="0.5"/>
            <stop offset="1" stop-color="white" stop-opacity="0"/>
        </linearGradient>
        </defs>
      </g>

       <g transform="translate(480 0)" >
          <g  class="graph-svg">
              <path d="M83.6463 8.21468L99.992 4.55383C102.938 3.89399 106.009 4.90107 107.992 7.17747C109.554 8.97067 111.816 9.99998 114.195 9.99998H115.283C116.621 9.99998 117.947 9.74711 119.191 9.25466L121.479 8.34919C124.652 7.09335 128.06 6.54292 131.467 6.73611L157.563 8.21596C162.288 8.48393 167.026 7.97697 171.588 6.71516C179.232 4.60083 187.309 4.62187 194.942 6.77598L197.486 7.49417C203.339 9.14579 209.476 9.53312 215.489 8.6304C217.595 8.31426 219.722 8.15553 221.851 8.15553H260.327L267.843 8.41985C271.609 8.55231 275.363 7.91676 278.876 6.55187C284.026 4.55124 289.655 4.13179 295.044 5.34717L307.706 8.20283C312.953 9.38617 318.398 9.39022 323.646 8.21468L339.992 4.55383C342.938 3.89399 346.009 4.90107 347.992 7.17747C349.554 8.97067 351.816 9.99998 354.195 9.99998H355.283C356.621 9.99998 357.947 9.74711 359.191 9.25466L361.479 8.34919C364.652 7.09335 368.06 6.54292 371.467 6.73611L397.563 8.21596C402.288 8.48393 407.026 7.97697 411.588 6.71516C419.232 4.60083 427.309 4.62187 434.942 6.77598L437.486 7.49417C443.339 9.14579 449.476 9.53312 455.489 8.6304C457.595 8.31426 459.722 8.15553 461.851 8.15553H480V19H0V8.15553H20.327L27.8427 8.41985C31.6093 8.55231 35.3634 7.91676 38.8765 6.55187C44.0259 4.55124 49.655 4.13179 55.0441 5.34717L67.7063 8.20283C72.9533 9.38617 78.3976 9.39022 83.6463 8.21468Z" fill="url(#paint0_linear_1458_24655)"/>
            <path d="M0 8.15553H20.327L27.8427 8.41985C31.6093 8.55231 35.3634 7.91676 38.8765 6.55187C44.0259 4.55124 49.655 4.13179 55.0441 5.34717L67.7063 8.20283C72.9533 9.38617 78.3976 9.39022 83.6463 8.21468L99.992 4.55383C102.938 3.89399 106.009 4.90107 107.992 7.17747C109.554 8.97067 111.816 9.99998 114.195 9.99998H115.283C116.621 9.99998 117.947 9.74711 119.191 9.25466L121.479 8.34919C124.652 7.09335 128.06 6.54292 131.467 6.73611L157.563 8.21596C162.288 8.48393 167.026 7.97697 171.588 6.71516C179.232 4.60083 187.309 4.62187 194.942 6.77598L197.486 7.49417C203.339 9.14579 209.476 9.53312 215.489 8.6304C217.595 8.31426 219.722 8.15553 221.851 8.15553H260.327L267.843 8.41985C271.609 8.55231 275.363 7.91676 278.876 6.55187C284.026 4.55124 289.655 4.13179 295.044 5.34717L307.706 8.20283C312.953 9.38617 318.398 9.39022 323.646 8.21468L339.992 4.55383C342.938 3.89399 346.009 4.90107 347.992 7.17747C349.554 8.97067 351.816 9.99998 354.195 9.99998H355.283C356.621 9.99998 357.947 9.74711 359.191 9.25466L361.479 8.34919C364.652 7.09335 368.06 6.54292 371.467 6.73611L397.563 8.21596C402.288 8.48393 407.026 7.97697 411.588 6.71516C419.232 4.60083 427.309 4.62187 434.942 6.77598L437.486 7.49417C443.339 9.14579 449.476 9.53312 455.489 8.6304C457.595 8.31426 459.722 8.15553 461.851 8.15553H480" stroke="white" stroke-opacity="0.75" stroke-weight="1px" vector-effect="non-scaling-stroke" />
            <defs>
            <linearGradient id="paint0_linear_1458_24655" x1="240" y1="4.35474" x2="240" y2="19" gradientUnits="userSpaceOnUse">
                <stop stop-color="white" stop-opacity="0.5"/>
                <stop offset="1" stop-color="white" stop-opacity="0"/>
            </linearGradient>
            </defs>
           </g>
      </g>
</svg>
