<svg width="222" height="194" viewBox="0 0 222 194" fill="none" xmlns="http://www.w3.org/2000/svg">
<mask id="mask0_2262_10052" style="mask-type:alpha" maskUnits="userSpaceOnUse" x="0" y="0" width="222" height="194">
<rect width="222" height="194" rx="16" fill="black"/>
</mask>
<g mask="url(#mask0_2262_10052)">
<path d="M131.727 -18.6062L115.524 -1.9437C113.338 0.982689 110.625 8.55547 117.26 15.4355C120.223 18.5072 122.962 21.3837 125.259 23.813C129.328 28.1166 134.08 32.9806 133.154 38.8303C132.809 41.007 131.778 43.2837 129.606 45.3563C123.896 50.803 119.511 55.1507 118.032 56.6438C115.203 59.9285 110.702 67.8238 115.331 73.1271C118.089 76.2863 121.896 80.4924 125.204 84.1093C128.891 88.1417 133.084 92.4028 133.251 97.8644C133.344 100.891 132.378 104.196 129.22 106.99C122.739 112.723 118.932 116.545 117.839 117.74C115.139 120.487 110.625 127.128 114.174 131.715C116.382 134.568 120.745 139.558 124.718 143.999C128.84 148.608 133.647 153.569 133.264 159.74C133.104 162.306 132.157 165 129.798 167.369C127.826 169.35 125.888 171.23 124.115 172.916C119.252 177.538 113.107 182.352 113.359 189.057C113.424 190.771 113.932 192.496 115.138 194.065C118.996 199.081 128.062 209.413 132.113 213.952" stroke="url(#paint0_linear_2262_10052)"/>
<path d="M135.668 -18.6062L119.465 -1.9437C117.279 0.982689 114.566 8.55547 121.201 15.4355C124.164 18.5072 126.904 21.3837 129.201 23.813C133.269 28.1166 138.022 32.9806 137.096 38.8303C136.751 41.007 135.72 43.2837 133.547 45.3563C127.837 50.803 123.452 55.1507 121.973 56.6438C119.144 59.9285 114.643 67.8238 119.273 73.1271C122.031 76.2863 125.838 80.4924 129.145 84.1093C132.833 88.1417 137.025 92.4028 137.192 97.8644C137.285 100.891 136.319 104.196 133.161 106.99C126.68 112.723 122.874 116.545 121.78 117.74C119.08 120.487 114.566 127.128 118.115 131.715C120.324 134.568 124.687 139.558 128.66 143.999C132.782 148.608 137.588 153.569 137.205 159.74C137.046 162.306 136.098 165 133.74 167.369C131.767 169.35 129.83 171.23 128.057 172.916C123.193 177.538 117.048 182.352 117.301 189.057C117.365 190.771 117.874 192.496 119.08 194.065C122.937 199.081 132.003 209.413 136.054 213.952" stroke="url(#paint1_linear_2262_10052)"/>
<path d="M139.61 -18.6062L123.407 -1.9437C121.221 0.982689 118.507 8.55547 125.143 15.4355C128.105 18.5072 130.845 21.3837 133.142 23.813C137.211 28.1166 141.963 32.9806 141.037 38.8303C140.692 41.007 139.661 43.2837 137.488 45.3563C131.779 50.803 127.394 55.1507 125.915 56.6438C123.086 59.9285 118.585 67.8238 123.214 73.1271C125.972 76.2863 129.779 80.4924 133.087 84.1093C136.774 88.1417 140.966 92.4028 141.134 97.8644C141.227 100.891 140.261 104.196 137.103 106.99C130.621 112.723 126.815 116.545 125.722 117.74C123.021 120.487 118.508 127.128 122.057 131.715C124.265 134.568 128.628 139.558 132.601 143.999C136.723 148.608 141.53 153.569 141.146 159.74C140.987 162.306 140.04 165 137.681 167.369C135.708 169.35 133.771 171.23 131.998 172.916C127.135 177.538 120.99 182.352 121.242 189.057C121.307 190.771 121.815 192.496 123.021 194.065C126.879 199.081 135.945 209.413 139.996 213.952" stroke="url(#paint2_linear_2262_10052)"/>
<path d="M143.551 -18.6062L127.348 -1.9437C125.162 0.982689 122.449 8.55547 129.084 15.4355C132.047 18.5072 134.786 21.3837 137.083 23.813C141.152 28.1166 145.905 32.9806 144.978 38.8303C144.634 41.007 143.602 43.2837 141.43 45.3563C135.72 50.803 131.335 55.1507 129.856 56.6438C127.027 59.9285 122.526 67.8238 127.156 73.1271C129.913 76.2863 133.721 80.4924 137.028 84.1093C140.715 88.1417 144.908 92.4028 145.075 97.8644C145.168 100.891 144.202 104.196 141.044 106.99C134.563 112.723 130.756 116.545 129.663 117.74C126.963 120.487 122.449 127.128 125.998 131.715C128.206 134.568 132.57 139.558 136.543 143.999C140.664 148.608 145.471 153.569 145.088 159.74C144.929 162.306 143.981 165 141.622 167.369C139.65 169.35 137.713 171.23 135.939 172.916C131.076 177.538 124.931 182.352 125.183 189.057C125.248 190.771 125.757 192.496 126.962 194.065C130.82 199.081 139.886 209.413 143.937 213.952" stroke="url(#paint3_linear_2262_10052)"/>
<path d="M147.493 -18.6062L131.29 -1.9437C129.104 0.982689 126.39 8.55547 133.026 15.4355C135.988 18.5072 138.728 21.3837 141.025 23.813C145.094 28.1166 149.846 32.9806 148.92 38.8303C148.575 41.007 147.544 43.2837 145.371 45.3563C139.662 50.803 135.276 55.1507 133.798 56.6438C130.968 59.9285 126.468 67.8238 131.097 73.1271C133.855 76.2863 137.662 80.4924 140.97 84.1093C144.657 88.1417 148.849 92.4028 149.017 97.8644C149.109 100.891 148.144 104.196 144.985 106.99C138.504 112.723 134.698 116.545 133.605 117.74C130.904 120.487 126.39 127.128 129.94 131.715C132.148 134.568 136.511 139.558 140.484 143.999C144.606 148.608 149.412 153.569 149.029 159.74C148.87 162.306 147.922 165 145.564 167.369C143.591 169.35 141.654 171.23 139.881 172.916C135.017 177.538 128.872 182.352 129.125 189.057C129.189 190.771 129.698 192.496 130.904 194.065C134.762 199.081 143.828 209.413 147.878 213.952" stroke="url(#paint4_linear_2262_10052)"/>
<path d="M151.435 -18.6062L135.232 -1.9437C133.046 0.982689 130.333 8.55547 136.968 15.4355C139.931 18.5072 142.67 21.3837 144.967 23.813C149.036 28.1166 153.788 32.9806 152.862 38.8303C152.517 41.007 151.486 43.2837 149.314 45.3563C143.604 50.803 139.219 55.1507 137.74 56.6438C134.911 59.9285 130.41 67.8238 135.039 73.1271C137.797 76.2863 141.604 80.4924 144.912 84.1093C148.599 88.1417 152.792 92.4028 152.959 97.8644C153.052 100.891 152.086 104.196 148.928 106.99C142.447 112.723 138.64 116.545 137.547 117.74C134.847 120.487 130.333 127.128 133.882 131.715C136.09 134.568 140.453 139.558 144.426 143.999C148.548 148.608 153.355 153.569 152.972 159.74C152.812 162.306 151.865 165 149.506 167.369C147.534 169.35 145.596 171.23 143.823 172.916C138.96 177.538 132.815 182.352 133.067 189.057C133.132 190.771 133.64 192.496 134.846 194.065C138.704 199.081 147.77 209.413 151.821 213.952" stroke="url(#paint5_linear_2262_10052)"/>
<path d="M127.812 -18.6062L111.893 -1.9437C109.746 0.982689 107.08 8.55547 113.599 15.4355C116.5 18.4969 119.183 21.3644 121.435 23.7885C125.448 28.1086 130.111 32.975 129.218 38.8035C128.884 40.9883 127.871 43.2752 125.728 45.3563C120.118 50.803 115.81 55.1507 114.357 56.6438C111.578 59.9285 107.156 67.8238 111.704 73.1271C114.408 76.2793 118.138 80.4739 121.382 84.0854C125.019 88.1335 129.138 92.4078 129.309 97.8469C129.404 100.879 128.458 104.19 125.349 106.99C118.981 112.723 115.242 116.545 114.168 117.74C111.515 120.487 107.08 127.128 110.567 131.715C112.733 134.563 117.009 139.541 120.907 143.977C124.969 148.6 129.685 153.568 129.324 159.711C129.172 162.286 128.243 164.992 125.917 167.369C124.002 169.326 122.121 171.186 120.396 172.856C115.579 177.518 109.51 182.374 109.767 189.072C109.833 190.781 110.333 192.501 111.514 194.065C115.305 199.081 124.212 209.413 128.191 213.952" stroke="url(#paint6_linear_2262_10052)"/>
<path d="M124.202 -18.6062L107.999 -1.9437C105.813 0.982689 103.099 8.55547 109.735 15.4355C112.697 18.5072 115.437 21.3837 117.734 23.813C121.803 28.1166 126.555 32.9806 125.629 38.8303C125.284 41.007 124.253 43.2837 122.08 45.3563C116.371 50.803 111.985 55.1507 110.507 56.6438C107.677 59.9285 103.177 67.8238 107.806 73.1271C110.564 76.2863 114.371 80.4924 117.678 84.1093C121.366 88.1417 125.558 92.4028 125.726 97.8644C125.818 100.891 124.853 104.196 121.694 106.99C115.213 112.723 111.407 116.545 110.314 117.74C107.613 120.487 103.099 127.128 106.649 131.715C108.857 134.568 113.22 139.558 117.193 143.999C121.315 148.608 126.121 153.569 125.738 159.74C125.579 162.306 124.631 165 122.273 167.369C120.3 169.35 118.363 171.23 116.59 172.916C111.726 177.538 105.581 182.352 105.834 189.057C105.898 190.771 106.407 192.496 107.613 194.065C111.471 199.081 120.537 209.413 124.587 213.952" stroke="url(#paint7_linear_2262_10052)"/>
<path d="M120.259 -18.6062L104.056 -1.9437C101.87 0.982689 99.1568 8.55547 105.792 15.4355C108.755 18.5072 111.494 21.3837 113.791 23.813C117.86 28.1166 122.613 32.9806 121.686 38.8303C121.342 41.007 120.31 43.2837 118.138 45.3563C112.428 50.803 108.043 55.1507 106.564 56.6438C103.735 59.9285 99.2342 67.8238 103.864 73.1271C106.621 76.2863 110.429 80.4924 113.736 84.1093C117.424 88.1417 121.616 92.4028 121.783 97.8644C121.876 100.891 120.91 104.196 117.752 106.99C111.271 112.723 107.464 116.545 106.371 117.74C103.671 120.487 99.1571 127.128 102.706 131.715C104.914 134.568 109.278 139.558 113.251 143.999C117.372 148.608 122.179 153.569 121.796 159.74C121.637 162.306 120.689 165 118.33 167.369C116.358 169.35 114.421 171.23 112.647 172.916C107.784 177.538 101.639 182.352 101.891 189.057C101.956 190.771 102.465 192.496 103.67 194.065C107.528 199.081 116.594 209.413 120.645 213.952" stroke="url(#paint8_linear_2262_10052)"/>
<path d="M116.345 -18.6062L100.427 -1.9437C98.2789 0.982689 95.6131 8.55547 102.132 15.4355C105.033 18.4969 107.716 21.3644 109.968 23.7885C113.981 28.1086 118.644 32.975 117.752 38.8035C117.417 40.9883 116.404 43.2752 114.261 45.3563C108.652 50.803 104.343 55.1507 102.891 56.6438C100.111 59.9285 95.6892 67.8238 100.237 73.1271C102.941 76.2793 106.671 80.4739 109.915 84.0854C113.552 88.1335 117.671 92.4078 117.842 97.8469C117.937 100.879 116.991 104.19 113.882 106.99C107.515 112.723 103.775 116.545 102.701 117.74C100.048 120.487 95.6134 127.128 99.1004 131.715C101.266 134.563 105.542 139.541 109.44 143.977C113.502 148.6 118.218 153.568 117.857 159.711C117.705 162.286 116.776 164.992 114.45 167.369C112.535 169.326 110.654 171.186 108.929 172.856C104.112 177.518 98.0427 182.374 98.3004 189.072C98.3661 190.781 98.8662 192.501 100.048 194.065C103.838 199.081 112.745 209.413 116.724 213.952" stroke="url(#paint9_linear_2262_10052)"/>
<path d="M112.735 -18.6062L96.5319 -1.9437C94.3457 0.982689 91.6324 8.55547 98.2679 15.4355C101.23 18.5072 103.97 21.3837 106.267 23.813C110.336 28.1166 115.088 32.9806 114.162 38.8303C113.817 41.007 112.786 43.2837 110.613 45.3563C104.904 50.803 100.519 55.1507 99.0398 56.6438C96.2107 59.9285 91.7098 67.8238 96.3393 73.1271C99.097 76.2863 102.904 80.4924 106.212 84.1093C109.899 88.1417 114.091 92.4028 114.259 97.8644C114.352 100.891 113.386 104.196 110.228 106.99C103.746 112.723 99.9399 116.545 98.8469 117.74C96.1464 120.487 91.6327 127.128 95.1819 131.715C97.39 134.568 101.753 139.558 105.726 143.999C109.848 148.608 114.655 153.569 114.271 159.74C114.112 162.306 113.165 165 110.806 167.369C108.833 169.35 106.896 171.23 105.123 172.916C100.26 177.538 94.1146 182.352 94.367 189.057C94.4315 190.771 94.9401 192.496 96.146 194.065C100.004 199.081 109.07 209.413 113.121 213.952" stroke="url(#paint10_linear_2262_10052)"/>
<path d="M108.793 -18.6062L92.5905 -1.9437C90.4043 0.982689 87.691 8.55547 94.3265 15.4355C97.2891 18.5072 100.029 21.3837 102.326 23.813C106.394 28.1166 111.147 32.9806 110.221 38.8303C109.876 41.007 108.845 43.2837 106.672 45.3563C100.962 50.803 96.5772 55.1507 95.0984 56.6438C92.2693 59.9285 87.7684 67.8238 92.3979 73.1271C95.1556 76.2863 98.9629 80.4924 102.27 84.1093C105.958 88.1417 110.15 92.4028 110.317 97.8644C110.41 100.891 109.444 104.196 106.286 106.99C99.805 112.723 95.9985 116.545 94.9055 117.74C92.205 120.487 87.6913 127.128 91.2405 131.715C93.4486 134.568 97.8118 139.558 101.785 143.999C105.907 148.608 110.713 153.569 110.33 159.74C110.171 162.306 109.223 165 106.865 167.369C104.892 169.35 102.955 171.23 101.182 172.916C96.3181 177.538 90.1732 182.352 90.4256 189.057C90.4901 190.771 90.9987 192.496 92.2046 194.065C96.0625 199.081 105.128 209.413 109.179 213.952" stroke="url(#paint11_linear_2262_10052)"/>
<path d="M104.852 -18.6062L88.649 -1.9437C86.4629 0.982689 83.7496 8.55547 90.3851 15.4355C93.3477 18.5072 96.0873 21.3837 98.3841 23.813C102.453 28.1166 107.205 32.9806 106.279 38.8303C105.934 41.007 104.903 43.2837 102.731 45.3563C97.0209 50.803 92.6358 55.1507 91.157 56.6438C88.3279 59.9285 83.827 67.8238 88.4565 73.1271C91.2142 76.2863 95.0215 80.4924 98.3289 84.1093C102.016 88.1417 106.209 92.4028 106.376 97.8644C106.469 100.891 105.503 104.196 102.345 106.99C95.8636 112.723 92.0571 116.545 90.9641 117.74C88.2636 120.487 83.7499 127.128 87.2991 131.715C89.5072 134.568 93.8704 139.558 97.8433 143.999C101.965 148.608 106.772 153.569 106.389 159.74C106.229 162.306 105.282 165 102.923 167.369C100.951 169.35 99.0133 171.23 97.2403 172.916C92.3767 177.538 86.2318 182.352 86.4842 189.057C86.5487 190.771 87.0573 192.496 88.2632 194.065C92.1211 199.081 101.187 209.413 105.238 213.952" stroke="url(#paint12_linear_2262_10052)"/>
<path d="M100.937 -18.6062L85.0185 -1.9437C82.8707 0.982689 80.2049 8.55547 86.724 15.4355C89.6249 18.4969 92.3081 21.3644 94.56 23.7885C98.5731 28.1086 103.236 32.975 102.343 38.8035C102.009 40.9883 100.996 43.2752 98.8529 45.3563C93.2434 50.803 88.9353 55.1507 87.4824 56.6438C84.7029 59.9285 80.281 67.8238 84.8292 73.1271C87.5326 76.2793 91.2626 80.4739 94.507 84.0854C98.1436 88.1335 102.263 92.4078 102.434 97.8469C102.529 100.879 101.583 104.19 98.4739 106.99C92.1064 112.723 88.3667 116.545 87.2929 117.74C84.6397 120.487 80.2052 127.128 83.6922 131.715C85.8579 134.563 90.1337 139.541 94.0317 143.977C98.0939 148.6 102.81 153.568 102.449 159.711C102.297 162.286 101.368 164.992 99.0421 167.369C97.127 169.326 95.2457 171.186 93.5205 172.856C88.7041 177.518 82.6345 182.374 82.8922 189.072C82.9579 190.781 83.458 192.501 84.6394 194.065C88.4296 199.081 97.3365 209.413 101.316 213.952" stroke="url(#paint13_linear_2262_10052)"/>
<path d="M97.3267 -18.6062L81.1237 -1.9437C78.9375 0.982689 76.2242 8.55547 82.8597 15.4355C85.8223 18.5072 88.5619 21.3837 90.8587 23.813C94.9277 28.1166 99.68 32.9806 98.7537 38.8303C98.4091 41.007 97.3778 43.2837 95.2052 45.3563C89.4955 50.803 85.1104 55.1507 83.6316 56.6438C80.8025 59.9285 76.3016 67.8238 80.9311 73.1271C83.6888 76.2863 87.4961 80.4924 90.8035 84.1093C94.4909 88.1417 98.6831 92.4028 98.8506 97.8644C98.9434 100.891 97.9776 104.196 94.8194 106.99C88.3382 112.723 84.5317 116.545 83.4387 117.74C80.7382 120.487 76.2245 127.128 79.7737 131.715C81.9818 134.568 86.345 139.558 90.3179 143.999C94.4398 148.608 99.2465 153.569 98.8633 159.74C98.7039 162.306 97.7563 165 95.3977 167.369C93.4252 169.35 91.4879 171.23 89.7149 172.916C84.8513 177.538 78.7064 182.352 78.9588 189.057C79.0233 190.771 79.5319 192.496 80.7378 194.065C84.5957 199.081 93.6617 209.413 97.7124 213.952" stroke="url(#paint14_linear_2262_10052)"/>
<path d="M93.3843 -18.6062L77.1813 -1.9437C74.9951 0.982689 72.2818 8.55547 78.9173 15.4355C81.8799 18.5072 84.6195 21.3837 86.9163 23.813C90.9853 28.1166 95.7377 32.9806 94.8113 38.8303C94.4667 41.007 93.4354 43.2837 91.2628 45.3563C85.5531 50.803 81.168 55.1507 79.6892 56.6438C76.8601 59.9285 72.3592 67.8238 76.9887 73.1271C79.7464 76.2863 83.5537 80.4924 86.8611 84.1093C90.5485 88.1417 94.7408 92.4028 94.9082 97.8644C95.0011 100.891 94.0353 104.196 90.877 106.99C84.3958 112.723 80.5894 116.545 79.4963 117.74C76.7958 120.487 72.2821 127.128 75.8313 131.715C78.0394 134.568 82.4026 139.558 86.3756 143.999C90.4974 148.608 95.3041 153.569 94.9209 159.74C94.7615 162.306 93.8139 165 91.4553 167.369C89.4828 169.35 87.5456 171.23 85.7725 172.916C80.9089 177.538 74.764 182.352 75.0164 189.057C75.081 190.771 75.5895 192.496 76.7954 194.065C80.6533 199.081 89.7193 209.413 93.7701 213.952" stroke="url(#paint15_linear_2262_10052)"/>
<path d="M89.4704 -18.6062L73.5517 -1.9437C71.4039 0.982689 68.7381 8.55547 75.2572 15.4355C78.1581 18.4969 80.8413 21.3644 83.0932 23.7885C87.1063 28.1086 91.7689 32.975 90.8766 38.8035C90.5421 40.9883 89.5294 43.2752 87.3861 45.3563C81.7766 50.803 77.4685 55.1507 76.0156 56.6438C73.2361 59.9285 68.8142 67.8238 73.3624 73.1271C76.0658 76.2793 79.7958 80.4739 83.0402 84.0854C86.6768 88.1335 90.7959 92.4078 90.9671 97.8469C91.0625 100.879 90.116 104.19 87.0071 106.99C80.6396 112.723 76.8999 116.545 75.8261 117.74C73.1729 120.487 68.7384 127.128 72.2254 131.715C74.3911 134.563 78.6669 139.541 82.5649 143.977C86.6271 148.6 91.343 153.568 90.9818 159.711C90.8304 162.286 89.9011 164.992 87.5753 167.369C85.6602 169.326 83.7789 171.186 82.0537 172.856C77.2373 177.518 71.1677 182.374 71.4254 189.072C71.4911 190.781 71.9912 192.501 73.1726 194.065C76.9628 199.081 85.8697 209.413 89.8494 213.952" stroke="url(#paint16_linear_2262_10052)"/>
<path d="M85.8599 -18.6062L69.6569 -1.9437C67.4707 0.982689 64.7574 8.55547 71.3929 15.4355C74.3555 18.5072 77.0951 21.3837 79.3919 23.813C83.4609 28.1166 88.2132 32.9806 87.2869 38.8303C86.9423 41.007 85.911 43.2837 83.7384 45.3563C78.0287 50.803 73.6436 55.1507 72.1648 56.6438C69.3357 59.9285 64.8348 67.8238 69.4643 73.1271C72.222 76.2863 76.0293 80.4924 79.3367 84.1093C83.0241 88.1417 87.2163 92.4028 87.3838 97.8644C87.4766 100.891 86.5108 104.196 83.3526 106.99C76.8714 112.723 73.0649 116.545 71.9719 117.74C69.2714 120.487 64.7577 127.128 68.3069 131.715C70.515 134.568 74.8782 139.558 78.8511 143.999C82.973 148.608 87.7797 153.569 87.3965 159.74C87.2371 162.306 86.2895 165 83.9309 167.369C81.9584 169.35 80.0211 171.23 78.2481 172.916C73.3845 177.538 67.2396 182.352 67.492 189.057C67.5565 190.771 68.0651 192.496 69.271 194.065C73.1289 199.081 82.1949 209.413 86.2456 213.952" stroke="url(#paint17_linear_2262_10052)"/>
</g>
<defs>
<linearGradient id="paint0_linear_2262_10052" x1="123.08" y1="-18.6062" x2="123.08" y2="213.952" gradientUnits="userSpaceOnUse">
<stop offset="0.075"/>
<stop offset="0.51" stop-color="#BF8AFF"/>
<stop offset="0.92"/>
</linearGradient>
<linearGradient id="paint1_linear_2262_10052" x1="127.021" y1="-18.6062" x2="127.021" y2="213.952" gradientUnits="userSpaceOnUse">
<stop offset="0.075"/>
<stop offset="0.51" stop-color="#BF8AFF"/>
<stop offset="0.92"/>
</linearGradient>
<linearGradient id="paint2_linear_2262_10052" x1="130.963" y1="-18.6062" x2="130.963" y2="213.952" gradientUnits="userSpaceOnUse">
<stop offset="0.075"/>
<stop offset="0.51" stop-color="#BF8AFF"/>
<stop offset="0.92"/>
</linearGradient>
<linearGradient id="paint3_linear_2262_10052" x1="134.904" y1="-18.6062" x2="134.904" y2="213.952" gradientUnits="userSpaceOnUse">
<stop offset="0.075"/>
<stop offset="0.51" stop-color="#BF8AFF"/>
<stop offset="0.92"/>
</linearGradient>
<linearGradient id="paint4_linear_2262_10052" x1="138.845" y1="-18.6062" x2="138.845" y2="213.952" gradientUnits="userSpaceOnUse">
<stop offset="0.075"/>
<stop offset="0.51" stop-color="#BF8AFF"/>
<stop offset="0.92"/>
</linearGradient>
<linearGradient id="paint5_linear_2262_10052" x1="142.788" y1="-18.6062" x2="142.788" y2="213.952" gradientUnits="userSpaceOnUse">
<stop offset="0.075"/>
<stop offset="0.51" stop-color="#BF8AFF"/>
<stop offset="0.92"/>
</linearGradient>
<linearGradient id="paint6_linear_2262_10052" x1="119.317" y1="-18.6062" x2="119.317" y2="213.952" gradientUnits="userSpaceOnUse">
<stop offset="0.075"/>
<stop offset="0.51" stop-color="#BF8AFF"/>
<stop offset="0.92"/>
</linearGradient>
<linearGradient id="paint7_linear_2262_10052" x1="115.554" y1="-18.6062" x2="115.554" y2="213.952" gradientUnits="userSpaceOnUse">
<stop offset="0.075"/>
<stop offset="0.51" stop-color="#BF8AFF"/>
<stop offset="0.92"/>
</linearGradient>
<linearGradient id="paint8_linear_2262_10052" x1="111.612" y1="-18.6062" x2="111.612" y2="213.952" gradientUnits="userSpaceOnUse">
<stop offset="0.075"/>
<stop offset="0.51" stop-color="#BF8AFF"/>
<stop offset="0.92"/>
</linearGradient>
<linearGradient id="paint9_linear_2262_10052" x1="107.85" y1="-18.6062" x2="107.85" y2="213.952" gradientUnits="userSpaceOnUse">
<stop offset="0.075"/>
<stop offset="0.51" stop-color="#BF8AFF"/>
<stop offset="0.92"/>
</linearGradient>
<linearGradient id="paint10_linear_2262_10052" x1="104.088" y1="-18.6062" x2="104.088" y2="213.952" gradientUnits="userSpaceOnUse">
<stop offset="0.075"/>
<stop offset="0.51" stop-color="#BF8AFF"/>
<stop offset="0.92"/>
</linearGradient>
<linearGradient id="paint11_linear_2262_10052" x1="100.146" y1="-18.6062" x2="100.146" y2="213.952" gradientUnits="userSpaceOnUse">
<stop offset="0.075"/>
<stop offset="0.51" stop-color="#BF8AFF"/>
<stop offset="0.92"/>
</linearGradient>
<linearGradient id="paint12_linear_2262_10052" x1="96.2047" y1="-18.6062" x2="96.2047" y2="213.952" gradientUnits="userSpaceOnUse">
<stop offset="0.075"/>
<stop offset="0.51" stop-color="#BF8AFF"/>
<stop offset="0.92"/>
</linearGradient>
<linearGradient id="paint13_linear_2262_10052" x1="92.4415" y1="-18.6062" x2="92.4415" y2="213.952" gradientUnits="userSpaceOnUse">
<stop offset="0.075"/>
<stop offset="0.51" stop-color="#BF8AFF"/>
<stop offset="0.92"/>
</linearGradient>
<linearGradient id="paint14_linear_2262_10052" x1="88.6793" y1="-18.6062" x2="88.6793" y2="213.952" gradientUnits="userSpaceOnUse">
<stop offset="0.075"/>
<stop offset="0.51" stop-color="#BF8AFF"/>
<stop offset="0.92"/>
</linearGradient>
<linearGradient id="paint15_linear_2262_10052" x1="84.7369" y1="-18.6062" x2="84.7369" y2="213.952" gradientUnits="userSpaceOnUse">
<stop offset="0.075"/>
<stop offset="0.51" stop-color="#BF8AFF"/>
<stop offset="0.92"/>
</linearGradient>
<linearGradient id="paint16_linear_2262_10052" x1="80.9747" y1="-18.6062" x2="80.9747" y2="213.952" gradientUnits="userSpaceOnUse">
<stop offset="0.075"/>
<stop offset="0.51" stop-color="#BF8AFF"/>
<stop offset="0.92"/>
</linearGradient>
<linearGradient id="paint17_linear_2262_10052" x1="77.2125" y1="-18.6062" x2="77.2125" y2="213.952" gradientUnits="userSpaceOnUse">
<stop offset="0.075"/>
<stop offset="0.51" stop-color="#BF8AFF"/>
<stop offset="0.92"/>
</linearGradient>
</defs>
</svg>
