<svg width="151" height="58" viewBox="0 0 151 58" fill="none" xmlns="http://www.w3.org/2000/svg">
<path fill-rule="evenodd" clip-rule="evenodd" d="M4.67361 21.7178H7.79108V24.8443H4.67469V26.4064H1.55722V23.2799H4.67361V21.7178ZM3.11649 26.4081H-0.000976562V29.5324V29.5347V33.1267H3.11649V29.5347V29.5324V26.4081ZM7.79462 23.2799H10.9121V26.4064H7.79462V23.2799ZM12.4703 26.4081H9.35282V29.5324V29.5347V33.1267H12.4703V29.5347V29.5324V26.4081Z" fill="white"/>
<path fill-rule="evenodd" clip-rule="evenodd" d="M35.584 21.1611H32.4666V22.7232H29.3502V25.8498H32.4677V24.2877H35.584V21.1611ZM27.792 25.8515H30.9095V28.9758H32.4677V30.5424H35.584V33.6689H32.4666V32.1024H29.3502V28.978H27.792V25.8515ZM37.1458 28.9758H35.5876V32.1024H38.7051V28.978H40.2633V25.8515H37.1458V28.9758ZM38.7051 22.7232H35.5876V25.8498H38.7051V22.7232Z" fill="white"/>
<path d="M55.814 21.668C57.0208 21.668 58.0232 21.93 58.8206 22.4525C59.618 22.9757 60.221 23.6635 60.6311 24.515C61.0412 25.3673 61.2455 26.3163 61.2455 27.362V33.1688H58.0711V27.9005C58.0711 27.3179 57.9853 26.7908 57.8136 26.3201C57.642 25.8494 57.3739 25.4724 57.0086 25.1883C56.6433 24.9042 56.1702 24.7625 55.5892 24.7625C55.0083 24.7625 54.539 24.9012 54.1813 25.1769C53.8236 25.4534 53.5593 25.8273 53.3877 26.298C53.216 26.7687 53.1302 27.2882 53.1302 27.8563V33.1696H49.9558V27.8784C49.9558 27.2958 49.8738 26.7687 49.7097 26.298C49.5457 25.8273 49.2776 25.4541 48.9047 25.1769C48.5319 24.9004 48.0625 24.7625 47.4967 24.7625C46.9006 24.7625 46.4237 24.905 46.066 25.1883C45.7083 25.4724 45.447 25.8494 45.2838 26.3201C45.1197 26.7908 45.0377 27.3102 45.0377 27.8784V33.1696H41.8633V27.3628C41.8633 26.3315 42.0645 25.3863 42.467 24.5272C42.8695 23.6681 43.4695 22.9765 44.2661 22.4532C45.0635 21.93 46.0576 21.6687 47.2507 21.6687C48.2038 21.6687 49.0278 21.8447 49.7211 22.1958C50.4137 22.5469 50.9506 23.0328 51.3304 23.6528C51.7101 24.2736 51.9075 24.9941 51.9227 25.8159H51.2073C51.2218 24.9941 51.4306 24.2728 51.8331 23.6528C52.2356 23.0328 52.7794 22.5469 53.4651 22.1958C54.1501 21.8447 54.9323 21.6687 55.8125 21.6687L55.814 21.668Z" fill="white"/>
<path d="M20.2695 21.3809C16.9454 21.3809 14.251 24.0824 14.251 27.4169C14.251 30.7514 16.9447 33.453 20.2695 33.453C23.5943 33.453 26.288 30.7514 26.288 27.4169C26.288 24.0824 23.5935 21.3809 20.2695 21.3809ZM20.2695 30.4346C18.6071 30.4346 17.2606 29.0834 17.2606 27.4169C17.2606 25.7504 18.6078 24.3993 20.2695 24.3993C21.9311 24.3993 23.2783 25.7504 23.2783 27.4169C23.2783 29.0834 21.9311 30.4346 20.2695 30.4346Z" fill="white"/>
<path d="M69.1054 21.3809C65.7814 21.3809 63.0869 24.0824 63.0869 27.4169C63.0869 30.7514 65.7806 33.453 69.1054 33.453C72.4302 33.453 75.1239 30.7514 75.1239 27.4169C75.1239 24.0824 72.4294 21.3809 69.1054 21.3809ZM69.1054 30.4346C67.443 30.4346 66.0965 29.0834 66.0965 27.4169C66.0965 25.7504 67.4438 24.3993 69.1054 24.3993C70.767 24.3993 72.1143 25.7504 72.1143 27.4169C72.1143 29.0834 70.767 30.4346 69.1054 30.4346Z" fill="white"/>
<path d="M101.362 27.0447C101.423 27.3465 101.06 27.7087 100.095 28.4331C96.8951 30.9082 95.0841 31.2704 91.462 31.5722C90.1943 31.6929 89.7114 31.8137 88.8059 32.357C86.4515 33.6247 83.1313 33.0814 84.9424 31.6929C85.6064 31.21 86.693 30.8478 88.0815 30.6667C88.987 30.6063 89.2888 30.4856 89.7717 29.9423C91.0998 28.5538 91.5828 27.105 90.7376 27.105C89.5303 27.105 86.2704 29.5197 83.3124 32.6588C81.7429 34.3491 81.1392 34.7113 80.7166 34.3491C80.4148 34.168 80.5355 33.6247 81.3203 31.7533C82.2258 29.5197 84.4594 25.294 86.2704 22.2756C87.7796 19.8006 91.5828 14.3071 92.1261 13.7638C92.5486 13.4016 93.3334 13.462 93.4542 13.8846C93.4542 14.0657 92.7901 15.2126 91.8242 16.5407C88.9266 20.6457 86.6326 24.4489 84.0972 29.2782L83.3124 30.6667L85.2442 29.0971C88.504 26.3202 90.798 25.4147 92.0657 26.441C92.8505 27.0447 92.7901 28.0709 91.945 29.399C91.5828 30.0027 91.3413 30.4856 91.4017 30.546C91.5224 30.6667 93.8767 30.2441 94.6615 29.9423C96.1707 29.399 97.6195 29.0368 99.0683 27.8898C100.578 26.6824 101.242 26.3202 101.362 27.0447ZM111.505 27.8898C113.679 26.2599 113.92 26.6824 113.86 27.0447C113.799 27.2258 113.196 27.9502 111.807 29.0368C107.34 32.5984 104.261 33.8662 101.605 33.4436C99.613 33.0814 98.5264 31.9948 98.7075 30.4856C98.949 28.3727 101.545 26.0788 103.416 26.0788C103.658 26.0788 103.899 26.0788 104.141 26.1995C105.167 26.6824 105.106 27.7691 103.899 28.7953C103.235 29.399 102.511 29.5801 101.786 29.5801C100.579 29.7008 100.458 29.5197 100.277 29.8819C100.217 30.1234 100.156 30.6667 100.156 31.0289C100.277 31.9948 101.001 32.4173 102.571 32.4777C104.624 32.4777 107.34 31.0893 111.505 27.8898ZM101.786 27.9502C101.364 28.252 101.303 28.4331 101.484 28.4935C101.847 28.7349 101.847 28.7349 102.631 28.3124C103.295 28.0105 103.778 27.3465 103.537 27.1654C103.477 27.105 103.477 27.105 103.416 27.105C103.114 27.105 102.39 27.4672 101.786 27.9502ZM128.157 27.2861C129.304 26.5013 129.606 26.5617 129.606 27.2258C129.606 27.3465 129.365 27.6483 128.942 28.0709C127.735 29.2179 125.501 30.9685 123.992 31.8137C121.336 33.2625 119.827 33.4436 118.619 32.4777C117.955 31.9344 117.895 31.7533 117.895 30.8478V29.8819L116.446 30.9685C113.669 33.0814 111.677 33.8058 110.59 33.1418C109.081 32.2362 111.134 28.5538 114.092 26.9239C114.937 26.441 115.722 26.1995 116.386 26.1391C117.231 26.1391 117.835 26.5013 118.197 27.2258L118.559 27.8294L119.163 27.3465C119.827 26.8032 120.068 26.8032 120.491 27.1654C120.672 27.4069 120.611 27.6483 120.068 28.6142C119.283 30.063 119.042 31.1496 119.404 31.6929C119.585 31.9948 119.766 32.0551 120.491 31.9948C121.819 31.8137 123.569 30.9082 126.346 28.6746C127.131 28.0709 127.735 27.6483 128.157 27.2861ZM115.963 29.8819C117.352 28.8557 117.352 28.7953 117.231 28.1916C117.11 27.8294 116.929 27.4672 116.869 27.4069C116.748 27.3465 116.627 27.2861 116.506 27.2861C115.178 27.2258 111.919 30.063 111.496 31.8137C111.315 32.5984 111.677 32.5381 113.247 31.6326C113.911 31.2704 115.118 30.4252 115.963 29.8819ZM143.696 17.7481C150.578 17.8084 150.94 17.8688 150.819 18.6536C150.698 19.0762 149.672 19.2573 149.25 18.9554C149.008 18.714 138.625 18.6536 137.176 18.8951C136.452 18.9554 136.331 19.0762 135.667 20.2231C135.244 20.9475 134.399 22.4567 133.735 23.6037C124.378 39.6011 122.809 42.9816 122.748 44.0682C122.748 44.4908 122.688 44.9738 122.567 45.0945C122.326 45.4567 121.42 45.336 121.118 44.9738C120.696 44.3097 123.05 39.2992 126.672 32.9607C128.061 30.6667 129.811 27.5276 130.656 26.0184C131.562 24.5092 132.769 22.336 133.494 21.189C134.158 20.042 134.641 19.0158 134.58 18.9554C134.46 18.8951 126.793 19.2573 124.801 19.4987C123.352 19.6798 123.111 19.6195 122.869 19.378C122.447 18.8951 122.869 18.6536 124.68 18.4121C126.552 18.231 132.286 17.8688 134.218 17.8688H135.426L136.754 15.8163C137.719 14.3071 138.202 13.7035 138.504 13.7035C139.349 13.5827 139.289 14.2468 138.263 15.9371C137.719 16.7822 137.237 17.567 137.237 17.567C137.237 17.6273 140.134 17.6877 143.696 17.7481Z" fill="white"/>
</svg>
