<svg width="14" height="13" viewBox="0 0 14 13" fill="none" xmlns="http://www.w3.org/2000/svg">
<path fill-rule="evenodd" clip-rule="evenodd" d="M7.32048 0C3.79669 0 0.9375 2.85919 0.9375 6.38298C0.9375 9.90678 3.79669 12.766 7.32048 12.766C10.8373 12.766 13.7035 9.90678 13.7035 6.38298C13.7035 2.85919 10.8373 0 7.32048 0ZM11.5366 2.94226C12.2981 3.86994 12.755 5.05376 12.7689 6.33451C12.5889 6.29992 10.7889 5.93298 8.97507 6.16145C8.93354 6.07145 8.89891 5.97451 8.85738 5.87761C8.7466 5.61455 8.62201 5.34455 8.49738 5.08839C10.505 4.27149 11.4189 3.09457 11.5366 2.94226ZM7.32048 0.941525C8.70507 0.941525 9.97197 1.46075 10.9343 2.31227C10.8373 2.45073 10.0135 3.55149 8.07507 4.27839C7.18201 2.63765 6.19205 1.2946 6.03973 1.08691C6.44816 0.989984 6.87742 0.941525 7.32048 0.941525ZM5.0013 1.45382C5.14668 1.64767 6.11589 2.99765 7.02279 4.60376C4.47514 5.28223 2.22517 5.26839 1.98287 5.26839C2.33594 3.57918 3.47823 2.17381 5.0013 1.45382ZM1.86518 6.38992C1.86518 6.33451 1.86518 6.27914 1.86518 6.22376C2.10056 6.23066 4.74513 6.26529 7.46585 5.44839C7.62511 5.75298 7.77048 6.06451 7.90895 6.37604C7.83969 6.39682 7.76354 6.41761 7.69432 6.43835C4.88359 7.34525 3.38823 9.82368 3.26362 10.0314C2.39824 9.0691 1.86518 7.78835 1.86518 6.38992ZM7.32048 11.8383C6.06048 11.8383 4.89744 11.4091 3.97668 10.6891C4.0736 10.4883 5.18126 8.35604 8.25507 7.28298C8.26891 7.27604 8.27585 7.27604 8.28969 7.26914C9.05812 9.256 9.36969 10.9244 9.45275 11.4021C8.79507 11.686 8.07507 11.8383 7.32048 11.8383ZM10.3597 10.9037C10.3043 10.5714 10.0135 8.9791 9.30044 7.01988C11.0104 6.74988 12.5058 7.19298 12.6927 7.25529C12.4573 8.77141 11.585 10.0798 10.3597 10.9037Z" fill="white"/>
</svg>
