<svg width="78" height="78" viewBox="0 0 78 78" fill="none" xmlns="http://www.w3.org/2000/svg">
<path d="M37.6738 52.7264L53.569 51.7949" stroke="white" stroke-linecap="square"/>
<circle cx="42.9993" cy="47.5711" r="1.84061" fill="white"/>
<ellipse cx="48.2782" cy="48.079" rx="2.0132" ry="2.26777" transform="rotate(-11.4007 48.2782 48.079)" fill="white"/>
<path fill-rule="evenodd" clip-rule="evenodd" d="M48.9005 14.6339C49.8095 14.0057 50.305 13.3281 50.305 12.6216C50.305 9.35294 39.6972 6.70312 26.6117 6.70312C13.5263 6.70312 2.91846 9.35294 2.91846 12.6216C2.91846 13.4639 3.62279 14.2651 4.89234 14.9904C5.21492 15.2678 5.55872 15.5576 5.92041 15.8625L5.92046 15.8625C11.1953 20.3093 20.2761 27.9646 22.8276 46.8207C23.8438 54.3309 26.2922 59.4433 29.3698 62.8379C27.6725 63.3128 22.8442 64.6288 20.3235 65.3141C20.2386 64.0127 19.5766 61.308 17.6075 60.9006C15.1461 60.3914 14.2978 64.1263 15.4861 66.5028C16.6744 68.8794 20.0513 69.0872 21.9053 68.6288C22.2098 68.5535 22.9491 68.3423 23.9614 68.0532L23.9618 68.0531C26.1305 67.4336 29.552 66.4563 32.6351 65.6906C38.0643 69.3908 44.4089 69.3089 48.4217 68.1946V68.2011C50.4506 67.6411 53.1261 66.4005 55.6063 64.4491C59.0492 66.7562 65.0972 70.7467 65.8649 71.0023C66.8836 71.3415 69.1753 71.8508 70.7031 69.4742C72.2308 67.0977 71.1274 61.3261 68.0719 63.1934C66.8589 63.9346 65.8649 66.2756 65.8649 66.8429L57.9115 62.3439C58.1862 62.0516 58.4541 61.7488 58.7137 61.4353L72.7498 45.6323C72.7652 45.6222 72.7779 45.61 72.7875 45.5956C72.9699 45.3224 72.0128 44.3634 70.6499 43.4538C69.287 42.5441 68.0343 42.0281 67.8519 42.3013C67.843 42.3147 67.8368 42.3297 67.8333 42.3463L62.5767 51.812C62.5974 51.4687 62.608 51.1199 62.608 50.7656C62.608 50.4752 62.6034 50.1891 62.5943 49.9072C62.6034 49.6816 62.608 49.4549 62.608 49.2271C62.608 40.0407 55.161 32.5938 45.9746 32.5938C41.5633 32.5938 37.553 34.311 34.5759 37.1136C37.9547 24.512 42.6322 20.309 46.8571 16.5127L46.8574 16.5124L46.8579 16.512L46.8582 16.5118L46.8585 16.5115L46.8588 16.5112C47.5542 15.8863 48.2374 15.2724 48.9005 14.6339ZM59.608 49.2271C59.608 50.8763 59.3151 52.4571 58.7786 53.9204C57.4439 57.06 55.2927 59.3111 53.1382 60.8289C51.0565 62.117 48.6024 62.8604 45.9746 62.8604C38.9596 62.8604 33.1821 57.5622 32.4253 50.7491C32.354 49.4384 32.4075 48.0469 32.5973 46.584C33.828 40.3195 39.3494 35.5938 45.9746 35.5938C53.5041 35.5938 59.608 41.6976 59.608 49.2271Z" fill="white"/>
<circle cx="42.8768" cy="47.5716" r="0.430985" fill="#BF8AFF"/>
<circle cx="48.166" cy="48.0781" r="0.433531" fill="#BF8AFF"/>
</svg>
