<svg width="14" height="14" viewBox="0 0 14 14" fill="none" xmlns="http://www.w3.org/2000/svg">
<g clip-path="url(#clip0_2001_3879)">
<path d="M7.31657 1.43264C9.02203 1.43264 9.22399 1.44012 9.8947 1.47004C10.518 1.49747 10.8546 1.60219 11.079 1.68945C11.3757 1.80415 11.5902 1.94377 11.8121 2.16568C12.0365 2.39008 12.1736 2.60202 12.2883 2.89873C12.3756 3.12313 12.4803 3.46223 12.5077 4.08307C12.5377 4.75627 12.5451 4.95824 12.5451 6.6612C12.5451 8.36665 12.5377 8.56861 12.5077 9.23932C12.4803 9.86266 12.3756 10.1993 12.2883 10.4237C12.1736 10.7204 12.034 10.9348 11.8121 11.1567C11.5877 11.3811 11.3757 11.5182 11.079 11.6329C10.8546 11.7202 10.5155 11.8249 9.8947 11.8524C9.22149 11.8823 9.01953 11.8898 7.31657 11.8898C5.61112 11.8898 5.40916 11.8823 4.73845 11.8524C4.11511 11.8249 3.77851 11.7202 3.55411 11.6329C3.2574 11.5182 3.04297 11.3786 2.82106 11.1567C2.59666 10.9323 2.45952 10.7204 2.34483 10.4237C2.25756 10.1993 2.15284 9.86017 2.12542 9.23932C2.0955 8.56612 2.08802 8.36415 2.08802 6.6612C2.08802 4.95574 2.0955 4.75378 2.12542 4.08307C2.15284 3.45973 2.25756 3.12313 2.34483 2.89873C2.45952 2.60202 2.59915 2.38759 2.82106 2.16568C3.04546 1.94128 3.2574 1.80415 3.55411 1.68945C3.77851 1.60219 4.1176 1.49747 4.73845 1.47004C5.40916 1.44012 5.61112 1.43264 7.31657 1.43264ZM7.31657 0.283203C5.58369 0.283203 5.36677 0.290683 4.68609 0.320603C4.0079 0.350524 3.54164 0.460231 3.13772 0.617312C2.71634 0.781873 2.35979 0.998795 2.00573 1.35534C1.64919 1.7094 1.43226 2.06595 1.2677 2.48483C1.11062 2.89125 1.00091 3.35501 0.970994 4.0332C0.941074 4.71638 0.933594 4.9333 0.933594 6.66618C0.933594 8.39906 0.941074 8.61598 0.970994 9.29667C1.00091 9.97486 1.11062 10.4411 1.2677 10.845C1.43226 11.2664 1.64919 11.623 2.00573 11.977C2.35979 12.3311 2.71634 12.5505 3.13522 12.7126C3.54164 12.8696 4.0054 12.9793 4.68359 13.0093C5.36428 13.0392 5.5812 13.0467 7.31408 13.0467C9.04696 13.0467 9.26388 13.0392 9.94456 13.0093C10.6228 12.9793 11.089 12.8696 11.4929 12.7126C11.9118 12.5505 12.2684 12.3311 12.6224 11.977C12.9765 11.623 13.1959 11.2664 13.358 10.8475C13.515 10.4411 13.6248 9.97735 13.6547 9.29916C13.6846 8.61848 13.6921 8.40155 13.6921 6.66868C13.6921 4.9358 13.6846 4.71887 13.6547 4.03819C13.6248 3.36 13.515 2.89374 13.358 2.48982C13.2009 2.06595 12.984 1.7094 12.6274 1.35534C12.2734 1.00129 11.9168 0.781873 11.4979 0.619806C11.0915 0.462724 10.6277 0.353017 9.94955 0.323097C9.26637 0.290683 9.04945 0.283203 7.31657 0.283203Z" fill="white"/>
<path d="M7.31587 3.3877C5.50569 3.3877 4.03711 4.85628 4.03711 6.66645C4.03711 8.47662 5.50569 9.94521 7.31587 9.94521C9.12604 9.94521 10.5946 8.47662 10.5946 6.66645C10.5946 4.85628 9.12604 3.3877 7.31587 3.3877ZM7.31587 8.79328C6.1415 8.79328 5.18904 7.84082 5.18904 6.66645C5.18904 5.49208 6.1415 4.53962 7.31587 4.53962C8.49023 4.53962 9.44269 5.49208 9.44269 6.66645C9.44269 7.84082 8.49023 8.79328 7.31587 8.79328Z" fill="white"/>
<path d="M11.4899 3.25765C11.4899 3.68152 11.1458 4.02311 10.7244 4.02311C10.3006 4.02311 9.95898 3.67902 9.95898 3.25765C9.95898 2.83378 10.3031 2.49219 10.7244 2.49219C11.1458 2.49219 11.4899 2.83627 11.4899 3.25765Z" fill="white"/>
</g>
<defs>
<clipPath id="clip0_2001_3879">
<rect width="12.766" height="12.766" fill="white" transform="translate(0.933594 0.283203)"/>
</clipPath>
</defs>
</svg>
