<svg width="32" height="32" viewBox="0 0 32 32" fill="none" xmlns="http://www.w3.org/2000/svg">
<path d="M16 0L16.259 0.258881L22.0239 6.02181L21.506 6.52832L16.3603 1.38445V15.6454H30.615L25.4694 10.4903L25.9873 9.98382L31.7523 15.7467L32 16.0056L31.7523 16.2533L25.9873 22.0162L25.4694 21.5097L30.615 16.3658H16.3603V30.6155L21.506 25.4717L22.0239 25.9782L16.259 31.7411L16 32L15.741 31.7411L9.9761 25.9782L10.494 25.4717L15.6397 30.6155V16.3658H1.38496L6.5306 21.5097L6.0127 22.0162L0.247749 16.2533L0 16.0056L0.247749 15.7467L6.0127 9.98382L6.5306 10.4903L1.38496 15.6454H15.6397V1.38445L10.494 6.52832L9.9761 6.02181L15.741 0.258881L16 0Z" fill="white"/>
</svg>
