<svg width="243" height="1163" viewBox="0 0 243 1163" fill="none" xmlns="http://www.w3.org/2000/svg">
<path d="M178.5 516.5L137.5 559C131.399 567.166 123.482 588.8 142 608C150.268 616.572 158.172 624.6 164.582 631.379C175.937 643.389 189.2 656.963 186.615 673.288C185.653 679.363 182.775 685.716 176.712 691.5C160.778 706.7 148.54 718.833 144.413 723C136.518 732.167 123.958 754.2 136.877 769C144.573 777.816 155.198 789.554 164.428 799.648C174.718 810.901 186.418 822.793 186.885 838.034C187.144 846.482 184.449 855.703 175.635 863.5C157.548 879.5 146.925 890.167 143.875 893.5C136.339 901.167 123.742 919.7 133.647 932.5C139.809 940.463 151.986 954.387 163.073 966.783C174.576 979.643 187.99 993.489 186.92 1010.71C186.476 1017.87 183.831 1025.39 177.249 1032C171.744 1037.53 166.338 1042.78 161.39 1047.48C147.817 1060.38 130.669 1073.81 131.373 1092.53C131.553 1097.31 132.972 1102.12 136.338 1106.5C147.104 1120.5 172.404 1149.33 183.709 1162M189.5 516.5L148.5 559C142.399 567.166 134.482 588.8 153 608C161.268 616.572 169.172 624.6 175.582 631.379C186.937 643.389 200.2 656.963 197.615 673.288C196.653 679.363 193.775 685.716 187.712 691.5C171.778 706.7 159.54 718.833 155.413 723C147.518 732.167 134.958 754.2 147.877 769C155.573 777.816 166.198 789.554 175.428 799.648C185.718 810.901 197.418 822.793 197.885 838.034C198.144 846.482 195.449 855.703 186.635 863.5C168.548 879.5 157.925 890.167 154.875 893.5C147.339 901.167 134.742 919.7 144.647 932.5C150.809 940.463 162.986 954.387 174.073 966.783C185.576 979.643 198.99 993.489 197.92 1010.71C197.476 1017.87 194.831 1025.39 188.249 1032C182.744 1037.53 177.338 1042.78 172.39 1047.48C158.817 1060.38 141.669 1073.81 142.373 1092.53C142.553 1097.31 143.972 1102.12 147.338 1106.5C158.104 1120.5 183.404 1149.33 194.709 1162M200.5 516.5L159.5 559C153.399 567.166 145.482 588.8 164 608C172.268 616.572 180.172 624.6 186.582 631.379C197.937 643.389 211.2 656.963 208.615 673.288C207.653 679.363 204.775 685.716 198.712 691.5C182.778 706.7 170.54 718.833 166.413 723C158.518 732.167 145.958 754.2 158.877 769C166.573 777.816 177.198 789.554 186.428 799.648C196.718 810.901 208.418 822.793 208.885 838.034C209.144 846.482 206.449 855.703 197.635 863.5C179.548 879.5 168.925 890.167 165.875 893.5C158.339 901.167 145.742 919.7 155.647 932.5C161.809 940.463 173.986 954.387 185.073 966.783C196.576 979.643 209.99 993.489 208.92 1010.71C208.476 1017.87 205.831 1025.39 199.249 1032C193.744 1037.53 188.338 1042.78 183.39 1047.48C169.817 1060.38 152.669 1073.81 153.373 1092.53C153.553 1097.31 154.972 1102.12 158.338 1106.5C169.104 1120.5 194.404 1149.33 205.709 1162M211.5 516.5L170.5 559C164.399 567.166 156.482 588.8 175 608C183.268 616.572 191.172 624.6 197.582 631.379C208.937 643.389 222.2 656.963 219.615 673.288C218.653 679.363 215.775 685.716 209.712 691.5C193.778 706.7 181.54 718.833 177.413 723C169.518 732.167 156.958 754.2 169.877 769C177.573 777.816 188.198 789.554 197.428 799.648C207.718 810.901 219.418 822.793 219.885 838.034C220.144 846.482 217.449 855.703 208.635 863.5C190.548 879.5 179.925 890.167 176.875 893.5C169.339 901.167 156.742 919.7 166.647 932.5C172.809 940.463 184.986 954.387 196.073 966.783C207.576 979.643 220.99 993.489 219.92 1010.71C219.476 1017.87 216.831 1025.39 210.249 1032C204.744 1037.53 199.338 1042.78 194.39 1047.48C180.817 1060.38 163.669 1073.81 164.373 1092.53C164.553 1097.31 165.972 1102.12 169.338 1106.5C180.104 1120.5 205.404 1149.33 216.709 1162M222.5 516.5L181.5 559C175.399 567.166 167.482 588.8 186 608C194.268 616.572 202.172 624.6 208.582 631.379C219.937 643.389 233.2 656.963 230.615 673.288C229.653 679.363 226.775 685.716 220.712 691.5C204.778 706.7 192.54 718.833 188.413 723C180.518 732.167 167.958 754.2 180.877 769C188.573 777.816 199.198 789.554 208.428 799.648C218.718 810.901 230.418 822.793 230.885 838.034C231.144 846.482 228.449 855.703 219.635 863.5C201.548 879.5 190.925 890.167 187.875 893.5C180.339 901.167 167.742 919.7 177.647 932.5C183.809 940.463 195.986 954.387 207.073 966.783C218.576 979.643 231.99 993.489 230.92 1010.71C230.476 1017.87 227.831 1025.39 221.249 1032C215.744 1037.53 210.338 1042.78 205.39 1047.48C191.817 1060.38 174.669 1073.81 175.373 1092.53C175.553 1097.31 176.972 1102.12 180.338 1106.5C191.104 1120.5 216.404 1149.33 227.709 1162M233.5 516.5C216.232 534.659 209.768 540.84 192.5 559C186.399 567.166 178.482 588.8 197 608C205.268 616.572 213.172 624.6 219.582 631.379C230.937 643.389 244.2 656.963 241.615 673.288C240.653 679.363 237.775 685.716 231.712 691.5C215.778 706.7 203.54 718.833 199.413 723C191.518 732.167 178.958 754.2 191.877 769C199.573 777.816 210.198 789.554 219.428 799.648C229.718 810.901 241.418 822.793 241.885 838.034C242.144 846.482 239.449 855.703 230.635 863.5C212.548 879.5 201.925 890.167 198.875 893.5C191.339 901.167 178.742 919.7 188.647 932.5C194.809 940.463 206.986 954.387 218.073 966.783C229.576 979.643 242.99 993.489 241.92 1010.71C241.476 1017.87 238.831 1025.39 232.249 1032C226.744 1037.53 221.338 1042.78 216.39 1047.48C202.817 1060.38 185.669 1073.81 186.373 1092.53C186.553 1097.31 187.972 1102.12 191.338 1106.5C202.104 1120.5 227.404 1149.33 238.709 1162M167.577 516.5L127.37 559C121.376 567.166 113.592 588.8 131.785 608C139.88 616.544 147.628 624.546 153.912 631.311C165.111 643.367 178.123 656.948 175.633 673.213C174.7 679.31 171.874 685.692 165.892 691.5C150.238 706.7 138.215 718.833 134.16 723C126.404 732.167 114.064 754.2 126.756 769C134.301 777.797 144.71 789.503 153.764 799.581C163.913 810.878 175.408 822.807 175.886 837.985C176.152 846.446 173.51 855.688 164.835 863.5C147.065 879.5 136.629 890.167 133.632 893.5C126.228 901.167 113.852 919.7 123.583 932.5C129.627 940.45 141.56 954.34 152.438 966.72C163.774 979.622 176.935 993.486 175.927 1010.63C175.504 1017.82 172.911 1025.37 166.42 1032C161.076 1037.46 155.826 1042.65 151.011 1047.31C137.57 1060.32 120.632 1073.87 121.351 1092.57C121.534 1097.34 122.93 1102.14 126.227 1106.5C136.804 1120.5 161.66 1149.33 172.767 1162M157.5 516.5L116.5 559C110.399 567.166 102.482 588.8 121 608C129.268 616.572 137.172 624.6 143.582 631.379C154.937 643.389 168.2 656.963 165.615 673.288C164.653 679.363 161.775 685.716 155.712 691.5C139.778 706.7 127.54 718.833 123.413 723C115.518 732.167 102.958 754.2 115.877 769C123.573 777.816 134.198 789.554 143.428 799.648C153.718 810.901 165.418 822.793 165.885 838.034C166.144 846.482 163.449 855.703 154.635 863.5C136.548 879.5 125.925 890.167 122.875 893.5C115.339 901.167 102.742 919.7 112.647 932.5C118.809 940.463 130.986 954.387 142.073 966.783C153.576 979.643 166.99 993.489 165.92 1010.71C165.476 1017.87 162.831 1025.39 156.249 1032C150.744 1037.53 145.338 1042.78 140.39 1047.48C126.817 1060.38 109.669 1073.81 110.373 1092.53C110.553 1097.31 111.972 1102.12 115.338 1106.5C126.104 1120.5 151.404 1149.33 162.709 1162M146.5 516.5L105.5 559C99.3992 567.166 91.4822 588.8 110 608C118.268 616.572 126.172 624.6 132.582 631.379C143.937 643.389 157.2 656.963 154.615 673.288C153.653 679.363 150.775 685.716 144.712 691.5C128.778 706.7 116.54 718.833 112.413 723C104.518 732.167 91.9576 754.2 104.877 769C112.573 777.816 123.198 789.554 132.428 799.648C142.718 810.901 154.418 822.793 154.885 838.034C155.144 846.482 152.449 855.703 143.635 863.5C125.548 879.5 114.925 890.167 111.875 893.5C104.339 901.167 91.7423 919.7 101.647 932.5C107.809 940.463 119.986 954.387 131.073 966.783C142.576 979.643 155.99 993.489 154.92 1010.71C154.476 1017.87 151.831 1025.39 145.249 1032C139.744 1037.53 134.338 1042.78 129.39 1047.48C115.817 1060.38 98.6685 1073.81 99.3731 1092.53C99.5531 1097.31 100.972 1102.12 104.338 1106.5C115.104 1120.5 140.404 1149.33 151.709 1162M135.577 516.5L95.3699 559C89.3761 567.166 81.592 588.8 99.7849 608C107.88 616.544 115.628 624.546 121.912 631.311C133.111 643.367 146.123 656.948 143.633 673.213C142.7 679.31 139.874 685.692 133.892 691.5C118.238 706.7 106.215 718.833 102.16 723C94.4038 732.167 82.0636 754.2 94.7564 769C102.301 777.797 112.71 789.503 121.764 799.581C131.913 810.878 143.408 822.807 143.886 837.985C144.152 846.446 141.51 855.688 132.835 863.5C115.065 879.5 104.628 890.167 101.632 893.5C94.2275 901.167 81.8521 919.7 91.5832 932.5C97.627 940.45 109.56 954.34 120.438 966.72C131.774 979.622 144.935 993.486 143.927 1010.63C143.504 1017.82 140.911 1025.37 134.42 1032C129.076 1037.46 123.826 1042.65 119.011 1047.31C105.57 1060.32 88.6316 1073.87 89.3505 1092.57C89.534 1097.34 90.9298 1102.14 94.2265 1106.5C104.804 1120.5 129.66 1149.33 140.767 1162M125.5 516.5L84.5 559C78.3992 567.166 70.4822 588.8 89 608C97.2676 616.572 105.172 624.6 111.582 631.379C122.937 643.389 136.2 656.963 133.615 673.288C132.653 679.363 129.775 685.716 123.712 691.5C107.778 706.7 95.5403 718.833 91.4133 723C83.5181 732.167 70.9576 754.2 83.877 769C91.573 777.816 102.198 789.554 111.428 799.648C121.718 810.901 133.418 822.793 133.885 838.034C134.144 846.482 131.449 855.703 122.635 863.5C104.548 879.5 93.9254 890.167 90.875 893.5C83.3387 901.167 70.7423 919.7 80.6472 932.5C86.8093 940.463 98.9856 954.387 110.073 966.783C121.576 979.643 134.99 993.489 133.92 1010.71C133.476 1017.87 130.831 1025.39 124.249 1032C118.744 1037.53 113.338 1042.78 108.39 1047.48C94.8172 1060.38 77.6685 1073.81 78.3731 1092.53C78.5531 1097.31 79.9724 1102.12 83.3377 1106.5C94.1039 1120.5 119.404 1149.33 130.709 1162M114.5 516.5L73.5 559C67.3992 567.166 59.4822 588.8 78 608C86.2676 616.572 94.1723 624.6 100.582 631.379C111.937 643.389 125.2 656.963 122.615 673.288C121.653 679.363 118.775 685.716 112.712 691.5C96.7778 706.7 84.5403 718.833 80.4133 723C72.5181 732.167 59.9576 754.2 72.877 769C80.573 777.816 91.198 789.554 100.428 799.648C110.718 810.901 122.418 822.793 122.885 838.034C123.144 846.482 120.449 855.703 111.635 863.5C93.548 879.5 82.9254 890.167 79.875 893.5C72.3387 901.167 59.7423 919.7 69.6472 932.5C75.8093 940.463 87.9856 954.387 99.073 966.783C110.576 979.643 123.99 993.489 122.92 1010.71C122.476 1017.87 119.831 1025.39 113.249 1032C107.744 1037.53 102.338 1042.78 97.3899 1047.48C83.8172 1060.38 66.6685 1073.81 67.3731 1092.53C67.5531 1097.31 68.9724 1102.12 72.3377 1106.5C83.1039 1120.5 108.404 1149.33 119.709 1162M103.5 516.5L62.5 559C56.3992 567.166 48.4822 588.8 67 608C75.2676 616.572 83.1723 624.6 89.5821 631.379C100.937 643.389 114.2 656.963 111.615 673.288C110.653 679.363 107.775 685.716 101.712 691.5C85.7778 706.7 73.5403 718.833 69.4133 723C61.5181 732.167 48.9576 754.2 61.877 769C69.573 777.816 80.198 789.554 89.428 799.648C99.7184 810.901 111.418 822.793 111.885 838.034C112.144 846.482 109.449 855.703 100.635 863.5C82.548 879.5 71.9254 890.167 68.875 893.5C61.3387 901.167 48.7423 919.7 58.6472 932.5C64.8093 940.463 76.9856 954.387 88.073 966.783C99.5759 979.643 112.99 993.489 111.92 1010.71C111.476 1017.87 108.831 1025.39 102.249 1032C96.7443 1037.53 91.3381 1042.78 86.3899 1047.48C72.8172 1060.38 55.6685 1073.81 56.3731 1092.53C56.5531 1097.31 57.9724 1102.12 61.3377 1106.5C72.1039 1120.5 97.4043 1149.33 108.709 1162M92.5766 516.5L52.3699 559C46.3761 567.166 38.592 588.8 56.7849 608C64.8803 616.544 72.6276 624.546 78.912 631.311C90.1114 643.367 103.123 656.948 100.633 673.213C99.6996 679.31 96.8736 685.692 90.8922 691.5C75.2379 706.7 63.2151 718.833 59.1604 723C51.4038 732.167 39.0636 754.2 51.7564 769C59.3007 777.797 69.7099 789.503 78.764 799.581C88.9127 810.878 100.408 822.807 100.886 837.985C101.152 846.446 98.5103 855.688 89.8345 863.5C72.0647 879.5 61.6285 890.167 58.6316 893.5C51.2275 901.167 38.8521 919.7 48.5832 932.5C54.627 940.45 66.5595 954.34 77.4376 966.72C88.774 979.622 101.935 993.486 100.927 1010.63C100.504 1017.82 97.9108 1025.37 91.4201 1032C86.0756 1037.46 80.8257 1042.65 76.0111 1047.31C62.5699 1060.32 45.6316 1073.87 46.3506 1092.57C46.534 1097.34 47.9298 1102.14 51.2265 1106.5C61.8038 1120.5 86.6604 1149.33 97.7665 1162M82.5 516.5L41.5 559C35.3992 567.166 27.4822 588.8 46 608C54.2676 616.572 62.1723 624.6 68.5821 631.379C79.9374 643.389 93.1997 656.963 90.6147 673.288C89.6528 679.363 86.775 685.716 80.7117 691.5C64.7778 706.7 52.5403 718.833 48.4133 723C40.5181 732.167 27.9576 754.2 40.877 769C48.573 777.816 59.198 789.554 68.428 799.648C78.7184 810.901 90.4177 822.793 90.8851 838.034C91.1441 846.482 88.4489 855.703 79.6351 863.5C61.548 879.5 50.9254 890.167 47.875 893.5C40.3387 901.167 27.7423 919.7 37.6472 932.5C43.8093 940.463 55.9856 954.387 67.073 966.783C78.5759 979.643 91.9898 993.489 90.9204 1010.71C90.4757 1017.87 87.8312 1025.39 81.2491 1032C75.7443 1037.53 70.3381 1042.78 65.3899 1047.48C51.8172 1060.38 34.6685 1073.81 35.3731 1092.53C35.5531 1097.31 36.9724 1102.12 40.3377 1106.5C51.1039 1120.5 76.4043 1149.33 87.7087 1162M71.5 516.5L30.5 559C24.3992 567.166 16.4822 588.8 35 608C43.2676 616.572 51.1723 624.6 57.5821 631.379C68.9374 643.389 82.1997 656.963 79.6147 673.288C78.6528 679.363 75.775 685.716 69.7117 691.5C53.7778 706.7 41.5403 718.833 37.4133 723C29.5181 732.167 16.9576 754.2 29.877 769C37.573 777.816 48.198 789.554 57.428 799.648C67.7184 810.901 79.4177 822.793 79.8851 838.034C80.1441 846.482 77.4489 855.703 68.6351 863.5C50.548 879.5 39.9254 890.167 36.875 893.5C29.3387 901.167 16.7423 919.7 26.6472 932.5C32.8093 940.463 44.9856 954.387 56.073 966.783C67.5759 979.643 80.9898 993.489 79.9204 1010.71C79.4757 1017.87 76.8312 1025.39 70.2491 1032C64.7443 1037.53 59.3381 1042.78 54.3899 1047.48C40.8172 1060.38 23.6686 1073.81 24.3731 1092.53C24.5532 1097.31 25.9724 1102.12 29.3377 1106.5C40.1039 1120.5 65.4043 1149.33 76.7087 1162M60.5766 516.5L20.3699 559C14.3761 567.166 6.59203 588.8 24.7849 608C32.8803 616.544 40.6276 624.546 46.912 631.311C58.1114 643.367 71.1231 656.948 68.633 673.213C67.6996 679.31 64.8736 685.692 58.8922 691.5C43.2379 706.7 31.2151 718.833 27.1605 723C19.4038 732.167 7.06365 754.2 19.7564 769C27.3007 777.797 37.7099 789.503 46.764 799.581C56.9127 810.878 68.408 822.807 68.8856 837.985C69.1518 846.446 66.5103 855.688 57.8345 863.5C40.0647 879.5 29.6285 890.167 26.6316 893.5C19.2275 901.167 6.85211 919.7 16.5832 932.5C22.627 940.45 34.5595 954.34 45.4376 966.72C56.774 979.622 69.9346 993.486 68.9265 1010.63C68.5041 1017.82 65.9108 1025.37 59.4201 1032C54.0756 1037.46 48.8257 1042.65 44.0111 1047.31C30.5699 1060.32 13.6316 1073.87 14.3506 1092.57C14.534 1097.34 15.9298 1102.14 19.2265 1106.5C29.8038 1120.5 54.6604 1149.33 65.7665 1162M50.5 516.5L9.5 559C3.39919 567.166 -4.51777 588.8 14 608C22.2676 616.572 30.1723 624.6 36.5821 631.379C47.9374 643.389 61.1997 656.963 58.6147 673.288C57.6528 679.363 54.775 685.716 48.7117 691.5C32.7778 706.7 20.5403 718.833 16.4133 723C8.51815 732.167 -4.04235 754.2 8.87702 769C16.573 777.816 27.198 789.554 36.428 799.648C46.7184 810.901 58.4177 822.793 58.8851 838.034C59.1441 846.482 56.4489 855.703 47.6351 863.5C29.548 879.5 18.9254 890.167 15.875 893.5C8.33871 901.167 -4.25768 919.7 5.64717 932.5C11.8093 940.463 23.9856 954.387 35.073 966.783C46.5759 979.643 59.9898 993.489 58.9204 1010.71C58.4757 1017.87 55.8312 1025.39 49.2491 1032C43.7443 1037.53 38.3381 1042.78 33.3899 1047.48C19.8172 1060.38 2.66855 1073.81 3.37308 1092.53C3.55315 1097.31 4.97237 1102.12 8.33773 1106.5C19.1039 1120.5 44.4043 1149.33 55.7087 1162M181.632 1L136.414 47.5C130.314 55.6667 122.742 76.8 141.259 96C149.527 104.572 157.172 112.6 163.582 119.379C174.937 131.389 188.2 144.963 185.615 161.288C184.653 167.363 181.775 173.716 175.712 179.5C159.778 194.7 147.54 206.833 143.413 211C135.518 220.167 122.958 242.2 135.877 257C143.573 265.816 154.198 277.554 163.428 287.648C173.718 298.901 185.418 310.792 185.885 326.034C186.144 334.482 183.449 343.703 174.635 351.5C156.548 367.5 145.925 378.167 142.875 381.5C135.339 389.167 122.742 407.7 132.647 420.5C138.809 428.463 150.986 442.387 162.073 454.783L162.298 455.034C173.738 467.824 186.062 481.601 185 498.71C184.555 505.871 181.911 513.391 175.329 520C169.824 525.528 165.338 530.777 160.39 535.479C146.817 548.378 129.669 561.814 130.373 580.526M192.632 1L147.414 47.5C141.314 55.6667 133.742 76.8 152.259 96C160.527 104.572 168.172 112.6 174.582 119.379C185.937 131.389 199.2 144.963 196.615 161.288C195.653 167.363 192.775 173.716 186.712 179.5C170.778 194.7 158.54 206.833 154.413 211C146.518 220.167 133.958 242.2 146.877 257C154.573 265.816 165.198 277.554 174.428 287.648C184.718 298.901 196.418 310.792 196.885 326.034C197.144 334.482 194.449 343.703 185.635 351.5C167.548 367.5 156.925 378.167 153.875 381.5C146.339 389.167 133.742 407.7 143.647 420.5C149.809 428.463 161.986 442.387 173.073 454.783L173.298 455.034C184.738 467.824 197.062 481.601 196 498.71C195.555 505.871 192.911 513.391 186.329 520C180.824 525.528 176.338 530.777 171.39 535.479C157.817 548.378 140.669 561.814 141.373 580.526M203.632 1L158.414 47.5C152.314 55.6667 144.742 76.8 163.259 96C171.527 104.572 179.172 112.6 185.582 119.379C196.937 131.389 210.2 144.963 207.615 161.288C206.653 167.363 203.775 173.716 197.712 179.5C181.778 194.7 169.54 206.833 165.413 211C157.518 220.167 144.958 242.2 157.877 257C165.573 265.816 176.198 277.554 185.428 287.648C195.718 298.901 207.418 310.792 207.885 326.034C208.144 334.482 205.449 343.703 196.635 351.5C178.548 367.5 167.925 378.167 164.875 381.5C157.339 389.167 144.742 407.7 154.647 420.5C160.809 428.463 172.986 442.387 184.073 454.783L184.298 455.034C195.738 467.824 208.062 481.601 207 498.71C206.555 505.871 203.911 513.391 197.329 520C191.824 525.528 187.338 530.777 182.39 535.479C168.817 548.378 151.669 561.814 152.373 580.526M214.632 1L169.414 47.5C163.314 55.6667 155.742 76.8 174.259 96C182.527 104.572 190.172 112.6 196.582 119.379C207.937 131.389 221.2 144.963 218.615 161.288C217.653 167.363 214.775 173.716 208.712 179.5C192.778 194.7 180.54 206.833 176.413 211C168.518 220.167 155.958 242.2 168.877 257C176.573 265.816 187.198 277.554 196.428 287.648C206.718 298.901 218.418 310.792 218.885 326.034C219.144 334.482 216.449 343.703 207.635 351.5C189.548 367.5 178.925 378.167 175.875 381.5C168.339 389.167 155.742 407.7 165.647 420.5C171.809 428.463 183.986 442.387 195.073 454.783L195.298 455.034C206.738 467.824 219.062 481.601 218 498.71C217.555 505.871 214.911 513.391 208.329 520C202.824 525.528 198.338 530.777 193.39 535.479C179.817 548.378 162.669 561.814 163.373 580.526M225.632 1L180.414 47.5C174.314 55.6667 166.742 76.8 185.259 96C193.527 104.572 201.172 112.6 207.582 119.379C218.937 131.389 232.2 144.963 229.615 161.288C228.653 167.363 225.775 173.716 219.712 179.5C203.778 194.7 191.54 206.833 187.413 211C179.518 220.167 166.958 242.2 179.877 257C187.573 265.816 198.198 277.554 207.428 287.648C217.718 298.901 229.418 310.792 229.885 326.034C230.144 334.482 227.449 343.703 218.635 351.5C200.548 367.5 189.925 378.167 186.875 381.5C179.339 389.167 166.742 407.7 176.647 420.5C182.809 428.463 194.986 442.387 206.073 454.783L206.298 455.034C217.738 467.824 230.062 481.601 229 498.71C228.555 505.871 225.911 513.391 219.329 520C213.824 525.528 209.338 530.777 204.39 535.479C190.817 548.378 173.669 561.814 174.373 580.526M236.632 1L191.414 47.5C185.314 55.6667 177.742 76.8 196.259 96C204.527 104.572 212.172 112.6 218.582 119.379C229.937 131.389 243.2 144.963 240.615 161.288C239.653 167.363 236.775 173.716 230.712 179.5C214.778 194.7 202.54 206.833 198.413 211C190.518 220.167 177.958 242.2 190.877 257C198.573 265.816 209.198 277.554 218.428 287.648C228.718 298.901 240.418 310.792 240.885 326.034C241.144 334.482 238.449 343.703 229.635 351.5C211.548 367.5 200.925 378.167 197.875 381.5C190.339 389.167 177.742 407.7 187.647 420.5C193.809 428.463 205.986 442.387 217.073 454.783L217.298 455.034C228.738 467.824 241.062 481.601 240 498.71C239.555 505.871 236.911 513.391 230.329 520C224.824 525.528 220.338 530.777 215.39 535.479C201.817 548.378 184.669 561.814 185.373 580.526M170.709 1L126.284 47.5C120.291 55.6667 112.851 76.8 131.044 96C139.14 104.543 146.628 112.546 152.912 119.311C164.111 131.367 177.123 144.947 174.633 161.213C173.7 167.31 170.874 173.692 164.892 179.5C149.238 194.7 137.215 206.833 133.16 211C125.404 220.167 113.064 242.2 125.756 257C133.301 265.797 143.71 277.502 152.764 287.581C162.913 298.878 174.408 310.806 174.886 325.985C175.152 334.446 172.51 343.688 163.835 351.5C146.065 367.5 135.628 378.167 132.632 381.5C125.228 389.167 112.852 407.7 122.583 420.5C128.627 428.45 140.56 442.34 151.438 454.72L151.559 454.859C162.862 467.721 175.011 481.547 174.006 498.63C173.584 505.815 170.99 513.366 164.5 520C159.155 525.463 154.826 530.653 150.011 535.313C136.57 548.323 119.632 561.875 120.351 580.567M160.632 1L115.414 47.5C109.314 55.6667 101.741 76.8 120.259 96C128.527 104.572 136.172 112.6 142.582 119.379C153.937 131.389 167.2 144.963 164.615 161.288C163.653 167.363 160.775 173.716 154.712 179.5C138.778 194.7 126.54 206.833 122.413 211C114.518 220.167 101.958 242.2 114.877 257C122.573 265.816 133.198 277.554 142.428 287.648C152.718 298.901 164.418 310.792 164.885 326.034C165.144 334.482 162.449 343.703 153.635 351.5C135.548 367.5 124.925 378.167 121.875 381.5C114.339 389.167 101.742 407.7 111.647 420.5C117.809 428.463 129.986 442.387 141.073 454.783L141.298 455.034C152.738 467.824 165.062 481.601 164 498.71C163.555 505.871 160.911 513.391 154.329 520C148.824 525.528 144.338 530.777 139.39 535.479C125.817 548.378 108.669 561.814 109.373 580.526M149.632 1L104.414 47.5C98.3137 55.6667 90.7415 76.8 109.259 96C117.527 104.572 125.172 112.6 131.582 119.379C142.937 131.389 156.2 144.963 153.615 161.288C152.653 167.363 149.775 173.716 143.712 179.5C127.778 194.7 115.54 206.833 111.413 211C103.518 220.167 90.9576 242.2 103.877 257C111.573 265.816 122.198 277.554 131.428 287.648C141.718 298.901 153.418 310.792 153.885 326.034C154.144 334.482 151.449 343.703 142.635 351.5C124.548 367.5 113.925 378.167 110.875 381.5C103.339 389.167 90.7423 407.7 100.647 420.5C106.809 428.463 118.986 442.387 130.073 454.783L130.298 455.034C141.738 467.824 154.062 481.601 153 498.71C152.555 505.871 149.911 513.391 143.329 520C137.824 525.528 133.338 530.777 128.39 535.479C114.817 548.378 97.6685 561.814 98.3731 580.526M138.709 1L94.2844 47.5C88.2906 55.6667 80.8513 76.8 99.0442 96C107.14 104.543 114.628 112.546 120.912 119.311C132.111 131.367 145.123 144.947 142.633 161.213C141.7 167.31 138.874 173.692 132.892 179.5C117.238 194.7 105.215 206.833 101.16 211C93.4038 220.167 81.0636 242.2 93.7564 257C101.301 265.797 111.71 277.502 120.764 287.581C130.913 298.878 142.408 310.806 142.886 325.985C143.152 334.446 140.51 343.688 131.835 351.5C114.065 367.5 103.628 378.167 100.632 381.5C93.2275 389.167 80.8521 407.7 90.5832 420.5C96.627 428.45 108.56 442.34 119.438 454.72L119.559 454.859C130.862 467.721 143.011 481.547 142.006 498.63C141.584 505.815 138.99 513.366 132.5 520C127.155 525.463 122.826 530.653 118.011 535.313C104.57 548.323 87.6316 561.875 88.3506 580.567M128.632 1L83.4145 47.5C77.3137 55.6667 69.7415 76.8 88.2593 96C96.5269 104.572 104.172 112.6 110.582 119.379C121.937 131.389 135.2 144.963 132.615 161.288C131.653 167.363 128.775 173.716 122.712 179.5C106.778 194.7 94.5403 206.833 90.4133 211C82.5181 220.167 69.9576 242.2 82.877 257C90.573 265.816 101.198 277.554 110.428 287.648C120.718 298.901 132.418 310.792 132.885 326.034C133.144 334.482 130.449 343.703 121.635 351.5C103.548 367.5 92.9254 378.167 89.875 381.5C82.3387 389.167 69.7423 407.7 79.6472 420.5C85.8093 428.463 97.9856 442.387 109.073 454.783L109.298 455.034C120.738 467.824 133.062 481.601 132 498.71C131.555 505.871 128.911 513.391 122.329 520C116.824 525.528 112.338 530.777 107.39 535.479C93.8172 548.378 76.6685 561.814 77.3731 580.526M117.632 1L72.4145 47.5C66.3137 55.6667 58.7415 76.8 77.2593 96C85.5269 104.572 93.1723 112.6 99.5821 119.379C110.937 131.389 124.2 144.963 121.615 161.288C120.653 167.363 117.775 173.716 111.712 179.5C95.7779 194.7 83.5403 206.833 79.4133 211C71.5181 220.167 58.9576 242.2 71.877 257C79.573 265.816 90.198 277.554 99.428 287.648C109.718 298.901 121.418 310.792 121.885 326.034C122.144 334.482 119.449 343.703 110.635 351.5C92.548 367.5 81.9254 378.167 78.875 381.5C71.3387 389.167 58.7423 407.7 68.6472 420.5C74.8093 428.463 86.9856 442.387 98.073 454.783L98.2978 455.034C109.738 467.824 122.062 481.601 121 498.71C120.555 505.871 117.911 513.391 111.329 520C105.824 525.528 101.338 530.777 96.3899 535.479C82.8172 548.378 65.6685 561.814 66.3731 580.526M106.632 1L61.4145 47.5C55.3137 55.6667 47.7415 76.8 66.2593 96C74.5269 104.572 82.1723 112.6 88.5821 119.379C99.9374 131.389 113.2 144.963 110.615 161.288C109.653 167.363 106.775 173.716 100.712 179.5C84.7779 194.7 72.5403 206.833 68.4133 211C60.5181 220.167 47.9576 242.2 60.877 257C68.573 265.816 79.198 277.554 88.428 287.648C98.7184 298.901 110.418 310.792 110.885 326.034C111.144 334.482 108.449 343.703 99.6351 351.5C81.548 367.5 70.9254 378.167 67.875 381.5C60.3387 389.167 47.7423 407.7 57.6472 420.5C63.8093 428.463 75.9856 442.387 87.073 454.783L87.2978 455.034C98.7381 467.824 111.062 481.601 110 498.71C109.555 505.871 106.911 513.391 100.329 520C94.8239 525.528 90.3381 530.777 85.3899 535.479C71.8172 548.378 54.6685 561.814 55.3731 580.526M95.7089 1L51.2844 47.5C45.2906 55.6667 37.8513 76.8 56.0442 96C64.1395 104.543 71.6277 112.546 77.912 119.311C89.1114 131.367 102.123 144.947 99.633 161.213C98.6996 167.31 95.8736 173.692 89.8922 179.5C74.2379 194.7 62.2151 206.833 58.1604 211C50.4038 220.167 38.0637 242.2 50.7564 257C58.3007 265.797 68.7099 277.502 77.764 287.581C87.9127 298.878 99.408 310.806 99.8856 325.985C100.152 334.446 97.5103 343.688 88.8345 351.5C71.0647 367.5 60.6285 378.167 57.6316 381.5C50.2275 389.167 37.8521 407.7 47.5832 420.5C53.627 428.45 65.5595 442.34 76.4376 454.72L76.5595 454.859C87.8615 467.721 100.011 481.547 99.0062 498.63C98.5837 505.815 95.9904 513.366 89.4998 520C84.1553 525.463 79.8257 530.653 75.0111 535.313C61.5699 548.323 44.6316 561.875 45.3506 580.567M85.6323 1L40.4145 47.5C34.3137 55.6667 26.7415 76.8 45.2593 96C53.5269 104.572 61.1723 112.6 67.5821 119.379C78.9374 131.389 92.1997 144.963 89.6147 161.288C88.6528 167.363 85.775 173.716 79.7117 179.5C63.7779 194.7 51.5403 206.833 47.4133 211C39.5181 220.167 26.9576 242.2 39.877 257C47.573 265.816 58.198 277.554 67.428 287.648C77.7184 298.901 89.4177 310.792 89.8851 326.034C90.1441 334.482 87.4489 343.703 78.6351 351.5C60.548 367.5 49.9254 378.167 46.875 381.5C39.3387 389.167 26.7423 407.7 36.6472 420.5C42.8093 428.463 54.9856 442.387 66.073 454.783L66.2978 455.034C77.7381 467.824 90.0625 481.601 89 498.71C88.5553 505.871 85.9109 513.391 79.3287 520C73.8239 525.528 69.3381 530.777 64.3899 535.479C50.8172 548.378 33.6685 561.814 34.3731 580.526M74.6323 1L29.4145 47.5C23.3137 55.6667 15.7415 76.8 34.2593 96C42.5269 104.572 50.1723 112.6 56.5821 119.379C67.9374 131.389 81.1997 144.963 78.6147 161.288C77.6528 167.363 74.775 173.716 68.7117 179.5C52.7779 194.7 40.5403 206.833 36.4133 211C28.5181 220.167 15.9576 242.2 28.877 257C36.573 265.816 47.198 277.554 56.428 287.648C66.7184 298.901 78.4177 310.792 78.8851 326.034C79.1441 334.482 76.4489 343.703 67.6351 351.5C49.548 367.5 38.9254 378.167 35.875 381.5C28.3387 389.167 15.7423 407.7 25.6472 420.5C31.8093 428.463 43.9856 442.387 55.073 454.783L55.2978 455.034C66.7381 467.824 79.0625 481.601 78 498.71C77.5553 505.871 74.9109 513.391 68.3287 520C62.8239 525.528 58.3381 530.777 53.3899 535.479C39.8172 548.378 22.6685 561.814 23.3731 580.526M63.7089 1L19.2844 47.5C13.2906 55.6667 5.85129 76.8 24.0442 96C32.1395 104.543 39.6277 112.546 45.912 119.311C57.1114 131.367 70.1231 144.947 67.633 161.213C66.6996 167.31 63.8736 173.692 57.8922 179.5C42.2379 194.7 30.2151 206.833 26.1604 211C18.4038 220.167 6.06365 242.2 18.7564 257C26.3007 265.797 36.7099 277.502 45.764 287.581C55.9127 298.878 67.408 310.806 67.8856 325.985C68.1518 334.446 65.5103 343.688 56.8345 351.5C39.0647 367.5 28.6285 378.167 25.6316 381.5C18.2275 389.167 5.85211 407.7 15.5832 420.5C21.627 428.45 33.5595 442.34 44.4376 454.72L44.5594 454.859C55.8615 467.721 68.0106 481.547 67.0062 498.63C66.5837 505.815 63.9904 513.366 57.4998 520C52.1553 525.463 47.8257 530.653 43.0111 535.313C29.5699 548.323 12.6316 561.875 13.3506 580.567M53.6323 1L8.41449 47.5C2.31368 55.6667 -5.25851 76.8 13.2593 96C21.5269 104.572 29.1723 112.6 35.5821 119.379C46.9374 131.389 60.1997 144.963 57.6147 161.288C56.6528 167.363 53.775 173.716 47.7117 179.5C31.7779 194.7 19.5403 206.833 15.4133 211C7.51814 220.167 -5.04236 242.2 7.87702 257C15.573 265.816 26.198 277.554 35.428 287.648C45.7184 298.901 57.4177 310.792 57.8851 326.034C58.1441 334.482 55.4489 343.703 46.6351 351.5C28.548 367.5 17.9254 378.167 14.875 381.5C7.33871 389.167 -5.25768 407.7 4.64717 420.5C10.8093 428.463 22.9856 442.387 34.073 454.783L34.2979 455.034C45.7381 467.824 58.0625 481.601 57 498.71C56.5553 505.871 53.9109 513.391 47.3287 520C41.8239 525.528 37.3381 530.777 32.3899 535.479C18.8172 548.378 1.66855 561.814 2.37308 580.526" stroke="#fff"/>
</svg>
