<svg width="38" height="36" viewBox="0 0 38 36" fill="none" xmlns="http://www.w3.org/2000/svg">
<path fill-rule="evenodd" clip-rule="evenodd" d="M34.6196 20.8725V20.0452C34.6241 16.7856 33.7109 13.5981 31.996 10.8868C30.2811 8.17554 27.8417 6.06268 24.9871 4.81617C22.1325 3.56966 18.9913 3.24566 15.962 3.88526C12.9326 4.52485 10.1516 6.09923 7.97142 8.40874C6.51493 9.93173 5.35918 11.7444 4.57106 13.7418C3.78294 15.7391 3.3781 17.8816 3.37996 20.0452V20.8725L3.26596 20.907C2.08273 21.2627 1.03731 22.0061 0.28071 23.0297L0 23.4091V20.0465C0 14.7298 2.00178 9.63091 5.56497 5.87147C9.12816 2.11203 13.9609 0 19 0C24.0391 0 28.8718 2.11203 32.435 5.87147C35.9982 9.63091 38 14.7298 38 20.0465V23.4091L37.7193 23.0297C36.9625 22.0061 35.9169 21.2628 34.7336 20.907L34.6196 20.8725ZM38 30.8957V26.7739C37.9985 25.4208 37.4883 24.1236 36.5814 23.1668C35.6746 22.2101 34.445 21.6719 33.1626 21.6704H31.4799V35.9991H33.1626C34.445 35.9977 35.6746 35.4595 36.5814 34.5028C37.4883 33.546 37.9985 32.2488 38 30.8957ZM28.3247 35.4396C28.3259 35.5878 28.3822 35.7296 28.4816 35.8345C28.581 35.9393 28.7154 35.9988 28.8559 36H30.5389V21.6704H28.8551C28.7146 21.6717 28.5801 21.7311 28.4808 21.836C28.3814 21.9408 28.3251 22.0826 28.3239 22.2309V35.44L28.3247 35.4396ZM23.9935 7.41202C24.6911 7.40921 25.3597 7.11719 25.8551 6.59895L26.0075 6.43987L25.8179 6.33425C23.7157 5.16849 21.3764 4.55938 19.0014 4.55938C16.6265 4.55938 14.2872 5.16849 12.1849 6.33425L11.9953 6.43987L12.1477 6.59895C12.6431 7.11753 13.3119 7.4096 14.0097 7.41202H23.9935ZM6.51966 21.6704H4.83703C3.5546 21.6719 2.3251 22.2101 1.41829 23.1668C0.511472 24.1236 0.001406 25.4208 0 26.7739V30.8957C0.001406 32.2488 0.511472 33.546 1.41829 34.5027C2.3251 35.4595 3.5546 35.9977 4.83703 35.9991H6.51966V21.6704ZM9.67488 22.2309C9.67371 22.0826 9.61737 21.9408 9.518 21.836C9.41864 21.7311 9.28421 21.6717 9.1437 21.6704H7.46189V35.9991H9.14411C9.28462 35.9979 9.41905 35.9385 9.51841 35.8336C9.61778 35.7288 9.67412 35.587 9.67529 35.4387L9.67488 22.2309Z" fill="#311818"/>
</svg>
