<?xml version="1.0" standalone="no"?>
<!DOCTYPE svg PUBLIC "-//W3C//DTD SVG 20010904//EN"
 "http://www.w3.org/TR/2001/REC-SVG-20010904/DTD/svg10.dtd">
<svg version="1.0" xmlns="http://www.w3.org/2000/svg"
 width="700.000000pt" height="700.000000pt" viewBox="0 0 700.000000 700.000000"
 preserveAspectRatio="xMidYMid meet">
<metadata>
Created by potrace 1.11, written by Peter Selinger 2001-2013
</metadata>
<g transform="translate(0.000000,700.000000) scale(0.100000,-0.100000)"
fill="#000000" stroke="none">
<path d="M390 6230 l0 -380 113 7 c170 12 547 9 682 -6 160 -17 380 -54 501
-85 54 -14 99 -24 100 -23 1 1 23 45 49 97 110 220 246 442 389 635 45 61 85
116 90 123 6 9 -189 12 -958 12 l-966 0 0 -380z"/>
<path d="M3174 6463 c-212 -200 -327 -334 -458 -534 -103 -159 -253 -468 -230
-476 22 -7 279 -176 376 -246 882 -644 1399 -1485 1535 -2502 33 -251 21 -784
-23 -997 l-5 -27 -107 39 c-206 74 -403 169 -555 266 -37 24 -69 44 -71 44 -2
0 -6 -43 -10 -95 -14 -206 -70 -454 -150 -667 -19 -51 -34 -93 -33 -93 1 0 37
-17 79 -38 163 -78 472 -194 569 -212 l36 -7 47 124 c67 171 111 308 156 483
45 176 21 164 220 112 233 -61 331 -72 635 -72 301 0 387 9 631 69 257 63 537
180 742 310 l42 26 0 2320 0 2320 -1635 0 -1636 0 -155 -147z"/>
<path d="M1775 5693 c-37 -88 -86 -226 -118 -333 -34 -113 -87 -343 -87 -378
0 -12 19 -24 63 -41 158 -60 407 -180 558 -269 l84 -50 13 122 c19 183 57 354
116 526 29 85 56 162 60 171 11 26 -275 157 -541 249 -64 22 -119 40 -124 40
-5 0 -16 -17 -24 -37z"/>
<path d="M570 5085 c-14 -2 -60 -7 -102 -10 l-78 -7 0 -2329 0 -2329 1279 0
1279 0 52 57 c106 116 217 273 304 430 53 96 126 254 126 273 0 5 -21 22 -47
37 -131 75 -329 212 -448 308 -253 203 -559 515 -736 750 -560 742 -798 1672
-660 2583 10 62 14 115 10 118 -23 14 -297 76 -415 94 -129 19 -494 35 -564
25z"/>
<path d="M2283 4424 c27 -721 280 -1339 764 -1869 152 -165 378 -369 540 -486
l46 -32 -6 219 c-3 120 -13 265 -21 322 -77 506 -284 982 -599 1372 -186 231
-526 535 -706 630 l-24 12 6 -168z"/>
<path d="M6458 1075 c-655 -301 -1426 -378 -2135 -215 -71 16 -143 34 -162 39
-19 6 -35 10 -36 8 -1 -1 -34 -64 -73 -139 -64 -122 -122 -225 -184 -325 l-20
-33 1376 0 1376 0 0 360 c0 282 -3 360 -12 359 -7 0 -66 -24 -130 -54z"/>
</g>
</svg>
