<?xml version="1.0" encoding="UTF-8" standalone="no"?>
<svg
   xmlns:dc="http://purl.org/dc/elements/1.1/"
   xmlns:cc="http://creativecommons.org/ns#"
   xmlns:rdf="http://www.w3.org/1999/02/22-rdf-syntax-ns#"
   xmlns:svg="http://www.w3.org/2000/svg"
   xmlns="http://www.w3.org/2000/svg"
   viewBox="0 0 449.57333 80.306664"
   height="80.306664"
   width="449.57333"
   xml:space="preserve"
   id="svg2"
   version="1.1"><metadata
     id="metadata8"><rdf:RDF><cc:Work
         rdf:about=""><dc:format>image/svg+xml</dc:format><dc:type
           rdf:resource="http://purl.org/dc/dcmitype/StillImage" /></cc:Work></rdf:RDF></metadata><defs
     id="defs6" /><g
     transform="matrix(1.3333333,0,0,-1.3333333,0,80.306667)"
     id="g10"><g
       transform="scale(0.1)"
       id="g12"><path
         id="path14"
         style="fill:#2b4665;fill-opacity:1;fill-rule:nonzero;stroke:none"
         d="M 381.836,15.4883 C 345.918,7.03125 307.168,0 269.824,0 110.605,0 0,79.5898 0,245.859 c 0,168.368 102.859,262.774 269.824,262.774 32.41,0 75.379,-6.36 111.309,-20.43 l -7.051,-83.137 c -37.336,21.133 -71.152,26.067 -106.379,26.067 -101.433,0 -164.844,-77.488 -164.844,-178.235 0,-100.027 61.993,-175.4175 166.965,-175.4175 38.75,0 84.539,8.457 107.781,20.4297 l 4.231,-82.4219" /><path
         id="path16"
         style="fill:#2b4665;fill-opacity:1;fill-rule:nonzero;stroke:none"
         d="m 410.602,411.121 h 80.632 V 248.699 H 652.5 v 162.422 h 80.637 V 9.10156 H 652.5 V 185.352 H 491.234 V 9.10156 H 410.602 V 411.121" /><path
         id="path18"
         style="fill:#2b4665;fill-opacity:1;fill-rule:nonzero;stroke:none"
         d="M 768.863,411.121 H 1006.16 V 347.766 H 849.504 V 248.699 H 992.91 V 185.352 H 849.504 V 72.4609 H 1007.31 V 9.10156 H 768.863 V 411.121" /><path
         id="path20"
         style="fill:#2b4665;fill-opacity:1;fill-rule:nonzero;stroke:none"
         d="m 1338.5,14.8633 c -29.37,-6.91408 -61.05,-12.66799 -91.57,-12.66799 -130.17,0 -220.59,65.08989 -220.59,201.00769 0,137.656 84.08,214.824 220.59,214.824 26.49,0 61.62,-5.175 91,-16.699 l -5.76,-67.961 c -30.53,17.278 -58.17,21.321 -86.97,21.321 -82.94,0 -134.78,-63.372 -134.78,-145.723 0,-81.785 50.69,-143.4181 136.51,-143.4181 31.67,0 69.11,6.914 88.12,16.6992 l 3.45,-67.3828" /><path
         id="path22"
         style="fill:#2b4665;fill-opacity:1;fill-rule:nonzero;stroke:none"
         d="m 1369.05,411.121 h 80.63 V 219.219 l 33.51,-41.328 45.4,43.742 172.22,-212.53144 h -105.4 L 1450.83,195.715 h -1.15 V 9.10156 h -80.63 V 411.121" /><path
         id="path24"
         style="fill:#c42028;fill-opacity:1;fill-rule:nonzero;stroke:none"
         d="m 1847.37,596.219 c -9.15,11.32 -26.01,3.469 -26.01,3.469 -152.1,-96.758 -268.04,-216.973 -360.31,-366.231 l -7.71,16.348 c -24.77,55.047 -47.29,78.047 -67.56,78.047 -23.71,0 -49.79,-15.02 -78.24,-45.059 16.84,-5.789 30.54,-18.801 45.63,-35.156 56.15,-60.918 78.28,-139.922 96.51,-238.53544 35.16,115.62544 104.45,256.76544 183.56,361.24244 80.66,106.543 142.02,154.578 212.61,201.844 0,0 10.66,12.726 1.52,24.031" /><path
         id="path26"
         style="fill:#2b4665;fill-opacity:1;fill-rule:nonzero;stroke:none"
         d="m 1802.19,72.4609 h 38 c 37.44,0 82.94,9.2188 82.94,55.8591 0,52.422 -42.61,60.489 -82.94,60.489 h -38 z m 0,176.2381 h 32.83 c 33.97,0 76.02,7.492 76.02,48.957 0,46.66 -40.89,50.11 -77.76,50.11 h -31.09 z m -80.64,162.422 h 140.54 c 51.83,0 129.59,-14.969 129.59,-103.094 0,-47.8 -32.26,-81.211 -80.07,-89.843 v -1.153 c 54.72,-5.195 92.16,-42.051 92.16,-91.582 0,-101.367 -91.01,-116.34744 -141.68,-116.34744 H 1721.55 V 411.121" /><path
         id="path28"
         style="fill:#2b4665;fill-opacity:1;fill-rule:nonzero;stroke:none"
         d="m 2217.56,65.5469 c 82.35,0 112.88,73.1441 112.88,145.7151 0,70.847 -32.83,143.426 -112.88,143.426 -80.07,0 -112.89,-72.579 -112.89,-143.426 0,-72.571 30.52,-145.7151 112.89,-145.7151 z m 0,352.4801 c 126.12,0 196.96,-85.234 196.96,-206.765 0,-121.5276 -69.69,-209.06669 -196.96,-209.06669 -129.02,0 -196.98,85.81249 -196.98,209.06669 0,123.25 69.12,206.765 196.98,206.765" /><path
         id="path30"
         style="fill:#2b4665;fill-opacity:1;fill-rule:nonzero;stroke:none"
         d="m 2633.39,65.5469 c 82.34,0 112.88,73.1441 112.88,145.7151 0,70.847 -32.83,143.426 -112.88,143.426 -80.08,0 -112.89,-72.579 -112.89,-143.426 0,-72.571 30.52,-145.7151 112.89,-145.7151 z m 0,352.4801 c 126.11,0 196.95,-85.234 196.95,-206.765 0,-121.5276 -69.67,-209.06669 -196.95,-209.06669 -129.02,0 -196.98,85.81249 -196.98,209.06669 0,123.25 69.11,206.765 196.98,206.765" /><path
         id="path32"
         style="fill:#2b4665;fill-opacity:1;fill-rule:nonzero;stroke:none"
         d="m 2889.78,411.121 h 80.63 V 219.219 l 33.51,-41.328 45.4,43.742 172.21,-212.53144 h -105.4 L 2971.56,195.715 h -1.15 V 9.10156 h -80.63 V 411.121" /><path
         id="path34"
         style="fill:#c42028;fill-opacity:1;fill-rule:nonzero;stroke:none"
         d="m 3368.1,596.219 c -9.14,11.32 -26.01,3.469 -26.01,3.469 -152.1,-96.758 -268.05,-216.973 -360.3,-366.231 l -7.72,16.348 c -24.77,55.047 -47.28,78.047 -67.57,78.047 -23.71,0 -49.79,-15.02 -78.23,-45.059 16.84,-5.789 30.54,-18.801 45.63,-35.156 56.15,-60.918 78.28,-139.922 96.51,-238.53544 35.17,115.62544 104.44,256.76544 183.56,361.24244 80.66,106.543 142.02,154.578 212.6,201.844 0,0 10.68,12.726 1.53,24.031" /><path
         id="path36"
         style="fill:#2b4665;fill-opacity:1;fill-rule:nonzero;stroke:none"
         d="m 499.84,472.395 c -7.16,-1.758 -15.129,-3.782 -27.961,-3.782 -25.117,0 -54.149,12.696 -54.149,48.352 0,32.812 22.958,49.148 54.024,49.148 9.578,0 18.894,-2.156 27.949,-4.863 l -2.023,-20.391 c -8.106,4.454 -15.938,6.621 -24.578,6.621 -17.825,0 -29.446,-12.968 -29.446,-30.515 0,-18.508 13.106,-29.719 31.465,-29.719 8.242,0 16.613,2.168 23.496,4.863 l 1.223,-19.714" /><path
         id="path38"
         style="fill:#2b4665;fill-opacity:1;fill-rule:nonzero;stroke:none"
         d="m 582.047,487.246 c 15.262,0 21.336,14.59 21.336,30.117 0,16.34 -6.074,30.117 -21.336,30.117 -15.254,0 -21.34,-13.777 -21.34,-30.117 0,-15.527 6.086,-30.117 21.34,-30.117 z m 0,78.867 c 31.062,0 47.266,-18.496 47.266,-48.75 0,-29.98 -16.477,-48.75 -47.266,-48.75 -30.793,0 -47.266,18.77 -47.266,48.75 0,30.254 16.211,48.75 47.266,48.75" /><path
         id="path40"
         style="fill:#2b4665;fill-opacity:1;fill-rule:nonzero;stroke:none"
         d="m 670.727,564.492 h 32.011 l 31.867,-64.004 h 0.274 l -0.41,64.004 h 22.957 v -94.258 h -31.192 l -32.949,64.414 h -0.273 l 0.812,-64.414 h -23.097 v 94.258" /><path
         id="path42"
         style="fill:#2b4665;fill-opacity:1;fill-rule:nonzero;stroke:none"
         d="m 802.613,493.457 c 6.485,-3.508 15.535,-6.211 25.926,-6.211 7.969,0 15.539,1.621 15.539,9.192 0,17.546 -44.57,6.472 -44.57,40.781 0,22.683 22.148,28.894 41.055,28.894 9.05,0 17.957,-1.347 24.304,-3.515 l -1.621,-19.442 c -6.473,2.965 -13.769,4.324 -20.926,4.324 -6.347,0 -16.886,-0.546 -16.886,-8.777 0,-15.265 44.57,-5 44.57,-39.023 0,-24.446 -20.527,-31.067 -41.465,-31.067 -8.769,0 -19.707,1.348 -28.086,4.051 l 2.16,20.793" /><path
         id="path44"
         style="fill:#2b4665;fill-opacity:1;fill-rule:nonzero;stroke:none"
         d="m 993.121,506.016 c 0,-25.789 -16.738,-37.403 -41.32,-37.403 -24.578,0 -41.317,11.614 -41.317,37.403 v 58.476 h 25.118 v -54.285 c 0,-12.426 3.367,-22.961 16.199,-22.961 12.832,0 16.203,10.535 16.203,22.961 v 54.285 h 25.117 v -58.476" /><path
         id="path46"
         style="fill:#2b4665;fill-opacity:1;fill-rule:nonzero;stroke:none"
         d="m 1035.63,564.492 h 39.56 l 19.99,-62.656 h 0.27 l 20.93,62.656 h 38.08 v -94.258 h -24.57 l 0.4,72.383 h -0.27 l -24.04,-72.383 h -23.08 l -22.96,72.383 h -0.28 l 0.54,-72.383 h -24.57 v 94.258" /><path
         id="path48"
         style="fill:#2b4665;fill-opacity:1;fill-rule:nonzero;stroke:none"
         d="m 1197.63,564.492 h 66.44 v -17.82 h -41.32 v -19.453 h 39.02 v -17.824 h -39.02 v -21.336 h 42.8 v -17.825 h -67.92 v 94.258" /><path
         id="path50"
         style="fill:#2b4665;fill-opacity:1;fill-rule:nonzero;stroke:none"
         d="m 1332.23,525.332 h 6.61 c 8.11,0 18.37,0.273 18.37,10.938 0,8.777 -8.78,10.402 -18.37,10.402 h -6.61 z m -25.12,39.16 h 44.84 c 16.74,0 30.38,-7.558 30.38,-23.769 0,-12.559 -5.94,-20.926 -18.1,-23.758 v -0.277 c 8.11,-2.157 8.65,-9.317 13.37,-20.797 l 9.18,-25.657 h -26.19 l -5.4,17.012 c -5.14,16.211 -8.38,20.262 -17.69,20.262 h -5.27 v -37.274 h -25.12 v 94.258" /><path
         id="path52"
         style="fill:#2b4665;fill-opacity:1;fill-rule:nonzero;stroke:none"
         d="m 1425.09,493.457 c 6.49,-3.508 15.54,-6.211 25.93,-6.211 7.97,0 15.54,1.621 15.54,9.192 0,17.546 -44.57,6.472 -44.57,40.781 0,22.683 22.15,28.894 41.05,28.894 9.05,0 17.96,-1.347 24.31,-3.515 l -1.62,-19.442 c -6.48,2.965 -13.77,4.324 -20.93,4.324 -6.35,0 -16.88,-0.546 -16.88,-8.777 0,-15.265 44.57,-5 44.57,-39.023 0,-24.446 -20.53,-31.067 -41.47,-31.067 -8.77,0 -19.71,1.348 -28.09,4.051 l 2.16,20.793" /><path
         id="path54"
         style="fill:#2b4665;fill-opacity:1;fill-rule:nonzero;stroke:none"
         d="m 1541.2,564.492 h 22.68 l -13.23,-36.59 h -18.5 l 9.05,36.59" /></g></g></svg>