<?xml version="1.0" encoding="UTF-8" standalone="no"?>
<!DOCTYPE svg PUBLIC "-//W3C//DTD SVG 1.1//EN" "http://www.w3.org/Graphics/SVG/1.1/DTD/svg11.dtd">
<!-- Created with Inkscape (http://www.inkscape.org/) by Marsupilami -->
<svg
   xmlns:svg="http://www.w3.org/2000/svg"
   xmlns="http://www.w3.org/2000/svg"
   version="1.1"
   id="svg3562"
   width="1000"
   height="218.71875">
  <defs
     id="defs3564" />
  <path
     id="path370"
     d="m 684.21338,0 c -64.6462,0 -107.55469,48.08301 -107.55469,109.28906 0,64.71432 43.49002,109.20117 107.55469,109.20117 62.83962,0 107.33398,-46.48667 107.33398,-109.25195 C 791.54736,46.48534 747.04672,0 684.21338,0 Z M 316.1665,0.15429 c -20.53601,0 -46.52153,7.07265 -65.64062,22.79492 -22.80688,18.76029 -40.46094,48.11339 -40.46094,87.60157 0,34.04943 11.03256,61.47224 30.9375,80.04688 19.48417,18.19106 47.04374,28.12109 81.21679,28.12109 27.50938,0 60.73469,-10.38248 74.98438,-19.19336 4.98706,-3.08135 6.5529,-4.40483 5.25977,-9.44141 l -8.89844,-25.20117 c -1.03328,-4.13322 -5.61689,-5.19185 -9.3418,-3.34179 -6.25547,3.07514 -10.92752,5.49513 -17.26953,7.83398 -12.3192,4.55394 -25.06562,7.66016 -37.19922,7.66016 -25.54791,0 -40.07615,-6.94364 -51.20117,-19.75782 -7.06602,-8.13645 -11.2052,-18.45017 -12.49219,-30.36718 l 140.98047,0 c 5.1294,0 7.41406,-3.54543 7.41406,-9.54102 l 0,-10.16016 c 0,-4.94997 -0.22378,-12.72042 -0.64453,-17.36719 C 411.21849,61.45387 400.77386,38.61538 383.35009,23.14062 366.56355,8.21035 344.02853,0.15429 316.1665,0.15429 Z m 229.8457,0.20313 c -40.70722,0 -65.56837,9.33728 -81.51953,29.90429 -12.22026,15.77178 -14.42998,33.41293 -14.41601,71.15626 l 0,103.58984 c 0.56297,7.38162 3.53265,10.83399 10.43164,10.83399 l 32.20508,0 c 7.44966,0 10.49414,-3.88549 10.49414,-10.83399 l 0,-105.52149 c 0,-23.77209 0.29109,-37.03798 8.65039,-46.00976 7.18981,-7.71573 16.83546,-12.76367 37.06836,-12.76367 4.00945,0 13.61898,1.05843 16.97265,1.46679 1.26844,0.15475 2.30128,0.25391 2.84571,0.25391 3.48973,0 4.70232,-1.26869 5.82226,-5.70508 l 4.83203,-23.74805 c 0.89094,-4.8695 0.14788,-8.65577 -4.70312,-9.80664 -7.37541,-1.74484 -19.11783,-2.8164 -28.6836,-2.8164 z M 11.869622,3.17968 c -3.5020304,0 -6.0197304,2.79105 -4.5781204,7.50586 9.5967504,31.35173 33.9372704,68.57536 59.1757774,99.12891 -32.162331,28.97572 -54.653677,67.51629 -65.93945737,98.48438 -1.66448003,4.55394 0.91628997,7.53125 3.45312997,7.53125 l 37.9531244,0 c 5.463515,0 7.968727,-1.94404 10.474609,-7.49414 10.25879,-22.66456 25.493328,-48.81877 45.472656,-70.0293 18.314699,17.6342 34.340259,44.45044 44.611329,70.0293 2.87724,7.07223 6.20571,7.49414 10.50586,7.49414 l 41.38086,0 c 7.91997,0 8.62046,-4.29373 7.19727,-8.03711 -15.78412,-41.60431 -49.36297,-84.07046 -68.30274,-102.00781 17.34339,-18.5128 48.78146,-54.26875 62.51758,-95.09962 2.02329,-6.00798 -1.71448,-7.50586 -4.81445,-7.50586 l -34.65039,0 c -4.20121,0 -7.00913,1.46694 -10.11524,7.50586 C 127.55021,45.87965 110.75114,66.63268 103.51806,74.11328 92.120755,60.58137 77.134506,36.23964 66.170404,10.68554 63.788176,5.14161 61.269701,3.17968 56.449701,3.17968 l -44.580079,0 z m 797.832038,0 c -3.48975,0 -6.01358,2.79105 -4.57813,7.50586 9.59047,31.35173 33.93114,68.57536 59.17578,99.12891 -32.15603,28.97572 -54.64778,67.51629 -65.93359,98.48438 -1.66449,4.55394 0.9344,7.53125 3.45898,7.53125 l 37.94727,0 c 5.45722,0 7.96314,-1.94404 10.46289,-7.49414 10.26493,-22.66456 25.49306,-48.81877 45.47852,-70.0293 18.32098,17.6342 34.34667,44.45044 44.60546,70.0293 2.90195,7.07223 6.22386,7.49414 10.51172,7.49414 l 41.38086,0 c 7.91378,0 8.61998,-4.29373 7.20313,-8.03711 -15.79653,-41.60431 -49.37594,-84.07046 -68.29102,-102.00781 17.33096,-18.5128 48.77589,-54.26875 62.50586,-95.09962 2.02943,-6.00798 -1.71421,-7.50586 -4.82031,-7.50586 l -34.63672,0 c -4.20735,0 -7.0228,1.46694 -10.12891,7.50586 C 925.38823,45.87965 908.58874,66.63268 901.36181,74.11328 889.95222,60.58137 874.96683,36.23964 863.99658,10.68554 861.62064,5.14161 859.08931,3.17968 854.28173,3.17968 l -44.58007,0 z M 684.24463,40.00781 c 37.63809,0 51.82031,32.55267 51.82031,69.24414 0,36.70383 -14.18222,69.27903 -51.82031,69.27344 -37.65054,0 -52.15235,-32.56961 -52.15235,-69.27344 0,-36.68529 14.50181,-69.24414 52.15235,-69.24414 z m -366.31446,0.18554 c 28.15901,0 45.36133,19.12573 45.36133,47.51368 l 0,1.28711 -97.31055,0 c 1.0457,-7.05989 3.0624,-13.76789 6.23047,-20.13477 8.6747,-17.49805 25.21986,-28.66602 45.71875,-28.66602 z"
     style="fill:#d40e2a" />
</svg>
