<svg version="1.1" id="Layer_1" xmlns="http://www.w3.org/2000/svg" xmlns:xlink="http://www.w3.org/1999/xlink" x="0px" y="0px" viewBox="0 0 461.5 64.2" style="enable-background:new 0 0 461.5 64.2;" xml:space="preserve">
 <g>
  <path d="M12.7,18.8v43.6H0V1.8h12.7v9.6C19.9,5,26.4,0,32.2,0c9.4,0,14.6,4.4,17.2,11.8C57.2,5.2,64.1,0,70.3,0
		c13.8,0,18.8,9.5,18.8,24v38.4H76.1V26.6c0-10.8-2.4-15.2-10-15.2c-6.2,0-11,3.2-15.4,7.1c0.1,1.7,0.2,3.6,0.2,5.4v38.4H37.9V26.6
		c0-10.8-2.4-15.2-10-15.2C21.8,11.4,17,14.7,12.7,18.8z M168.7,64.2c-16.6,0-28-11.5-28-30.5c0-6.1,1.3-11.8,3.8-17.4
		c6.5-7,16.6-16.3,27.5-16.3c10.6,0,16.9,4.8,20.4,10.3l-7.7,9.7c-3.4-4.8-8.4-9.7-16.8-9.7c-4.3,0-8.3,1.4-11.9,3.8
		c-1.9,5-2.6,10.2-2.6,15.5c0,16.8,8,24.1,19.4,24.1c7.6,0,13.3-3.2,18-6.5l2.3,3.7L183.1,61C179.9,62.5,175.3,64.2,168.7,64.2z
		 M240.4,39.2c7.2-6.4,15.8-12.6,26.8-12.6c3.4,0,7,0.4,9.8,0.9v-3.8c0-8.8-3.6-13.4-12.8-13.4c-6.8,0-12.8,2.5-19.2,6.8l-2.2-3.6
		l10.4-9.8c3.6-2,8.9-3.6,15.1-3.6c13.8,0,21,8.1,21,22.2v40.2H277v-8.6c-5.3,4.7-13,10.4-19.4,10.4c-11.2,0-18.7-6.5-18.7-17.2
		C238.8,44.3,239.3,41.5,240.4,39.2z M277,46.8V36.2c-2.9-1-7.1-1.7-11.9-1.7c-5.3,0-9,1-12.7,2.8c-0.8,1.8-1.2,3.9-1.2,6.1
		c0,7,4.3,11.2,10.6,11.2C267.6,54.6,272.3,50.7,277,46.8z M337.5,53.5l8-8c3.4,4.5,9.5,9,19,9c4,0,7.6-0.9,11-2.8
		c0.6-1.7,0.8-3.3,0.8-4.5c0-7.5-7.2-9.3-16.3-11.3C349,33.5,341,29.5,341,20c0-3.4,1-6.5,2.2-8.5C348.8,6.3,356.9,0,366.4,0
		c9,0,15.6,3.3,19.4,8.8l-7.7,7.9c-3-4.7-8.6-7.9-16.2-7.9c-3.7,0-6.8,0.9-9.6,2.5c-0.6,1.8-0.8,3.3-0.8,4.7c0,6.6,6.2,7,15.7,9.2
		c10.9,2.5,20,6.8,20,18.2c0,3.1-0.7,6-1.8,8.2c-5.2,5.2-14.2,12.6-25.1,12.6C349.4,64.2,341.8,59.6,337.5,53.5z M411.3,62.2V2.5
		C416.7,1.2,427,1,432.4,1c19.1,0,29.2,7.7,29.2,27.8c0,8.8-1.7,15.6-3.7,20.1c-5.8,5.5-15.4,14.1-26.2,14.1
		C425.1,63,416.2,62.9,411.3,62.2z M423.9,52.2c1.6,0.2,4.8,0.5,10.1,0.5c4.7,0,8.9-0.6,11.9-2.5c2.3-6.1,2.9-11.8,2.9-18.5
		c0-15.2-6-23.1-18.1-23.1c-2.2,0-4.3,0.1-6.7,0.5V52.2z">
  </path>
 </g>
</svg>