<svg xmlns="http://www.w3.org/2000/svg" width="900" height="318" fill="none"><path fill="#333353" d="M403 108.8c0 16.9-6.7 27.82-20.08 32.76l26.73 37.75h-29l-23.4-33.67h-16.3v33.68h-23.56V73.76h40c16.4 0 28.1 2.77 35.04 8.3C399.48 87.6 403 96.52 403 108.8zm-44.84 16.45c8.05 0 13.54-1.3 16.46-3.93 2.92-2.62 4.38-6.74 4.38-12.38 0-5.74-1.5-9.67-4.53-11.78-3.02-2.1-8.3-3.17-15.86-3.17h-17.66v31.25h17.22zm131 42.28c-9.16 8.66-19.93 12.98-32.3 12.98-12.3 0-22.46-3.76-30.5-11.3-8.07-7.66-12.1-17.88-12.1-30.66 0-12.8 4.08-22.96 12.24-30.5 8.25-7.56 17.97-11.33 29.14-11.33 11.18 0 20.64 3.38 28.4 10.13 7.84 6.74 11.77 16 11.77 27.78v12.1h-59.19c.72 4.42 3.03 8.04 6.96 10.86 3.93 2.82 8.36 4.23 13.3 4.23 7.94 0 14.5-2.68 19.62-8l12.7 13.73zm-16.3-37c-.5-4.83-2.32-8.55-5.44-11.17-3.12-2.62-6.95-3.93-11.48-3.93-4.43 0-8.5 1.36-12.23 4.08-3.7 2.73-5.88 6.4-6.48 11.03h35.64zm65.7 49.98c-9.55 0-18.1-4.06-25.66-12.22-7.55-8.15-11.33-18.27-11.33-30.35 0-12.08 3.68-21.94 11.03-29.6 7.34-7.75 15.95-11.62 25.82-11.62 9.86 0 17.92 3.48 24.16 10.43V67.26h22.65V179.3h-22.65v-10.7c-6.34 7.94-14.35 11.9-24 11.9zm-14.2-41.66c0 6.54 1.98 11.93 5.9 16.16 3.93 4.12 8.5 6.2 13.74 6.2s9.67-2.08 13.3-6.2c3.72-4.23 5.58-9.62 5.58-16.16 0-6.65-1.86-12.13-5.6-16.46-3.6-4.43-8.1-6.65-13.43-6.65s-9.9 2.22-13.74 6.65c-3.8 4.43-5.73 9.9-5.73 16.46zM396.35 313.87l-9.82-22.8H342.3l-9.83 22.8H307.4L353 208.32h22.8l45.6 105.55h-25.05zm-31.87-74.14l-13.3 30.65h26.44l-13.14-30.65zm103.6 12.83c-6.73 0-11.77 2.42-15.1 7.25-3.3 4.74-4.97 11.03-4.97 18.9v35.17h-22.64v-81.24H448v10.72c2.93-3.32 6.55-6.14 10.88-8.45 4.43-2.32 8.9-3.53 13.44-3.63l.15 21.3h-4.38zM520.37 295c7.55 0 14.34-3.78 20.38-11.33l13.44 15.1c-10.47 10.87-21.8 16.3-33.97 16.3-12.17 0-22.5-3.82-30.95-11.47-8.36-7.75-12.53-17.8-12.53-30.2 0-12.48 4.23-22.6 12.68-30.35 8.56-7.85 18.68-11.78 30.35-11.78 5.84 0 11.73 1.2 17.67 3.63 6.04 2.4 11.33 6 15.86 10.72l-11.78 15.4c-2.62-3.12-5.84-5.54-9.66-7.25-3.73-1.7-7.46-2.57-11.18-2.57-5.94 0-11.07 1.97-15.4 5.9-4.23 3.82-6.34 9.2-6.34 16.15 0 6.85 2.1 12.18 6.34 16 4.33 3.83 9.36 5.75 15.1 5.75zm111.9 18.87h-21.3v-9.8c-5.83 7.33-13.08 11-21.74 11-8.56 0-15.75-2.46-21.6-7.4-5.83-5.02-8.75-11.67-8.75-19.92 0-8.36 3.02-14.6 9.06-18.73 6.04-4.12 14.3-6.2 24.77-6.2h16.9v-.44c0-8.66-4.57-13-13.73-13-3.93 0-8.1.82-12.54 2.43-4.33 1.52-8 3.43-11.02 5.75l-10.1-14.65c10.66-7.75 22.84-11.63 36.53-11.63 9.87 0 17.92 2.47 24.17 7.4 6.24 4.93 9.36 12.74 9.36 23.4v51.8zm-22.8-30.95V279h-14.2c-9.06 0-13.6 2.8-13.6 8.45 0 2.92 1.07 5.18 3.18 6.8 2.22 1.5 5.34 2.26 9.37 2.26 4.03 0 7.55-1.2 10.57-3.62 3.13-2.5 4.7-5.84 4.7-9.96zm69.87 32.16c-9.56 0-18.12-4.08-25.67-12.23-7.55-8.16-11.32-18.27-11.32-30.35 0-12.08 3.67-21.95 11.02-29.6 7.35-7.75 15.96-11.63 25.82-11.63 9.87 0 17.92 3.47 24.16 10.42v-39.87H726v112.04h-22.66v-10.72c-6.34 7.95-14.34 11.93-24 11.93zm-14.2-41.68c0 6.55 1.97 11.93 5.9 16.16 3.93 4.13 8.5 6.2 13.74 6.2s9.66-2.07 13.3-6.2c3.7-4.23 5.58-9.6 5.58-16.16 0-6.64-1.87-12.13-5.6-16.46-3.62-4.43-8.1-6.64-13.43-6.64-5.34 0-9.92 2.2-13.74 6.64-3.83 4.43-5.74 9.92-5.74 16.46zm146.64 28.7c-9.16 8.65-19.93 12.98-32.32 12.98-12.28 0-22.45-3.77-30.5-11.33-8.05-7.65-12.08-17.87-12.08-30.65 0-12.8 4.08-22.95 12.23-30.5 8.26-7.55 17.97-11.33 29.14-11.33 11.18 0 20.64 3.37 28.4 10.12 7.85 6.73 11.77 16 11.77 27.77v12.08h-59.18c.7 4.43 3.02 8.06 6.94 10.88 3.93 2.82 8.36 4.23 13.3 4.23 7.95 0 14.5-2.67 19.62-8l12.7 13.73zm-16.3-37c-.5-4.84-2.33-8.56-5.45-11.18-3.12-2.6-6.94-3.92-11.47-3.92-4.43 0-8.5 1.35-12.23 4.07-3.73 2.72-5.9 6.4-6.5 11.03h35.64z"/><path fill="url(#a)" fill-rule="evenodd" d="M201.5 103.7c-10.95 29.67-36.5 52.2-67.88 58.8l-6.4 40.57c-.95 5.95-6.08 10.34-12.1 10.34-6.03 0-11.16-4.38-12.1-10.33l-6.37-40.32c-31.92-6.27-57.98-29-69.07-59.05C11.25 111.7 0 128.5 0 147.93v120.83C0 295.96 22.04 318 49.24 318h130.6c27.2 0 49.24-22.05 49.24-49.24V147.93c0-19.42-11.25-36.22-27.58-44.23z" clip-rule="evenodd"/><path fill="url(#b)" d="M185.44 71.28c0 39.36-31.74 71.27-70.9 71.27-39.16 0-70.9-31.9-70.9-71.27S75.37 0 114.53 0c39.16 0 70.9 31.9 70.9 71.28z"/><defs><linearGradient id="a" x1="114.539" x2="114.539" y1="98.692" y2="318" gradientUnits="userSpaceOnUse"><stop stop-color="#FFCB46"/><stop offset="1" stop-color="#f90"/></linearGradient><linearGradient id="b" x1="114.538" x2="114.538" y2="142.551" gradientUnits="userSpaceOnUse"><stop stop-color="#FF5761"/><stop offset="1" stop-color="#FF0C1B"/></linearGradient></defs></svg>
