<svg id="Layer_1" data-name="Layer 1" xmlns="http://www.w3.org/2000/svg" viewBox="0 0 92.07 67.85">
  <defs>
    <style>
      .logo_color {
        fill: #d9363d;
      }
    </style>
  </defs>
  <title>icon</title>
  <g>
    <path class="logo_color" d="M79.52,34.86A13.91,13.91,0,0,1,77,28.3c-.08-1.82.59-1.89.73-2.18s5.54,4.21,5.58,7.53C82.67,35,80,35.27,79.52,34.86Z" transform="translate(-3.37 -4.77)"/>
    <path class="logo_color" d="M41.52,24.52a1.56,1.56,0,0,1,2.3.49c.68,1.26,1.34,2.67,1.34,2.67h0a1.84,1.84,0,0,1,.06.87l-1.36,6a1.57,1.57,0,0,1-1.74,1.09A25.88,25.88,0,0,1,36.78,34c-.29-.12-.62-.29-.94-.45A1.8,1.8,0,0,1,35,31.23l1.4-3.08a1.47,1.47,0,0,1,.65-.7c.66-.37,1.32-.76,2-1.17C39.85,25.73,40.69,25.14,41.52,24.52Z" transform="translate(-3.37 -4.77)"/>
    <path class="logo_color" d="M54,20.92a.74.74,0,0,1-.36.65l-3.94,2.92a2.31,2.31,0,0,1-3.09-.6l-.71-1.05,0-.05-.07-.13-.52-1,0-.1h0a.54.54,0,0,1,.12-.58,41.69,41.69,0,0,0,3.7-4.37l.15-.21a.56.56,0,0,1,.62-.22c1.82.48,4.53,1.7,4.37,3.46Z" transform="translate(-3.37 -4.77)"/>
    <path class="logo_color" d="M65.61,30.2l2.67-2.49a3,3,0,0,1,3-.58l1.8.63a2.57,2.57,0,0,1,1.51,1.29L77,34.12a2.22,2.22,0,0,1-1.45,3,77.79,77.79,0,0,1-7.49,2.3c-1.78.43-3.55-.74-3.48-2.34l.12-3,.22-2.5A2.17,2.17,0,0,1,65.61,30.2Z" transform="translate(-3.37 -4.77)"/>
    <path class="logo_color" d="M56.65,25.62l4.76,4a2.36,2.36,0,0,1,.88,1.89l-.49,6.14a1.49,1.49,0,0,1-1.16,1.4,38.61,38.61,0,0,1-11.51-.89c-1.12-.28-1.91-1.1-1.74-2.07l1.13-6.22,0-.28a.89.89,0,0,1,.08-.32l0-.06A1,1,0,0,1,49,28.9l6.08-3.52a1.23,1.23,0,0,1,1.09-.06A2.09,2.09,0,0,1,56.65,25.62Z" transform="translate(-3.37 -4.77)"/>
    <path class="logo_color" d="M75.22,25.55l-5-1.66c-1-.54-2.65-6.21-2.19-6.52s3.33.91,5.18,2.85a13.12,13.12,0,0,1,2.25,2.89C76,23.9,75.77,25.74,75.22,25.55Z" transform="translate(-3.37 -4.77)"/>
    <path class="logo_color" d="M57.08,17c-1.15.33-6.38-2.63-6.27-3.17s3-1.61,5.74-1.49a14.16,14.16,0,0,1,3.69.53c.4.12,2.84.64,2.53,1.9C62.5,15.88,57.08,17,57.08,17Z" transform="translate(-3.37 -4.77)"/>
    <path class="logo_color" d="M64.6,27.9a1.07,1.07,0,0,1-1.47,0h0l-4.76-4.78a3.14,3.14,0,0,1-.92-1.86c.55-3.29,5.28-3.59,5.28-3.59a1,1,0,0,1,.68.16,10.88,10.88,0,0,1,3.87,6.89.9.9,0,0,1-.26.72Z" transform="translate(-3.37 -4.77)"/>
    <path class="logo_color" d="M37.82,8.56A95.9,95.9,0,0,0,20.47,21.43a.5.5,0,0,1-.74-.65A68.6,68.6,0,0,1,34.37,5.24,2.29,2.29,0,0,1,38,6.67c.07.38.12.78.16,1.19A.71.71,0,0,1,37.82,8.56Z" transform="translate(-3.37 -4.77)"/>
    <path class="logo_color" d="M91.82,33c-2.31,1.74-5.47,2.27-6.5-.43s.47-6.7,2.79-9.36C90,21,94,16.51,95.38,25.65,95.8,28.51,93.94,31.4,91.82,33Z" transform="translate(-3.37 -4.77)"/>
    <path class="logo_color" d="M3.72,43.43c1.16,2.37,4.86,4.26,6.69,4.33a33.07,33.07,0,0,0,6.18-.67c3.28-.52,5.05,1.75,7.11,4.38a16.72,16.72,0,0,0,5.11,4.1,44.7,44.7,0,0,0,12.63,5.08c1.81.49,3.24,2.35,5.25,3.73,0,0-2.69,1-8.78.85-7.23-.23-6.4,5.83-5.18,6,.52,0,3.33.14,3.84.19a79,79,0,0,0,11.07.06c1.55-.22,2.76-1.45,4.43-2.8,0,0,0,0,0,0a16,16,0,0,1-3.55-3.33l2.19,1.38,1.12.64c.37.21,1.54.79,1.59.88.6.32,1.2.65,1.82.93l1.16.56,1.17.51a42.61,42.61,0,0,0,4.78,1.71c.81.23,1.63.44,2.44.59q.42.09.84.15h0c1.79-.47,2.09-5.85-5.7-7.85a8.74,8.74,0,0,1-1.41-.56l-.88-.44h0C50.47,61,44,54.1,44,54.1h0c-1.72-1.77-2.56-3.94-.79-5.67h0c4.43-2.91,6.72,2.37,6.92,2.86t0,0c.26-.49,3.36-6.2,7-2.7,1.78,1.71,1.15,4-.93,5.66l-4.82,3.46a24.42,24.42,0,0,0,3.62,3,30.42,30.42,0,0,0,4.63,2.57s0,0,0,0A25.93,25.93,0,0,0,62,61.49c4.82-4.77,8.93-4.87,12.13-6.65,6.53-3.64,8.45-7.3,9.24-11a.65.65,0,0,0-1-.7c-6.8,3.83-14.73,3-14.82,2.59S74.21,43.9,75,43.59c.41-.15.81-.29,1.21-.45l1.18-.49a45.85,45.85,0,0,0,4.55-2.26c.72-.43,1.43-.87,2.11-1.35.38-.26.74-.54,1.1-.82l0-.19a5.07,5.07,0,0,0-2.59-2.31h0a44.59,44.59,0,0,1-17.51,5.85c-1.54.09-.82,1.83-2,2-1.3,0-.76-2-1.63-2a70.15,70.15,0,0,1-11.52-.94,1.51,1.51,0,0,0-1.75,1.06s-.22,1.06-.9.79c-2.27-.9.18-2.38-3.24-3a28.82,28.82,0,0,1-7.9-2.67c-.76-.38-3-2.24-3.6-2.58l-1.16-.72a.89.89,0,0,0-1.1.13,21,21,0,0,1-1.88,1.6,1.19,1.19,0,0,0-.31.36h0l.25.34.28.34c.19.23.37.46.57.67l.6.66.63.63c.21.22.43.42.66.62l.66.62c.46.38.92.78,1.39,1.16s3.06,1.88,2.91,2.2S24.71,39.72,23.74,31.15a1.31,1.31,0,0,1,0-.35l0,0a48.68,48.68,0,0,0,11.06-3.53h0c1-.69,2-1.43,3-2.21A38.79,38.79,0,0,0,43,19.89a38.67,38.67,0,0,0,4.44-6.52v0a18.87,18.87,0,0,0,.43-2.53A2,2,0,0,0,47,9a2.12,2.12,0,0,0-1.84-.17C28.82,14.6,13.05,29.89,10.29,32.65c0,0-4.78,5.53-6.4,7.81A2.76,2.76,0,0,0,3.72,43.43Zm8.65-6a4.84,4.84,0,0,1,.76-2.33,1.85,1.85,0,0,1,.59-.59h0l.09-.06a2,2,0,0,1,3,1.88,2.1,2.1,0,0,1-2.18,1.89l-1.58,0A.71.71,0,0,1,12.37,37.4Z" transform="translate(-3.37 -4.77)"/>
  </g>
</svg>
