<?xml version="1.0" encoding="UTF-8"?> <svg xmlns="http://www.w3.org/2000/svg" id="Layer_2" viewBox="0 0 347.32 71.91"><defs><style>.cls-1{fill:#a7c38b;}.cls-2{fill:#bbd334;}.cls-3{fill:#dbe026;}</style></defs><g id="Layer_1-2"><g id="Group_335"><path id="Path_2495" class="cls-3" d="M51.34,49.65V23.33h11.4v25.97c0,8.14,3.05,12.54,10.62,12.54s10.62-4.4,10.62-12.54V23.34h11.4v26.32c0,13.89-8.35,22.25-22.47,22.25s-21.57-8.35-21.57-22.25"></path><path id="Path_2496" class="cls-2" d="M95.73,71.7h-11.76V23.25h11.41l.35,48.45Z"></path><path id="Path_2497" class="cls-3" d="M155.71,23.39h11.4v48.45h-11.06l-.34-48.45Z"></path><path id="Path_2498" class="cls-2" d="M199.76,45.58v26.32h-11.4v-25.97c0-8.14-3.05-12.54-10.62-12.54s-10.62,4.4-10.62,12.54v25.97h-11.4v-26.32c0-13.89,8.36-22.25,22.47-22.25s21.57,8.35,21.57,22.25"></path><path id="Path_2499" class="cls-3" d="M232.38,45.58v26.32h-11.4v-25.97c0-8.14-3.05-12.54-10.62-12.54s-10.63,4.4-10.63,12.54v25.97h-11.4v-26.32c0-13.89,8.35-22.25,22.47-22.25s21.57,8.35,21.57,22.25"></path><path id="Path_2500" class="cls-2" d="M275.67,30.72h0c-2.68-4.39-8.41-7.17-14.41-7.17-13.39-.09-23.9,8.18-23.9,23.99s10.04,24.45,23.61,24.36c5.01-.09,11.96-2.61,14.69-7.79h5.88V30.66l-5.87,.06Zm0,16.86c0,6.95-4.46,13.9-13.39,13.9-7.53,0-13.57-5.21-13.57-13.95s6.04-13.84,13.57-13.84c8.93,0,13.39,6.95,13.39,13.9h0Z"></path><path id="Path_2501" class="cls-3" d="M287.42,71.9l-.34-48.45h-11.41v48.45h11.76Z"></path><path id="Path_2502" class="cls-3" d="M294.45,23.45h11.71v48.45h-11.37l-.34-48.45Z"></path><path id="Path_2503" class="cls-1" d="M338.81,45.58v26.32h-11.4v-25.97c0-8.14-3.05-12.54-10.62-12.54s-10.62,4.4-10.62,12.54v25.97h-11.4v-26.32c0-13.89,8.35-22.25,22.47-22.25s21.57,8.35,21.57,22.25"></path><path id="Path_2504" class="cls-2" d="M44.04,45.58v26.32h-11.4v-25.97c0-8.14-3.05-12.54-10.62-12.54s-10.63,4.4-10.63,12.54v25.97H0v-26.32c0-13.89,8.35-22.25,22.47-22.25s21.57,8.35,21.57,22.25"></path><rect id="Rectangle_909" class="cls-3" width="11.4" height="71.89"></rect><path id="Path_2505" class="cls-1" d="M127.28,62.3c4.97,.11,9.79-1.71,13.44-5.08l6.66,7.01c-4.41,4.4-10.5,7.68-19.99,7.68-16.26,0-26.77-10.5-26.77-24.73s11.07-24.73,25.3-24.73c16.15,0,25.3,11.97,24.51,28.57h-38.17c1.36,6.89,6.33,11.3,15.02,11.3m11.65-19.2c-1.02-6.44-4.97-11.18-12.88-11.18-7.34,0-12.42,4.07-13.78,11.18h26.65Z"></path><path id="Path_2506" class="cls-2" d="M138.93,43.1h-26.64c-.68,2.59-.68,5.31,0,7.9h26.94c.21-2.64,.11-5.29-.3-7.9"></path><path id="Path_2522" class="cls-1" d="M338.68,23.98h-1.82v-.65h4.43v.65h-1.84v3.9h-.77v-3.9Zm3.48-.65h.72l1.87,2.39,1.88-2.39h.69v4.55h-.76v-3.28l-1.76,2.14h-.15l-1.72-2.21v3.35h-.77v-4.55Z"></path></g></g></svg> 