<?xml version="1.0" encoding="UTF-8" standalone="no"?>
<!-- Generator: Adobe Illustrator 26.0.3, SVG Export Plug-In . SVG Version: 6.00 Build 0)  -->

<svg
   version="1.0"
   id="katman_1"
   x="0px"
   y="0px"
   viewBox="0 0 357.20313 357.20312"
   xml:space="preserve"
   sodipodi:docname="alpha_romeo.svg"
   width="357.20312"
   height="357.20312"
   xmlns:inkscape="http://www.inkscape.org/namespaces/inkscape"
   xmlns:sodipodi="http://sodipodi.sourceforge.net/DTD/sodipodi-0.dtd"
   xmlns="http://www.w3.org/2000/svg"
   xmlns:svg="http://www.w3.org/2000/svg"><defs
   id="defs1" /><sodipodi:namedview
   id="namedview1"
   pagecolor="#ffffff"
   bordercolor="#000000"
   borderopacity="0.25"
   inkscape:showpageshadow="2"
   inkscape:pageopacity="0.0"
   inkscape:pagecheckerboard="0"
   inkscape:deskcolor="#d1d1d1" />&#10;&#10;<path
   d="m 55.703747,82.801562 17.9,17.100001 5.4,-5.7 -6.8,-6.4 11.1,-12.1 -4.3,-4.3 -11.1,12.1 -5,-5 16.1,-17.1 -4.3,-4.300001 -22.2,24 c 1.1,0.7 2.2,1 3.2,1.7 z m 39.3,-36 v 0 l 0.4,28.600001 6.800003,-3.9 v -5.7 l 16.1,-9.3 4.6,3.2 6.8,-3.9 -26.8,-17.1 -9.600003,5.399999 c 1,0.5 1.7,1.600001 1.7,2.7 z m 17.500003,6.4 -10.4,6.1 -0.4,-13.2 z m 50.4,-5 h 7.5 v -7.9 h 12.9 l 5.7,7.9 h 8.6 l -6.4,-8.6 0.7,-0.4 c 3.2,-1.8 5.4,-5.4 5,-9.3 0.4,-5.7 -3.9,-10.4 -9.3,-10.7 -0.4,0 -0.7,0 -1.4,0 h -23.2 -1.5 c 0.7,1.1 1.1,2.1 1.4,3.2 z m 22.2,-22.5 v 0 c 2.1,0 3.9,1.8 3.9,3.9 v 0.4 c 0.4,2.1 -1.4,3.9 -3.6,4.3 -0.4,0 -0.4,0 -0.7,0 h -14.6 v -8.6 z m 151.8,131.399998 c -1.8,-10 -8.2,-17.1 -15.7,-17.1 -0.7,0 -1.4,0 -2.1,0.4 -8.6,1.4 -13.2,10.7 -11.4,21.8 1.8,10.4 7.9,17.1 15.7,17.1 0.7,0 1.4,0 2.1,-0.4 8.5,-1.4 13.2,-10.7 11.4,-21.8 z m -12.9,14 c -0.4,0 -1.1,0 -1.4,0 -4.3,0 -7.9,-3.9 -8.9,-10 -1.1,-7.1 1.4,-12.1 6.4,-12.9 0.4,0 1.1,0 1.4,0 4.3,0 7.9,3.9 8.9,10 1.5,6.8 -1,12.2 -6.4,12.9 z m -53.9,-111.099998 -2.9,21.8 0.4,0.4 20.7,-5 -11.4,15.4 5.7,5.4 17.5,-22.9 -6.4,-6.1 -18.2,3.9 2.1,-18.9 -6.8,-6.4 v 0 l -0.7,-0.7 c 0,1.4 -0.4,2.5 -1.4,3.6 l -17.9,17.5 5.7,5.4 z m -45.8,-2.5 c 2.9,1.1 5.7,1.4 8.6,1.4 v 0 c 6.4,0.4 12.1,-3.2 14.6,-9.3 1.4,-4.3 0.7,-8.6 -1.8,-12.5 -2.9,-3.9 -6.8,-6.8 -11.4,-8.2 -2.9,-1.1 -5.7,-1.4 -8.6,-1.4 -6.4,-0.7 -12.5,3.2 -14.6,9.3 -2.8,8.2 2.5,16.7 13.2,20.7 z m -6,-18.2 c 1.1,-3.6 4.6,-5.7 8.2,-5.4 1.8,0 3.6,0.4 5.4,1.1 6.4,2.5 9.6,7.1 7.9,12.1 -1.1,3.600001 -4.6,5.7 -8.2,5.4 -1.8,0 -3.6,-0.4 -5.4,-1.1 -6.5,-2.5 -9.7,-7.1 -7.9,-12.1 z m -39.7,-39.2999995 c -98.600003,0 -178.60000283,79.9999995 -178.60000283,178.5999975 0,98.6 79.99999983,178.6 178.60000283,178.6 98.6,0 178.6,-80 178.6,-178.6 0,-98.599998 -80,-178.5999975 -178.6,-178.5999975 z m 0,349.9999975 c -94.700003,0 -171.5000028,-76.8 -171.5000028,-171.5 0,-94.699998 76.8999998,-171.3999975 171.5000028,-171.3999975 94.6,0 171.5,76.7999995 171.5,171.4999975 0,94.7 -76.8,171.4 -171.5,171.4 z m -158.200003,-188.9 c 0.4,-0.4 1.1,-0.4 1.4,-0.4 0.7,0 1.4,0 1.8,0.4 v 0 l 22.9,17.5 1.1,-7.5 -4.6,-3.6 2.9,-18.2 5.4,-1.8 1.1,-7.5 -30,10 z m 18.9,-9.7 -1.8,11.8 -10.4,-7.9 z m 140.400003,-31.4 0.4,-0.4 v 0 l -0.4,-0.4 c -5,-3.6 -8.6,-8.9 -10.7,-14.6 -1.1,-2.5 -2.5,-4.999998 -4.3,-7.099998 -1.4,-1.8 -3.9,-2.9 -6.1,-2.9 -1.1,0 -2.5,0 -3.6,0.4 h -0.7 l 0.4,0.7 c 0.7,1.8 2.1,3.2 3.9,3.9 h 0.4 1.1 c 2.1,1.399998 3.2,10.699998 3.2,15.399998 0,0.7 -0.4,1.1 -1.1,1.1 -0.7,0 -1.8,-0.4 -2.1,-1.1 -1.4,-1.4 -3.2,-2.1 -5,-2.1 -3.6,-0.4 -6.8,2.5 -7.1,6.1 v 0.7 c 0.4,3.6 3.6,6.4 7.1,6.1 1.8,0 3.9,-0.7 5,-2.1 0.7,-0.7 1.4,-1.1 2.1,-1.1 0.7,0 1.1,0.4 1.1,1.1 0,4.6 -1.1,13.9 -3.2,15.4 h -1.4 c -1.8,0.7 -3.2,2.1 -3.9,3.9 l -0.4,0.7 h 0.7 c 1.1,0.4 2.5,0.4 3.6,0.4 2.5,0 4.6,-1.1 6.1,-2.9 2.1,-2.1 3.6,-4.6 4.3,-7.1 2,-5.5 6,-10.5 10.6,-14.1 z m -4.3,-39.299998 c 1.8,0 3.2,-1.4 3.2,-3.2 0,-1.8 -1.4,-3.2 -3.2,-3.2 -1.8,0 -3.2,1.4 -3.2,3.2 v 0 c 0,1.4 1.4,2.8 3.2,3.2 z m -1.1,7.9 h 28.2 c 1.1,0 2.1,-1.1 2.1,-2.1 0,-1.1 -1.1,-2.1 -2.1,-2.1 h -28.2 c -1.1,0 -2.1,1.1 -2.1,2.1 0,1.3 1.1,2.1 2.1,2.1 z m 4.3,-30.1 c -66.1,0 -120.000003,53.899998 -119.700003,119.999998 0.4,66.1 53.900003,120 120.000003,119.7 66.1,0 119.7,-53.6 119.7,-120 0,-65.7 -53.5,-119.699998 -120,-119.699998 z m -75.7,204.699998 c -20.700003,-18.6 -33.900003,-43.6 -37.200003,-71.1 h 37.200003 z m 0,-98.9 H 65.703747 c 3.6,-27.1 16.4,-52.2 37.200003,-70.399998 z m 112.5,122.2 c -27.5,9.3 -57.9,7.9 -84.3,-4.6 v -89.7 h 32.1 c -3.2,-9.3 -2.1,-19.3 2.1,-27.9 h -34.3 V 75.401562 c 32.9,-15 71.1,-13.9 102.5,3.6 v 0 c 3.9,2.5 5,7.5 2.5,11.4 -1.4,2.5 -4.3,3.9 -7.1,3.9 h -14.3 c -2.9,-0.4 -5.4,0.7 -7.5,2.5 -3.9,3.599998 -2.5,7.499998 -10.7,7.499998 h -22.5 c 2.9,5.4 6.8,10 11.8,13.2 h 27.5 c 1.1,0 2.1,0.7 2.5,1.8 0,0.4 0,0.7 0.4,1.1 v 0.4 c -0.4,1.4 -1.4,2.1 -2.5,2.1 h -27.9 c -5.7,3.2 -9.6,8.2 -11.8,14.3 h 50.4 c 3.2,-0.4 6.1,2.1 6.4,5.4 0.4,3.2 -2.1,6.1 -5.4,6.4 -0.4,0 -0.7,0 -1.1,0 h -25.4 c -17.5,0 -31.8,14.3 -31.8,31.8 0,17.5 14.3,31.8 31.8,31.8 h 31.8 c 1.4,0 2.5,1.1 2.5,2.5 0,1.4 -1.1,2.5 -2.5,2.5 v 0 h -32.5 c -12.9,0 -23.2,10.4 -23.2,23.2 0,12.9 10.4,23.2 23.2,23.2 h 12.5 c 6.4,0 11.4,5 11.4,11.4 -0.2,4.6 -2.7,8.9 -6.6,11.1 z m 48.6,-183.7 v 0 c 41.8,47.2 37.5,119 -9.6,160.7 -8.6,7.5 -18.2,13.9 -28.9,18.6 l -0.4,0.4 v 0 h 0.4 c 9.6,-4.6 13.6,-16.1 8.9,-25.4 -3.2,-6.8 -10,-11.1 -17.1,-11.1 h -20 c -1.4,0 -2.5,-1.1 -2.5,-2.5 0,-1.4 1.1,-2.5 2.5,-2.5 h 33.9 c 16.1,-0.7 28.6,-13.9 27.9,-30 -0.4,-15.4 -12.9,-27.5 -27.9,-27.9 h -32.9 c -1.4,0 -2.5,-1.1 -2.5,-2.5 0,-1.4 1.1,-2.5 2.5,-2.5 h 25 c 26.4,0.4 48.2,-21.1 48.2,-47.5 0,-9.6 -2.9,-18.9 -8.2,-27.1 v 0 0 c 0,-0.3 0.3,-0.3 0.7,-0.7 -0.4,0 -0.4,0 0,0 0,0.4 -0.4,0 0,0 z m -75.4,-22.499998 c 1.8,0 3.2,-1.4 3.2,-3.2 0,-1.8 -1.4,-3.2 -3.2,-3.2 -1.8,0 -3.2,1.4 -3.2,3.2 v 0 c 0,1.8 1.4,3.2 3.2,3.2 z m 108.6,29.999998 4.6,-2.5 7.5,14.6 5.4,-2.9 -7.5,-14.6 4.3,-2.5 11.1,21.1 5.4,-2.9 -15,-28.899997 c -0.4,1.1 -1.4,2.1 -2.5,2.899999 l -21.8,11.799998 15,28.9 5,-2.9 z m -234.300003,-6.4 -9.6,19.3 -20,-10.4 -4.3,8.2 c 0.4,0 1.1,0 1.4,0 0.7,0 1.4,0 2.1,0.4 l 22.1,11.4 13.2,-26.1 z M 201.50375,80.301562 c 1.8,0 3.2,-1.4 3.2,-3.2 0,-1.8 -1.4,-3.2 -3.2,-3.2 v 0 c -1.8,0 -3.2,1.4 -3.2,3.2 0,1.8 1.4,3.2 3.2,3.2 z"
   id="path1-8"
   style="fill:#ffffff" /></svg>
