<svg viewBox="0 0 512 512" xml:space="preserve" xmlns="http://www.w3.org/2000/svg"><g fill="#ffffff" class="fill-37404d"><path d="M466.488 125.414h-82.866l-48.174-48.291c-.058-.058-.107-.097-.156-.156l-.088-.078c-7.239-7.161-17.179-11.584-28.166-11.584H206.853c-11.642 0-22.022 5.029-29.351 12.954l-.039-.117-47.176 47.273H45.719c-22.13 0-40.073 17.944-40.073 40.073v240.439c0 22.13 17.943 40.073 40.073 40.073h420.769c22.14 0 40.083-17.943 40.083-40.073V165.488c0-22.13-17.943-40.074-40.083-40.074zm20.046 280.513c0 11.036-9.001 20.037-20.047 20.037H45.719c-11.045 0-20.037-9-20.037-20.037V165.488c0-11.055 8.991-20.037 20.037-20.037h92.874l5.88-5.889 24.253-24.302.49 1.468 23.001-24.87c3.893-4.207 9.089-6.516 14.636-6.516h100.183c5.293 0 10.302 2.055 14.225 5.929l48.174 48.292 5.87 5.889h91.182c11.045 0 20.047 8.981 20.047 20.037v240.438z"></path><path d="M256.103 145.451c-71.928 0-130.238 58.29-130.238 130.219s58.31 130.257 130.238 130.257 130.238-58.329 130.238-130.257-58.309-130.219-130.238-130.219zm0 240.439c-60.765 0-110.201-49.445-110.201-110.22 0-60.756 49.436-110.182 110.201-110.182s110.201 49.426 110.201 110.182c.001 60.775-49.436 110.22-110.201 110.22z"></path><path d="M256.103 185.524c-49.808 0-90.165 40.348-90.165 90.146s40.357 90.184 90.165 90.184 90.165-40.386 90.165-90.184-40.357-90.146-90.165-90.146zm0 160.293c-38.665 0-70.128-31.482-70.128-70.147s31.463-70.109 70.128-70.109 70.128 31.444 70.128 70.109-31.463 70.147-70.128 70.147z"></path></g></svg>