<svg viewBox="0 0 50 50" xml:space="preserve" xmlns="http://www.w3.org/2000/svg">
  <path d="M29-.459c-3.223 0-6.559.537-9.252 1.582-1.346.522-2.539 1.17-3.48 2.023-.942.854-1.656 1.994-1.725 3.317.004.103.019.204.044.304a1.458 1.458 0 0 0-.046.233v13.406c0 .968.926 1.667 1.857 1.402 0 0 4.71-1.35 12.602-1.35s12.602 1.35 12.602 1.35a1.459 1.459 0 0 0 1.857-1.402V7c0-.079-.007-.157-.02-.234.016-.1.023-.202.019-.303-.07-1.323-.783-2.463-1.725-3.317-.942-.853-2.134-1.5-3.48-2.023C35.56.078 32.223-.46 29-.46zm0 2.918c2.887 0 5.962.518 8.197 1.385 1.118.433 2.018.957 2.576 1.462.09.081.166.159.237.235H17.99a3.96 3.96 0 0 1 .236-.235c.558-.505 1.459-1.029 2.576-1.462 2.235-.867 5.31-1.385 8.198-1.385zm-11.541 6h23.082v10.168C38.67 18.212 35.115 17.54 29 17.54s-9.67.671-11.541 1.086zM28.66 20.508l-.13.315c-.968 2.306-1.831 5.056-2.31 7.681-.475 2.613-.585 5.092.038 6.943.035.147.088.287.16.41v.003h.002c.35.597.618 1.244.8 1.924.123.461.458.835.899 1.011l1.703.68a.302.302 0 0 1 .174.4v.002l-2.737 6.852a.32.32 0 0 1-.4.176h-.002l-1.717-.686a1.519 1.519 0 0 0-1.347.113 7.718 7.718 0 0 1-6.887.604c-2.283-.91-3.947-2.792-4.588-5.184a1.509 1.509 0 0 0-.898-1.013l-1.735-.692a.304.304 0 0 1-.172-.398l2.74-6.858a.294.294 0 0 1 .286-.193c.038 0 .072.006.117.023l1.738.694c.443.177.942.132 1.348-.114V33.2a7.771 7.771 0 0 1 1.898-.843 1.5 1.5 0 0 0 .514-.27c3.45-2.232 6.043-7.124 7.592-10.782l.32-.755-.818.046c-.779.044-1.516.098-2.207.16l-.313.028-.115.291c-.052.132-.103.256-.143.35-.616 1.412-2.938 6.177-5.953 8.127-.561.18-1.11.42-1.646.699l-1.094-.438a3.327 3.327 0 0 0-4.328 1.853l-2.74 6.862a3.34 3.34 0 0 0 1.859 4.324l1.092.436c1.021 2.947 3.21 5.288 6.127 6.453 1.275.512 2.617.77 3.98.77 1.692 0 3.36-.444 4.887-1.23l1.082.43v-.001a3.329 3.329 0 0 0 4.328-1.855L32.801 41a3.343 3.343 0 0 0-1.854-4.33h-.002l-1.062-.426a10.855 10.855 0 0 0-.754-1.728c-.409-1.173-.343-3.144.064-5.313.41-2.182 1.137-4.572 1.922-6.653.067-.18.3-.785.518-1.32l.275-.68-.733-.023a130.73 130.73 0 0 0-2.173-.02zM17.172 46.264l.002.002z" color="#fff" fill="#fff"/>
</svg>