<?xml version="1.0" encoding="utf-8"?>
<svg viewBox="0 0 256 256" width="256" height="256" xmlns="http://www.w3.org/2000/svg">
  <path style="color: rgb(0, 0, 0); stroke-linecap: round; stroke-linejoin: round; fill: rgb(255, 255, 255);" d="m 152.76172,21.208984 c -43.17308,0 -78.312501,35.141374 -78.312501,78.314453 0,9.713943 1.95063,18.929593 5.1875,27.458983 l -52.9375,52.9375 a 7.1200619,7.1200619 0 0 0 -2.085938,5.03516 v 21.35742 c 0,8.46283 4.649378,15.88889 11.19336,20.79687 6.543981,4.90799 15.100031,7.68165 24.404296,7.68165 H 88.6875 a 7.1200619,7.1200619 0 0 0 7.121094,-7.11915 V 206.3125 h 21.357426 a 7.1200619,7.1200619 0 0 0 7.11914,-7.11914 v -21.35742 h 28.47656 c 43.17307,0 78.31445,-35.13941 78.31445,-78.312503 0,-43.173077 -35.14137,-78.314453 -78.31445,-78.314453 z m 0,14.240235 c 35.4815,0 64.07422,28.592713 64.07422,64.074218 0,35.481523 -28.59271,64.074223 -64.07422,64.074223 h -35.5957 a 7.1200619,7.1200619 0 0 0 -7.11914,7.11914 v 21.35742 H 88.6875 a 7.1200619,7.1200619 0 0 0 -7.119141,7.11914 v 21.35742 H 60.210937 c -6.415258,0 -12.096487,-2.01035 -15.861328,-4.83398 -3.76484,-2.82363 -5.496093,-6.07748 -5.496093,-9.4043 v -18.4082 l 54.142578,-54.14453 a 7.1200619,7.1200619 0 0 0 1.455078,-7.96289 C 90.800207,117.708 88.6875,108.86983 88.6875,99.523437 c 0,-35.481504 28.59271,-64.074218 64.07422,-64.074218 z m 0,28.447265 c -19.57584,0 -35.5957,16.044657 -35.5957,35.626953 0,19.571553 16.02417,35.595703 35.5957,35.595703 19.58229,0 35.59765,-16.02845 35.59765,-35.595703 0,-19.588754 -16.01536,-35.626953 -35.59765,-35.626953 z m 0,14.240235 c 11.88524,0 21.35937,9.479476 21.35937,21.386718 0,11.871833 -9.47413,21.357423 -21.35937,21.357423 -11.86752,0 -21.35742,-9.48989 -21.35742,-21.357423 0,-11.88524 9.4942,-21.386718 21.35742,-21.386718 z" id="path1" transform="matrix(1, 0, 0, 1, 1.7763568394002505e-15, 0)"/>
</svg>