<?xml version="1.0" encoding="UTF-8" standalone="no"?>
<!-- Generator: Adobe Illustrator 26.0.3, SVG Export Plug-In . SVG Version: 6.00 Build 0)  -->

<svg
   version="1.0"
   id="katman_1"
   x="0px"
   y="0px"
   viewBox="0 0 1193.8125 852.53125"
   xml:space="preserve"
   sodipodi:docname="alpha_romeo.svg"
   width="1193.8125"
   height="852.53125"
   xmlns:inkscape="http://www.inkscape.org/namespaces/inkscape"
   xmlns:sodipodi="http://sodipodi.sourceforge.net/DTD/sodipodi-0.dtd"
   xmlns="http://www.w3.org/2000/svg"
   xmlns:svg="http://www.w3.org/2000/svg"><defs
   id="defs1" /><sodipodi:namedview
   id="namedview1"
   pagecolor="#ffffff"
   bordercolor="#000000"
   borderopacity="0.25"
   inkscape:showpageshadow="2"
   inkscape:pageopacity="0.0"
   inkscape:pagecheckerboard="0"
   inkscape:deskcolor="#d1d1d1" />&#10;&#10;<path
   style="fill:#ffffff"
   d="m 21.594988,851.39275 c -11.8200001,-2.817 -20.5100001,-12.736 -21.49000013,-24.527 -0.33,-3.977 0.14,-9.477 1.05000003,-12.221 1.99,-6.033 9.3300001,-14.455 14.3400001,-16.456 2.01,-0.803 56.75,-14.706 121.650002,-30.896 112.02,-27.944 118.3,-29.361 124,-27.952 9.46,2.339 15.29,6.938 19.37,15.283 4.23,8.643 4.15,17.012 -0.25,25.487 -6.06,11.669 -0.71,9.934 -131.67,42.681 -65.720002,16.432 -120.230002,29.816 -121.130002,29.741 -0.91,-0.07 -3.55,-0.588 -5.87,-1.14 z m 453.340002,-0.592 c -9.27,-2.973 -12.87,-6.626 -21.39,-21.686 -64.78,-114.552 -102.37,-234.107 -111.03,-353.112 -1.76,-24.173 -1.75,-77.85 0,-100.734 9.42,-122.071 46.19,-238.308 112.8,-356.599 l 10.51,-18.667 h 170.66 170.65 l 20.67,3.147 c 93.22,14.197 174.73001,54.982 240.10001,120.142 55.06,54.882 93.73,122.409 112.61,196.671 25.22,99.217 14.35,203.19 -30.79,294.43 -21.79,44.045 -44.85,75.932 -81.23,112.307 -35.95,35.954 -68.02,59.247 -110.90001,80.554 -45.47,22.594 -87.54,35.139 -141.79,42.289 -14.51,1.912 -37.33,2.251 -176,2.617 -130.1,0.344 -160.35,0.09 -164.88,-1.359 z m 345.93,-59.141 c 81.78,-13.306 150.27,-47.693 206.37001,-103.624 21.61,-21.538 32.08,-34.265 48.63,-59.102 30.04,-45.08 48.76,-93.952 57.54,-150.265 2.43,-15.536 2.92,-24.368 2.93,-52.666 0,-37.223 -1.51,-52.256 -8.46,-82.667 -32.35,-141.577 -145.09001,-251.667 -286.73001,-279.99 -36.97,-7.393 -35.64,-7.343 -194.67,-7.343 h -147.33 l -14.27,28 c -110.25,216.36 -116.02,429.229 -17.54,647.079 9.36,20.708 28.51,58.717 31.56,62.645 1.09,1.398 30.08,1.639 152.8,1.27 147.74,-0.444 151.88,-0.526 169.17,-3.337 z M 21.594988,680.72575 c -11.8200001,-2.817 -20.5100001,-12.736 -21.49000013,-24.527 -0.33,-3.977 0.14,-9.476 1.05000003,-12.221 1.99,-6.032 9.3300001,-14.455 14.3400001,-16.456 2.01,-0.802 56.75,-14.705 121.650002,-30.895 112.02,-27.945 118.3,-29.361 124,-27.953 9.46,2.34 15.29,6.938 19.37,15.283 4.23,8.643 4.15,17.012 -0.25,25.488 -6.06,11.668 -0.71,9.934 -131.67,42.68 -65.720002,16.433 -120.230002,29.816 -121.130002,29.741 -0.91,-0.07 -3.55,-0.588 -5.87,-1.14 z m 0,-170.667 c -11.8200001,-2.817 -20.5100001,-12.736 -21.49000013,-24.527 -0.33,-3.977 0.14,-9.476 1.05000003,-12.221 1.99,-6.032 9.3300001,-14.454 14.3400001,-16.456 2.01,-0.802 56.75,-14.705 121.650002,-30.895 112.02,-27.944 118.3,-29.361 124,-27.952 9.46,2.339 15.29,6.937 19.37,15.283 4.23,8.643 4.15,17.011 -0.25,25.487 -6.06,11.669 -0.71,9.934 -131.67,42.68 -65.720002,16.433 -120.230002,29.817 -121.130002,29.742 -0.91,-0.07 -3.55,-0.589 -5.87,-1.141 z m 0,-170.666 c -11.8200001,-2.817 -20.5100001,-12.736 -21.49000013,-24.527 -0.33,-3.977 0.14,-9.477 1.05000003,-12.221 1.99,-6.033 9.3300001,-14.455 14.3400001,-16.456 2.01,-0.803 56.75,-14.706 121.650002,-30.896 112.02,-27.944 118.3,-29.361 124,-27.952 9.46,2.339 15.29,6.938 19.37,15.283 4.23,8.643 4.15,17.012 -0.25,25.487 -6.06,11.669 -0.71,9.934 -131.67,42.681 -65.720002,16.432 -120.230002,29.816 -121.130002,29.741 -0.91,-0.07 -3.55,-0.588 -5.87,-1.14 z m 0,-170.667 c -11.8200001,-2.817 -20.5100001,-12.736 -21.49000013,-24.527 -0.33,-3.977 0.14,-9.476 1.05000003,-12.221 1.99,-6.032 9.3300001,-14.455 14.3400001,-16.456 2.01,-0.802 56.75,-14.705 121.650002,-30.895 112.02,-27.945 118.3,-29.361 124,-27.953 9.46,2.34 15.29,6.938 19.37,15.283 4.23,8.643 4.15,17.012 -0.25,25.488 -6.06,11.668 -0.71,9.934 -131.67,42.68 -65.720002,16.433 -120.230002,29.816 -121.130002,29.741 -0.91,-0.07 -3.55,-0.588 -5.87,-1.14 z"
   id="path2"
   inkscape:export-filename="lights_on.svg"
   inkscape:export-xdpi="96"
   inkscape:export-ydpi="96" /></svg>
