<svg width="125" height="126" viewBox="0 0 125 126" fill="none" xmlns="http://www.w3.org/2000/svg">
<g clip-path="url(#clip0_1259_16129)">
<mask id="mask0_1259_16129" style="mask-type:luminance" maskUnits="userSpaceOnUse" x="0" y="0" width="125" height="126">
<path d="M125 0.733398H0V125.733H125V0.733398Z" fill="white"/>
</mask>
<g mask="url(#mask0_1259_16129)">
<path d="M125 0.733398H0V125.733H125V0.733398Z" fill="#008267"/>
<path d="M18.3195 70.0901L18.6134 69.7963H22.1399L22.4338 70.0901C21.8462 74.2046 18.6134 76.5556 13.9112 76.5556C7.34768 76.6536 3.82104 72.2453 3.82104 65.9757C3.82104 59.8041 7.34768 55.2979 13.9112 55.2979C18.6134 55.2979 21.8462 57.6489 22.4338 61.4695L22.1399 61.7634H18.6134L18.3195 61.4695C17.7317 59.7061 16.2623 58.8245 13.9112 58.8245C9.79675 58.8245 8.03343 61.7634 8.03343 65.8777C8.03343 69.9921 9.79675 72.9311 13.9112 72.9311C16.2623 73.1269 17.7317 72.2453 18.3195 70.0901Z" fill="white"/>
<path d="M38.0115 76.3595H24.7867L24.4928 76.0656V55.9834L24.7867 55.6895H28.3134L28.6072 55.9834V72.5391L28.9011 72.8329H38.0115L38.3055 73.1268V76.0656L38.0115 76.3595Z" fill="white"/>
<path d="M53.5842 76.3604H39.6736L39.3796 76.0666V55.9843L39.6736 55.6904H53.5842L53.8781 55.9843V58.9232L53.5842 59.2171H43.8859L43.494 59.5109V63.6254L43.8859 63.9193H52.9964L53.2903 64.2131V67.1519L52.9964 67.4458H43.8859L43.494 67.7398V72.5399L43.8859 72.8338H53.5842L53.8781 73.1278V76.0666L53.5842 76.3604Z" fill="white"/>
<path d="M65.93 76.0666L65.6361 76.3604H61.7175L61.4236 76.0666L54.9583 58.9232V55.9843L55.252 55.6904H57.8971L58.191 55.9843L63.5789 70.3847H63.8728L69.1626 55.9843L69.4566 55.6904H72.1017L72.3954 55.9843V58.9232L65.93 76.0666Z" fill="white"/>
<path d="M88.0674 76.3604H74.1568L73.863 76.0666V55.9843L74.1568 55.6904H88.0674L88.3613 55.9843V58.9232L88.0674 59.2171H78.2713L77.9774 59.5109V63.6254L78.2713 63.9193H87.3818L87.6757 64.2131V67.1519L87.3818 67.4458H78.2713L77.9774 67.7398V72.5399L78.2713 72.8338H88.0674L88.3613 73.1278V76.0666L88.0674 76.3604Z" fill="white"/>
<path d="M100.995 59.2161H95.4114L95.0195 59.5101V64.2123L95.3134 64.5062H100.897C102.661 64.5062 103.836 63.9183 103.836 61.8611C103.934 59.804 102.759 59.2161 100.995 59.2161ZM103.64 67.7389V68.0327L107.461 73.0288V75.9677L107.167 76.2616H105.404L104.816 75.9677L98.9381 68.3266L98.3503 68.0327H95.4114L95.0195 68.3266V75.9677L94.7258 76.2616H91.1991L90.9052 75.9677V55.9834L91.1991 55.6895H100.995C105.11 55.6895 108.049 57.7467 108.049 61.8611C108.049 65.0938 105.991 67.1511 103.64 67.7389Z" fill="white"/>
<path d="M114.91 62.8413C116.183 62.8413 116.869 62.0577 116.869 60.5882C116.869 59.1188 116.085 58.335 114.91 58.335C113.636 58.335 112.951 59.1188 112.951 60.5882C112.951 62.1556 113.636 62.8413 114.91 62.8413ZM114.91 55.4941C117.849 55.4941 120.102 57.7474 120.102 60.6862C120.102 63.6251 117.849 65.8781 114.91 65.8781C111.971 65.8781 109.718 63.6251 109.718 60.6862C109.718 57.6494 111.873 55.4941 114.91 55.4941Z" fill="white"/>
<path d="M20.3736 84.2952H11.1651L10.8713 84.5892V88.9974L11.1651 89.2914H19.7859L20.0796 89.5851V92.6221L19.7859 92.9159H11.1651L10.8713 93.2098V101.145L10.5774 101.439H7.05072L6.75684 101.145V81.0625L7.05072 80.7686H20.3736L20.6675 81.0625V84.0013L20.3736 84.2952Z" fill="white"/>
<path d="M28.9997 86.0586H28.7058L26.0607 93.1118L26.3546 93.4057H31.3507L31.6447 93.1118L28.9997 86.0586ZM37.6203 101.439H34.9754L34.6815 101.145L33.2121 97.3241L32.6242 97.0304H25.2771L24.6893 97.3241L23.2198 101.145L22.9259 101.439H20.281L19.9871 101.145V98.2059L26.6485 81.0625L26.9425 80.7686H30.7629L31.0568 81.0625L37.8163 98.2059V101.145L37.6203 101.439Z" fill="white"/>
<path d="M49.2725 84.2952H43.6885L43.3946 84.5892V89.2914L43.6885 89.5851H49.2725C51.0358 89.5851 52.2114 88.9974 52.2114 86.9402C52.2114 84.8831 51.0358 84.2952 49.2725 84.2952ZM51.9174 92.9159V93.2098L55.738 98.2059V101.145L55.4441 101.439H53.6808L53.0929 101.145L47.2152 93.5037L46.6274 93.2098H43.6885L43.3946 93.5037V101.145L43.1009 101.439H39.5742L39.2803 101.145V81.0625L39.5742 80.7686H49.3705C53.4848 80.7686 56.4237 82.8258 56.4237 86.9402C56.3257 90.1729 54.2686 92.3282 51.9174 92.9159Z" fill="white"/>
<path d="M80.327 101.438H76.8004L76.5064 101.145V89.5851H76.2127L71.5105 101.145L71.2166 101.438H67.8858L67.5919 101.145L62.8897 89.5851H62.5958V101.145L62.3019 101.438H58.7754L58.4814 101.145V81.0623L58.7754 80.7686H63.1836L63.4776 81.0623L69.4532 95.5608H69.7472L75.6249 81.0623L75.9188 80.7686H80.327L80.621 81.0623V101.145L80.327 101.438Z" fill="white"/>
<path d="M87.6799 89.879H84.1532L83.8593 89.5851V81.0625L84.1532 80.7686H87.6799L87.9738 81.0625V89.5851L87.6799 89.879Z" fill="white"/>
</g>
</g>
<defs>
<clipPath id="clip0_1259_16129">
<rect width="125" height="125" fill="white" transform="translate(0 0.733398)"/>
</clipPath>
</defs>
</svg>
