<svg width="2785" height="112" viewBox="0 0 2785 112" fill="none" xmlns="http://www.w3.org/2000/svg">
<g clip-path="url(#clip0_1458_23406)">
<g opacity="0.5">
<path d="M20.3462 40V46" stroke="white"/>
<path d="M34.6396 43V46" stroke="white"/>
<path d="M48.9326 43V46" stroke="white"/>
<path d="M63.2261 43V46" stroke="white"/>
<path d="M77.519 40V46" stroke="white"/>
<path d="M91.8125 43V46" stroke="white"/>
<path d="M106.106 43V46" stroke="white"/>
<path d="M120.399 43V46" stroke="white"/>
<path d="M134.692 40V46" stroke="white"/>
</g>
<path d="M134.692 36V46" stroke="white" stroke-opacity="0.75"/>
<g opacity="0.5">
<path d="M134.692 40V46" stroke="white"/>
<path d="M148.986 43V46" stroke="white"/>
<path d="M163.279 43V46" stroke="white"/>
<path d="M177.572 43V46" stroke="white"/>
<path d="M191.865 40V46" stroke="white"/>
<path d="M206.159 43V46" stroke="white"/>
<path d="M220.452 43V46" stroke="white"/>
<path d="M234.745 43V46" stroke="white"/>
<path d="M249.039 40V46" stroke="white"/>
<path d="M263.332 43V46" stroke="white"/>
<path d="M277.625 43V46" stroke="white"/>
<path d="M291.918 43V46" stroke="white"/>
<path d="M306.211 40V46" stroke="white"/>
<path d="M320.505 43V46" stroke="white"/>
<path d="M334.798 43V46" stroke="white"/>
<path d="M349.091 43V46" stroke="white"/>
<path d="M363.385 40V46" stroke="white"/>
</g>
<path d="M363.385 36V46" stroke="white" stroke-opacity="0.75"/>
<g opacity="0.5">
<path d="M363.385 40V46" stroke="white"/>
<path d="M377.678 43V46" stroke="white"/>
<path d="M391.971 43V46" stroke="white"/>
<path d="M406.265 43V46" stroke="white"/>
<path d="M420.558 40V46" stroke="white"/>
<path d="M434.851 43V46" stroke="white"/>
<path d="M449.145 43V46" stroke="white"/>
<path d="M463.438 43V46" stroke="white"/>
<path d="M477.731 40V46" stroke="white"/>
<path d="M492.024 43V46" stroke="white"/>
<path d="M506.317 43V46" stroke="white"/>
<path d="M520.611 43V46" stroke="white"/>
<path d="M534.904 40V46" stroke="white"/>
<path d="M549.197 43V46" stroke="white"/>
<path d="M563.491 43V46" stroke="white"/>
<path d="M577.784 43V46" stroke="white"/>
<path d="M592.077 40V46" stroke="white"/>
</g>
<path d="M592.077 36V46" stroke="white" stroke-opacity="0.75"/>
<g opacity="0.5">
<path d="M592.077 40V46" stroke="white"/>
<path d="M606.371 43V46" stroke="white"/>
<path d="M620.664 43V46" stroke="white"/>
<path d="M634.957 43V46" stroke="white"/>
<path d="M649.25 40V46" stroke="white"/>
<path d="M663.543 43V46" stroke="white"/>
<path d="M677.837 43V46" stroke="white"/>
<path d="M692.13 43V46" stroke="white"/>
<path d="M706.423 40V46" stroke="white"/>
<path d="M720.717 43V46" stroke="white"/>
<path d="M735.01 43V46" stroke="white"/>
<path d="M749.303 43V46" stroke="white"/>
<path d="M763.596 40V46" stroke="white"/>
<path d="M777.89 43V46" stroke="white"/>
<path d="M792.183 43V46" stroke="white"/>
<path d="M806.476 43V46" stroke="white"/>
<path d="M820.77 40V46" stroke="white"/>
</g>
<path d="M820.769 36V46" stroke="white" stroke-opacity="0.75"/>
<g opacity="0.5">
<path d="M820.769 40V46" stroke="white"/>
<path d="M835.062 43V46" stroke="white"/>
<path d="M849.355 43V46" stroke="white"/>
<path d="M863.649 43V46" stroke="white"/>
<path d="M877.942 40V46" stroke="white"/>
<path d="M892.235 43V46" stroke="white"/>
<path d="M906.529 43V46" stroke="white"/>
<path d="M920.822 43V46" stroke="white"/>
<path d="M935.115 40V46" stroke="white"/>
<path d="M949.408 43V46" stroke="white"/>
<path d="M963.702 43V46" stroke="white"/>
<path d="M977.995 43V46" stroke="white"/>
<path d="M992.288 40V46" stroke="white"/>
<path d="M1006.58 43V46" stroke="white"/>
<path d="M1020.87 43V46" stroke="white"/>
<path d="M1035.17 43V46" stroke="white"/>
<path d="M1049.46 40V46" stroke="white"/>
</g>
<path d="M1049.46 36V46" stroke="white" stroke-opacity="0.75"/>
<g opacity="0.5">
<path d="M1049.46 40V46" stroke="white"/>
<path d="M1063.75 43V46" stroke="white"/>
<path d="M1078.05 43V46" stroke="white"/>
<path d="M1092.34 43V46" stroke="white"/>
<path d="M1106.63 40V46" stroke="white"/>
<path d="M1120.93 43V46" stroke="white"/>
<path d="M1135.22 43V46" stroke="white"/>
<path d="M1149.51 43V46" stroke="white"/>
<path d="M1163.81 40V46" stroke="white"/>
<path d="M1178.1 43V46" stroke="white"/>
<path d="M1192.39 43V46" stroke="white"/>
<path d="M1206.69 43V46" stroke="white"/>
<path d="M1220.98 40V46" stroke="white"/>
<path d="M1235.27 43V46" stroke="white"/>
<path d="M1249.57 43V46" stroke="white"/>
<path d="M1263.86 43V46" stroke="white"/>
<path d="M1278.15 40V46" stroke="white"/>
</g>
<path d="M1278.15 36V46" stroke="white" stroke-opacity="0.75"/>
<g opacity="0.5">
<path d="M1278.15 40V46" stroke="white"/>
<path d="M1292.45 43V46" stroke="white"/>
<path d="M1306.74 43V46" stroke="white"/>
<path d="M1321.03 43V46" stroke="white"/>
<path d="M1335.33 40V46" stroke="white"/>
<path d="M1349.62 43V46" stroke="white"/>
<path d="M1363.91 43V46" stroke="white"/>
<path d="M1378.21 43V46" stroke="white"/>
<path d="M1392.5 40V46" stroke="white"/>
<path d="M1406.79 43V46" stroke="white"/>
<path d="M1421.09 43V46" stroke="white"/>
<path d="M1435.38 43V46" stroke="white"/>
<path d="M1449.67 40V46" stroke="white"/>
<path d="M1463.97 43V46" stroke="white"/>
<path d="M1478.26 43V46" stroke="white"/>
<path d="M1492.55 43V46" stroke="white"/>
<path d="M1506.85 40V46" stroke="white"/>
</g>
<path d="M1506.85 36V46" stroke="white" stroke-opacity="0.75"/>
<g opacity="0.5">
<path d="M1506.85 40V46" stroke="white"/>
<path d="M1521.14 43V46" stroke="white"/>
<path d="M1535.43 43V46" stroke="white"/>
<path d="M1549.73 43V46" stroke="white"/>
<path d="M1564.02 40V46" stroke="white"/>
<path d="M1578.31 43V46" stroke="white"/>
<path d="M1592.61 43V46" stroke="white"/>
<path d="M1606.9 43V46" stroke="white"/>
<path d="M1621.19 40V46" stroke="white"/>
<path d="M1635.49 43V46" stroke="white"/>
<path d="M1649.78 43V46" stroke="white"/>
<path d="M1664.07 43V46" stroke="white"/>
<path d="M1678.37 40V46" stroke="white"/>
<path d="M1692.66 43V46" stroke="white"/>
<path d="M1706.95 43V46" stroke="white"/>
<path d="M1721.25 43V46" stroke="white"/>
<path d="M1735.54 40V46" stroke="white"/>
</g>
<path d="M1735.54 36V46" stroke="white" stroke-opacity="0.75"/>
<g opacity="0.5">
<path d="M1735.54 40V46" stroke="white"/>
<path d="M1749.83 43V46" stroke="white"/>
<path d="M1764.12 43V46" stroke="white"/>
<path d="M1778.42 43V46" stroke="white"/>
<path d="M1792.71 40V46" stroke="white"/>
<path d="M1807 43V46" stroke="white"/>
<path d="M1821.3 43V46" stroke="white"/>
<path d="M1835.59 43V46" stroke="white"/>
<path d="M1849.88 40V46" stroke="white"/>
<path d="M1864.18 43V46" stroke="white"/>
<path d="M1878.47 43V46" stroke="white"/>
<path d="M1892.76 43V46" stroke="white"/>
<path d="M1907.06 40V46" stroke="white"/>
<path d="M1921.35 43V46" stroke="white"/>
<path d="M1935.64 43V46" stroke="white"/>
<path d="M1949.94 43V46" stroke="white"/>
<path d="M1964.23 40V46" stroke="white"/>
</g>
<path d="M1964.23 36V46" stroke="white" stroke-opacity="0.75"/>
<g opacity="0.5">
<path d="M1964.23 40V46" stroke="white"/>
<path d="M1978.52 43V46" stroke="white"/>
<path d="M1992.82 43V46" stroke="white"/>
<path d="M2007.11 43V46" stroke="white"/>
<path d="M2021.4 40V46" stroke="white"/>
<path d="M2035.7 43V46" stroke="white"/>
<path d="M2049.99 43V46" stroke="white"/>
<path d="M2064.28 43V46" stroke="white"/>
<path d="M2078.58 40V46" stroke="white"/>
<path d="M2092.87 43V46" stroke="white"/>
<path d="M2107.16 43V46" stroke="white"/>
<path d="M2121.46 43V46" stroke="white"/>
<path d="M2135.75 40V46" stroke="white"/>
<path d="M2150.04 43V46" stroke="white"/>
<path d="M2164.34 43V46" stroke="white"/>
<path d="M2178.63 43V46" stroke="white"/>
<path d="M2192.92 40V46" stroke="white"/>
</g>
<path d="M2192.92 36V46" stroke="white" stroke-opacity="0.75"/>
<g opacity="0.5">
<path d="M2192.92 40V46" stroke="white"/>
<path d="M2207.22 43V46" stroke="white"/>
<path d="M2221.51 43V46" stroke="white"/>
<path d="M2235.8 43V46" stroke="white"/>
<path d="M2250.1 40V46" stroke="white"/>
<path d="M2264.39 43V46" stroke="white"/>
<path d="M2278.68 43V46" stroke="white"/>
<path d="M2292.98 43V46" stroke="white"/>
<path d="M2307.27 40V46" stroke="white"/>
<path d="M2321.56 43V46" stroke="white"/>
<path d="M2335.86 43V46" stroke="white"/>
<path d="M2350.15 43V46" stroke="white"/>
<path d="M2364.44 40V46" stroke="white"/>
<path d="M2378.74 43V46" stroke="white"/>
<path d="M2393.03 43V46" stroke="white"/>
<path d="M2407.32 43V46" stroke="white"/>
<path d="M2421.62 40V46" stroke="white"/>
</g>
<path d="M2421.62 36V46" stroke="white" stroke-opacity="0.75"/>
<g opacity="0.5">
<path d="M2421.62 40V46" stroke="white"/>
<path d="M2435.91 43V46" stroke="white"/>
<path d="M2450.2 43V46" stroke="white"/>
<path d="M2464.5 43V46" stroke="white"/>
<path d="M2478.79 40V46" stroke="white"/>
<path d="M2493.08 43V46" stroke="white"/>
<path d="M2507.37 43V46" stroke="white"/>
<path d="M2521.67 43V46" stroke="white"/>
<path d="M2535.96 40V46" stroke="white"/>
<path d="M2550.25 43V46" stroke="white"/>
<path d="M2564.55 43V46" stroke="white"/>
<path d="M2578.84 43V46" stroke="white"/>
<path d="M2593.13 40V46" stroke="white"/>
<path d="M2607.43 43V46" stroke="white"/>
<path d="M2621.72 43V46" stroke="white"/>
<path d="M2636.01 43V46" stroke="white"/>
<path d="M2650.31 40V46" stroke="white"/>
</g>
<path d="M2650.31 36V46" stroke="white" stroke-opacity="0.75"/>
<g opacity="0.5">
<path d="M2650.31 40V46" stroke="white"/>
<path d="M2664.6 43V46" stroke="white"/>
<path d="M2678.89 43V46" stroke="white"/>
<path d="M2693.19 43V46" stroke="white"/>
<path d="M2707.48 40V46" stroke="white"/>
<path d="M2721.77 43V46" stroke="white"/>
<path d="M2736.07 43V46" stroke="white"/>
<path d="M2750.36 43V46" stroke="white"/>
<path d="M2764.65 40V46" stroke="white"/>
</g>
<path d="M121.016 28V22.1818H121.72V27.375H124.425V28H121.016ZM125.516 28V22.1818H129.027V22.8068H126.22V24.7727H128.845V25.3977H126.22V27.375H129.073V28H125.516ZM132.092 28H130.297V22.1818H132.172C132.736 22.1818 133.219 22.2983 133.621 22.5312C134.022 22.7623 134.33 23.0947 134.544 23.5284C134.758 23.9602 134.865 24.4773 134.865 25.0795C134.865 25.6856 134.757 26.2074 134.541 26.6449C134.325 27.0805 134.011 27.4157 133.598 27.6506C133.185 27.8835 132.683 28 132.092 28ZM131.001 27.375H132.047C132.528 27.375 132.927 27.2822 133.243 27.0966C133.559 26.911 133.795 26.6468 133.95 26.304C134.106 25.9612 134.183 25.553 134.183 25.0795C134.183 24.6098 134.107 24.2055 133.953 23.8665C133.8 23.5256 133.571 23.2642 133.266 23.0824C132.961 22.8987 132.581 22.8068 132.126 22.8068H131.001V27.375ZM136.047 28V22.1818H139.558V22.8068H136.751V24.7727H139.376V25.3977H136.751V27.375H139.604V28H136.047ZM145.442 22.1818V28H144.76L141.59 23.4318H141.533V28H140.828V22.1818H141.51L144.692 26.7614H144.749V22.1818H145.442Z" fill="white"/>
<path d="M355.037 22.1818H355.742V26.0341C355.742 26.4318 355.648 26.7869 355.461 27.0994C355.275 27.41 355.013 27.6553 354.674 27.8352C354.335 28.0133 353.937 28.1023 353.481 28.1023C353.024 28.1023 352.627 28.0133 352.287 27.8352C351.948 27.6553 351.685 27.41 351.498 27.0994C351.312 26.7869 351.219 26.4318 351.219 26.0341V22.1818H351.924V25.9773C351.924 26.2614 351.986 26.5142 352.111 26.7358C352.236 26.9555 352.414 27.1288 352.645 27.2557C352.878 27.3807 353.157 27.4432 353.481 27.4432C353.805 27.4432 354.083 27.3807 354.316 27.2557C354.549 27.1288 354.727 26.9555 354.85 26.7358C354.975 26.5142 355.037 26.2614 355.037 25.9773V22.1818ZM353.174 21.5909L353.867 20.2727H354.651L353.765 21.5909H353.174ZM361.763 22.1818V28H361.081L357.91 23.4318H357.854V28H357.149V22.1818H357.831L361.013 26.7614H361.069V22.1818H361.763ZM368.082 25.0909C368.082 25.7045 367.971 26.2348 367.749 26.6818C367.528 27.1288 367.224 27.4735 366.837 27.7159C366.451 27.9583 366.01 28.0795 365.513 28.0795C365.017 28.0795 364.576 27.9583 364.189 27.7159C363.803 27.4735 363.499 27.1288 363.278 26.6818C363.056 26.2348 362.945 25.7045 362.945 25.0909C362.945 24.4773 363.056 23.947 363.278 23.5C363.499 23.053 363.803 22.7083 364.189 22.4659C364.576 22.2235 365.017 22.1023 365.513 22.1023C366.01 22.1023 366.451 22.2235 366.837 22.4659C367.224 22.7083 367.528 23.053 367.749 23.5C367.971 23.947 368.082 24.4773 368.082 25.0909ZM367.4 25.0909C367.4 24.5871 367.315 24.1619 367.147 23.8153C366.98 23.4688 366.754 23.2064 366.468 23.0284C366.184 22.8504 365.866 22.7614 365.513 22.7614C365.161 22.7614 364.842 22.8504 364.556 23.0284C364.272 23.2064 364.046 23.4688 363.877 23.8153C363.71 24.1619 363.627 24.5871 363.627 25.0909C363.627 25.5947 363.71 26.0199 363.877 26.3665C364.046 26.7131 364.272 26.9754 364.556 27.1534C364.842 27.3314 365.161 27.4205 365.513 27.4205C365.866 27.4205 366.184 27.3314 366.468 27.1534C366.754 26.9754 366.98 26.7131 367.147 26.3665C367.315 26.0199 367.4 25.5947 367.4 25.0909ZM369.266 28V22.1818H371.232C371.687 22.1818 372.06 22.2595 372.351 22.4148C372.643 22.5682 372.859 22.7794 372.999 23.0483C373.139 23.3172 373.209 23.6231 373.209 23.9659C373.209 24.3087 373.139 24.6127 372.999 24.8778C372.859 25.143 372.644 25.3513 372.354 25.5028C372.064 25.6525 371.694 25.7273 371.243 25.7273H369.653V25.0909H371.221C371.531 25.0909 371.781 25.0455 371.971 24.9545C372.162 24.8636 372.3 24.7348 372.386 24.5682C372.473 24.3996 372.516 24.1989 372.516 23.9659C372.516 23.733 372.473 23.5294 372.386 23.3551C372.298 23.1809 372.159 23.0464 371.968 22.9517C371.777 22.8551 371.524 22.8068 371.209 22.8068H369.971V28H369.266ZM372.005 25.3864L373.437 28H372.618L371.209 25.3864H372.005Z" fill="white"/>
<path d="M576.215 28V22.1818H578.25C578.655 22.1818 578.989 22.2519 579.252 22.392C579.516 22.5303 579.712 22.7169 579.84 22.9517C579.969 23.1847 580.034 23.4432 580.034 23.7273C580.034 23.9773 579.989 24.1837 579.9 24.3466C579.813 24.5095 579.697 24.6383 579.553 24.733C579.411 24.8277 579.257 24.8977 579.09 24.9432V25C579.268 25.0114 579.447 25.0739 579.627 25.1875C579.807 25.3011 579.958 25.464 580.079 25.6761C580.2 25.8883 580.261 26.1477 580.261 26.4545C580.261 26.7462 580.195 27.0085 580.062 27.2415C579.929 27.4744 579.72 27.6591 579.434 27.7955C579.148 27.9318 578.776 28 578.318 28H576.215ZM576.92 27.375H578.318C578.778 27.375 579.105 27.286 579.298 27.108C579.493 26.928 579.59 26.7102 579.59 26.4545C579.59 26.2576 579.54 26.0758 579.44 25.9091C579.339 25.7405 579.196 25.6061 579.011 25.5057C578.825 25.4034 578.606 25.3523 578.352 25.3523H576.92V27.375ZM576.92 24.7386H578.227C578.439 24.7386 578.63 24.697 578.801 24.6136C578.973 24.5303 579.109 24.4129 579.21 24.2614C579.312 24.1098 579.363 23.9318 579.363 23.7273C579.363 23.4716 579.274 23.2547 579.096 23.0767C578.918 22.8968 578.636 22.8068 578.25 22.8068H576.92V24.7386ZM581.419 28V22.1818H583.384C583.839 22.1818 584.212 22.2595 584.504 22.4148C584.795 22.5682 585.011 22.7794 585.151 23.0483C585.292 23.3172 585.362 23.6231 585.362 23.9659C585.362 24.3087 585.292 24.6127 585.151 24.8778C585.011 25.143 584.796 25.3513 584.507 25.5028C584.217 25.6525 583.847 25.7273 583.396 25.7273H581.805V25.0909H583.373C583.684 25.0909 583.934 25.0455 584.123 24.9545C584.314 24.8636 584.453 24.7348 584.538 24.5682C584.625 24.3996 584.669 24.1989 584.669 23.9659C584.669 23.733 584.625 23.5294 584.538 23.3551C584.451 23.1809 584.312 23.0464 584.12 22.9517C583.929 22.8551 583.676 22.8068 583.362 22.8068H582.123V28H581.419ZM584.157 25.3864L585.589 28H584.771L583.362 25.3864H584.157ZM582.646 20.4318L583.237 21.2273L583.828 20.4318H584.464V20.4773L583.544 21.6591H582.93L582.009 20.4773V20.4318H582.646ZM586.536 28V22.1818H590.047V22.8068H587.24V24.7727H589.865V25.3977H587.24V27.375H590.093V28H586.536ZM591.124 28V27.4886L594.26 22.8068H591.09V22.1818H595.101V22.6932L591.965 27.375H595.135V28H591.124ZM596.317 28V22.1818H599.828V22.8068H597.022V24.7727H599.647V25.3977H597.022V27.375H599.874V28H596.317ZM605.712 22.1818V28H605.03L601.86 23.4318H601.803V28H601.098V22.1818H601.78L604.962 26.7614H605.019V22.1818H605.712Z" fill="white"/>
<path d="M808.488 28H806.692V22.1818H808.567C809.132 22.1818 809.615 22.2983 810.016 22.5312C810.418 22.7623 810.725 23.0947 810.939 23.5284C811.153 23.9602 811.26 24.4773 811.26 25.0795C811.26 25.6856 811.152 26.2074 810.937 26.6449C810.721 27.0805 810.406 27.4157 809.993 27.6506C809.58 27.8835 809.079 28 808.488 28ZM807.397 27.375H808.442C808.923 27.375 809.322 27.2822 809.638 27.0966C809.955 26.911 810.19 26.6468 810.346 26.304C810.501 25.9612 810.579 25.553 810.579 25.0795C810.579 24.6098 810.502 24.2055 810.348 23.8665C810.195 23.5256 809.966 23.2642 809.661 23.0824C809.356 22.8987 808.976 22.8068 808.522 22.8068H807.397V27.375ZM816.26 22.1818H816.965V26.0341C816.965 26.4318 816.871 26.7869 816.684 27.0994C816.498 27.41 816.236 27.6553 815.897 27.8352C815.558 28.0133 815.16 28.1023 814.704 28.1023C814.247 28.1023 813.849 28.0133 813.51 27.8352C813.171 27.6553 812.908 27.41 812.721 27.0994C812.535 26.7869 812.442 26.4318 812.442 26.0341V22.1818H813.147V25.9773C813.147 26.2614 813.209 26.5142 813.334 26.7358C813.459 26.9555 813.637 27.1288 813.868 27.2557C814.101 27.3807 814.38 27.4432 814.704 27.4432C815.027 27.4432 815.306 27.3807 815.539 27.2557C815.772 27.1288 815.95 26.9555 816.073 26.7358C816.198 26.5142 816.26 26.2614 816.26 25.9773V22.1818ZM818.372 28V22.1818H820.406C820.811 22.1818 821.146 22.2519 821.409 22.392C821.672 22.5303 821.868 22.7169 821.997 22.9517C822.126 23.1847 822.19 23.4432 822.19 23.7273C822.19 23.9773 822.146 24.1837 822.057 24.3466C821.969 24.5095 821.854 24.6383 821.71 24.733C821.568 24.8277 821.414 24.8977 821.247 24.9432V25C821.425 25.0114 821.604 25.0739 821.784 25.1875C821.964 25.3011 822.114 25.464 822.236 25.6761C822.357 25.8883 822.417 26.1477 822.417 26.4545C822.417 26.7462 822.351 27.0085 822.218 27.2415C822.086 27.4744 821.877 27.6591 821.591 27.7955C821.305 27.9318 820.933 28 820.474 28H818.372ZM819.076 27.375H820.474C820.934 27.375 821.261 27.286 821.454 27.108C821.649 26.928 821.747 26.7102 821.747 26.4545C821.747 26.2576 821.697 26.0758 821.596 25.9091C821.496 25.7405 821.353 25.6061 821.167 25.5057C820.982 25.4034 820.762 25.3523 820.508 25.3523H819.076V27.375ZM819.076 24.7386H820.383C820.595 24.7386 820.787 24.697 820.957 24.6136C821.129 24.5303 821.266 24.4129 821.366 24.2614C821.468 24.1098 821.52 23.9318 821.52 23.7273C821.52 23.4716 821.431 23.2547 821.253 23.0767C821.075 22.8968 820.792 22.8068 820.406 22.8068H819.076V24.7386ZM823.575 28V22.1818H827.086V22.8068H824.28V24.7727H826.905V25.3977H824.28V27.375H827.132V28H823.575ZM832.97 22.1818V28H832.288L829.118 23.4318H829.061V28H828.356V22.1818H829.038L832.22 26.7614H832.277V22.1818H832.97Z" fill="white"/>
<path d="M1033.73 28V22.1818H1034.44V25.0682H1034.5L1037.12 22.1818H1038.04L1035.6 24.8068L1038.04 28H1037.19L1035.16 25.2955L1034.44 26.1136V28H1033.73ZM1039.19 22.1818L1040.92 27.0795H1040.98L1042.71 22.1818H1043.45L1041.31 28H1040.59L1038.45 22.1818H1039.19ZM1044.36 28V22.1818H1047.87V22.8068H1045.06V24.7727H1047.69V25.3977H1045.06V27.375H1047.91V28H1044.36ZM1045.52 20.4318L1046.11 21.2273L1046.7 20.4318H1047.33V20.4773L1046.41 21.6591H1045.8L1044.88 20.4773V20.4318H1045.52ZM1048.82 22.8068V22.1818H1053.18V22.8068H1051.35V28H1050.65V22.8068H1048.82ZM1054.27 28V22.1818H1057.78V22.8068H1054.98V24.7727H1057.6V25.3977H1054.98V27.375H1057.83V28H1054.27ZM1063.67 22.1818V28H1062.98L1059.81 23.4318H1059.76V28H1059.05V22.1818H1059.73L1062.92 26.7614H1062.97V22.1818H1063.67Z" fill="white"/>
<path d="M1267.05 24H1266.35C1266.31 23.7973 1266.24 23.6193 1266.13 23.4659C1266.03 23.3125 1265.9 23.1837 1265.76 23.0795C1265.61 22.9735 1265.45 22.8939 1265.27 22.8409C1265.09 22.7879 1264.91 22.7614 1264.71 22.7614C1264.36 22.7614 1264.04 22.8504 1263.76 23.0284C1263.47 23.2064 1263.25 23.4688 1263.08 23.8153C1262.91 24.1619 1262.83 24.5871 1262.83 25.0909C1262.83 25.5947 1262.91 26.0199 1263.08 26.3665C1263.25 26.7131 1263.47 26.9754 1263.76 27.1534C1264.04 27.3314 1264.36 27.4205 1264.71 27.4205C1264.91 27.4205 1265.09 27.3939 1265.27 27.3409C1265.45 27.2879 1265.61 27.2093 1265.76 27.1051C1265.9 26.9991 1266.03 26.8693 1266.13 26.7159C1266.24 26.5606 1266.31 26.3826 1266.35 26.1818H1267.05C1267 26.4792 1266.9 26.7453 1266.76 26.9801C1266.62 27.215 1266.45 27.4148 1266.24 27.5795C1266.03 27.7424 1265.8 27.8665 1265.54 27.9517C1265.28 28.0369 1265.01 28.0795 1264.71 28.0795C1264.22 28.0795 1263.78 27.9583 1263.39 27.7159C1263 27.4735 1262.7 27.1288 1262.48 26.6818C1262.26 26.2348 1262.15 25.7045 1262.15 25.0909C1262.15 24.4773 1262.26 23.947 1262.48 23.5C1262.7 23.053 1263 22.7083 1263.39 22.4659C1263.78 22.2235 1264.22 22.1023 1264.71 22.1023C1265.01 22.1023 1265.28 22.1449 1265.54 22.2301C1265.8 22.3153 1266.03 22.4403 1266.24 22.6051C1266.45 22.768 1266.62 22.9669 1266.76 23.2017C1266.9 23.4347 1267 23.7008 1267.05 24ZM1264.12 20.4318L1264.71 21.2273L1265.3 20.4318H1265.94V20.4773L1265.02 21.6591H1264.41L1263.49 20.4773V20.4318H1264.12ZM1268.19 28V22.1818H1271.7V22.8068H1268.9V24.7727H1271.52V25.3977H1268.9V27.375H1271.75V28H1268.19ZM1272.97 28V22.1818H1274.94C1275.39 22.1818 1275.77 22.2595 1276.06 22.4148C1276.35 22.5682 1276.57 22.7794 1276.71 23.0483C1276.85 23.3172 1276.92 23.6231 1276.92 23.9659C1276.92 24.3087 1276.85 24.6127 1276.71 24.8778C1276.57 25.143 1276.35 25.3513 1276.06 25.5028C1275.77 25.6525 1275.4 25.7273 1274.95 25.7273H1273.36V25.0909H1274.93C1275.24 25.0909 1275.49 25.0455 1275.68 24.9545C1275.87 24.8636 1276.01 24.7348 1276.09 24.5682C1276.18 24.3996 1276.22 24.1989 1276.22 23.9659C1276.22 23.733 1276.18 23.5294 1276.09 23.3551C1276.01 23.1809 1275.87 23.0464 1275.68 22.9517C1275.48 22.8551 1275.23 22.8068 1274.92 22.8068H1273.68V28H1272.97ZM1275.71 25.3864L1277.14 28H1276.33L1274.92 25.3864H1275.71ZM1278.2 22.1818L1279.92 27.0795H1279.99L1281.72 22.1818H1282.46L1280.32 28H1279.59L1277.46 22.1818H1278.2ZM1283.36 28V22.1818H1286.88V22.8068H1284.07V24.7727H1286.69V25.3977H1284.07V27.375H1286.92V28H1283.36ZM1292.76 22.1818V28H1292.08L1288.91 23.4318H1288.85V28H1288.15V22.1818H1288.83L1292.01 26.7614H1292.07V22.1818H1292.76Z" fill="white"/>
<path d="M1490.62 24H1489.92C1489.87 23.7973 1489.8 23.6193 1489.7 23.4659C1489.6 23.3125 1489.47 23.1837 1489.32 23.0795C1489.18 22.9735 1489.01 22.8939 1488.84 22.8409C1488.66 22.7879 1488.47 22.7614 1488.28 22.7614C1487.93 22.7614 1487.61 22.8504 1487.32 23.0284C1487.04 23.2064 1486.81 23.4688 1486.64 23.8153C1486.48 24.1619 1486.39 24.5871 1486.39 25.0909C1486.39 25.5947 1486.48 26.0199 1486.64 26.3665C1486.81 26.7131 1487.04 26.9754 1487.32 27.1534C1487.61 27.3314 1487.93 27.4205 1488.28 27.4205C1488.47 27.4205 1488.66 27.3939 1488.84 27.3409C1489.01 27.2879 1489.18 27.2093 1489.32 27.1051C1489.47 26.9991 1489.6 26.8693 1489.7 26.7159C1489.8 26.5606 1489.87 26.3826 1489.92 26.1818H1490.62C1490.57 26.4792 1490.47 26.7453 1490.33 26.9801C1490.19 27.215 1490.02 27.4148 1489.81 27.5795C1489.6 27.7424 1489.37 27.8665 1489.11 27.9517C1488.85 28.0369 1488.57 28.0795 1488.28 28.0795C1487.78 28.0795 1487.34 27.9583 1486.96 27.7159C1486.57 27.4735 1486.27 27.1288 1486.04 26.6818C1485.82 26.2348 1485.71 25.7045 1485.71 25.0909C1485.71 24.4773 1485.82 23.947 1486.04 23.5C1486.27 23.053 1486.57 22.7083 1486.96 22.4659C1487.34 22.2235 1487.78 22.1023 1488.28 22.1023C1488.57 22.1023 1488.85 22.1449 1489.11 22.2301C1489.37 22.3153 1489.6 22.4403 1489.81 22.6051C1490.02 22.768 1490.19 22.9669 1490.33 23.2017C1490.47 23.4347 1490.57 23.7008 1490.62 24ZM1487.69 20.4318L1488.28 21.2273L1488.87 20.4318H1489.51V20.4773L1488.59 21.6591H1487.97L1487.05 20.4773V20.4318H1487.69ZM1491.76 28V22.1818H1495.27V22.8068H1492.46V24.7727H1495.09V25.3977H1492.46V27.375H1495.32V28H1491.76ZM1496.54 28V22.1818H1498.51C1498.96 22.1818 1499.33 22.2595 1499.63 22.4148C1499.92 22.5682 1500.13 22.7794 1500.27 23.0483C1500.41 23.3172 1500.48 23.6231 1500.48 23.9659C1500.48 24.3087 1500.41 24.6127 1500.27 24.8778C1500.13 25.143 1499.92 25.3513 1499.63 25.5028C1499.34 25.6525 1498.97 25.7273 1498.52 25.7273H1496.93V25.0909H1498.5C1498.81 25.0909 1499.06 25.0455 1499.25 24.9545C1499.44 24.8636 1499.57 24.7348 1499.66 24.5682C1499.75 24.3996 1499.79 24.1989 1499.79 23.9659C1499.79 23.733 1499.75 23.5294 1499.66 23.3551C1499.57 23.1809 1499.43 23.0464 1499.24 22.9517C1499.05 22.8551 1498.8 22.8068 1498.48 22.8068H1497.25V28H1496.54ZM1499.28 25.3864L1500.71 28H1499.89L1498.48 25.3864H1499.28ZM1501.76 22.1818L1503.49 27.0795H1503.56L1505.29 22.1818H1506.02L1503.89 28H1503.16L1501.02 22.1818H1501.76ZM1506.93 28V22.1818H1510.44V22.8068H1507.64V24.7727H1510.26V25.3977H1507.64V27.375H1510.49V28H1506.93ZM1516.33 22.1818V28H1515.64L1512.47 23.4318H1512.42V28H1511.71V22.1818H1512.39L1515.58 26.7614H1515.63V22.1818H1516.33ZM1517.74 28V22.1818H1521.25V22.8068H1518.44V24.7727H1521.07V25.3977H1518.44V27.375H1521.29V28H1517.74ZM1527.2 24H1526.49C1526.45 23.7973 1526.38 23.6193 1526.28 23.4659C1526.17 23.3125 1526.05 23.1837 1525.9 23.0795C1525.75 22.9735 1525.59 22.8939 1525.41 22.8409C1525.24 22.7879 1525.05 22.7614 1524.86 22.7614C1524.51 22.7614 1524.19 22.8504 1523.9 23.0284C1523.62 23.2064 1523.39 23.4688 1523.22 23.8153C1523.06 24.1619 1522.97 24.5871 1522.97 25.0909C1522.97 25.5947 1523.06 26.0199 1523.22 26.3665C1523.39 26.7131 1523.62 26.9754 1523.9 27.1534C1524.19 27.3314 1524.51 27.4205 1524.86 27.4205C1525.05 27.4205 1525.24 27.3939 1525.41 27.3409C1525.59 27.2879 1525.75 27.2093 1525.9 27.1051C1526.05 26.9991 1526.17 26.8693 1526.28 26.7159C1526.38 26.5606 1526.45 26.3826 1526.49 26.1818H1527.2C1527.15 26.4792 1527.05 26.7453 1526.91 26.9801C1526.77 27.215 1526.59 27.4148 1526.39 27.5795C1526.18 27.7424 1525.94 27.8665 1525.68 27.9517C1525.43 28.0369 1525.15 28.0795 1524.86 28.0795C1524.36 28.0795 1523.92 27.9583 1523.53 27.7159C1523.15 27.4735 1522.84 27.1288 1522.62 26.6818C1522.4 26.2348 1522.29 25.7045 1522.29 25.0909C1522.29 24.4773 1522.4 23.947 1522.62 23.5C1522.84 23.053 1523.15 22.7083 1523.53 22.4659C1523.92 22.2235 1524.36 22.1023 1524.86 22.1023C1525.15 22.1023 1525.43 22.1449 1525.68 22.2301C1525.94 22.3153 1526.18 22.4403 1526.39 22.6051C1526.59 22.768 1526.77 22.9669 1526.91 23.2017C1527.05 23.4347 1527.15 23.7008 1527.2 24Z" fill="white"/>
<path d="M1726.14 23.6364C1726.1 23.3485 1725.96 23.125 1725.72 22.9659C1725.48 22.8068 1725.18 22.7273 1724.83 22.7273C1724.57 22.7273 1724.35 22.7689 1724.15 22.8523C1723.96 22.9356 1723.81 23.0502 1723.7 23.196C1723.6 23.3419 1723.55 23.5076 1723.55 23.6932C1723.55 23.8485 1723.58 23.982 1723.66 24.0938C1723.73 24.2036 1723.83 24.2955 1723.95 24.3693C1724.06 24.4413 1724.19 24.5009 1724.32 24.5483C1724.44 24.5937 1724.56 24.6307 1724.67 24.6591L1725.26 24.8182C1725.41 24.858 1725.58 24.9129 1725.77 24.983C1725.95 25.053 1726.13 25.1487 1726.3 25.2699C1726.48 25.3892 1726.62 25.5426 1726.73 25.7301C1726.84 25.9176 1726.9 26.1477 1726.9 26.4205C1726.9 26.7348 1726.82 27.0189 1726.65 27.2727C1726.49 27.5265 1726.25 27.7282 1725.94 27.8778C1725.62 28.0275 1725.24 28.1023 1724.8 28.1023C1724.38 28.1023 1724.02 28.035 1723.71 27.9006C1723.41 27.7661 1723.17 27.5786 1723 27.3381C1722.83 27.0975 1722.73 26.8182 1722.7 26.5H1723.43C1723.45 26.7197 1723.52 26.9015 1723.65 27.0455C1723.78 27.1875 1723.95 27.2936 1724.15 27.3636C1724.35 27.4318 1724.56 27.4659 1724.8 27.4659C1725.06 27.4659 1725.31 27.4223 1725.52 27.3352C1725.73 27.2462 1725.9 27.1231 1726.03 26.9659C1726.15 26.8068 1726.22 26.6212 1726.22 26.4091C1726.22 26.2159 1726.16 26.0587 1726.05 25.9375C1725.95 25.8163 1725.8 25.7178 1725.63 25.642C1725.45 25.5663 1725.26 25.5 1725.06 25.4432L1724.34 25.2386C1723.89 25.108 1723.53 24.9214 1723.26 24.679C1723 24.4366 1722.86 24.1193 1722.86 23.7273C1722.86 23.4015 1722.95 23.1174 1723.13 22.875C1723.31 22.6307 1723.54 22.4413 1723.84 22.3068C1724.15 22.1705 1724.48 22.1023 1724.85 22.1023C1725.23 22.1023 1725.56 22.1695 1725.85 22.304C1726.14 22.4366 1726.38 22.6184 1726.55 22.8494C1726.72 23.0805 1726.81 23.3428 1726.82 23.6364H1726.14ZM1728.06 28V22.1818H1730.02C1730.48 22.1818 1730.85 22.2595 1731.14 22.4148C1731.43 22.5682 1731.65 22.7794 1731.79 23.0483C1731.93 23.3172 1732 23.6231 1732 23.9659C1732 24.3087 1731.93 24.6127 1731.79 24.8778C1731.65 25.143 1731.43 25.3513 1731.14 25.5028C1730.85 25.6525 1730.48 25.7273 1730.03 25.7273H1728.44V25.0909H1730.01C1730.32 25.0909 1730.57 25.0455 1730.76 24.9545C1730.95 24.8636 1731.09 24.7348 1731.18 24.5682C1731.26 24.3996 1731.31 24.1989 1731.31 23.9659C1731.31 23.733 1731.26 23.5294 1731.18 23.3551C1731.09 23.1809 1730.95 23.0464 1730.76 22.9517C1730.57 22.8551 1730.31 22.8068 1730 22.8068H1728.76V28H1728.06ZM1730.8 25.3864L1732.23 28H1731.41L1730 25.3864H1730.8ZM1733.17 28V22.1818H1735.14C1735.6 22.1818 1735.97 22.2642 1736.26 22.429C1736.55 22.5919 1736.77 22.8125 1736.91 23.0909C1737.05 23.3693 1737.12 23.6799 1737.12 24.0227C1737.12 24.3655 1737.05 24.6771 1736.91 24.9574C1736.77 25.2377 1736.55 25.4612 1736.26 25.6278C1735.97 25.7926 1735.6 25.875 1735.15 25.875H1733.74V25.25H1735.13C1735.44 25.25 1735.69 25.196 1735.88 25.0881C1736.07 24.9801 1736.21 24.8343 1736.29 24.6506C1736.38 24.465 1736.42 24.2557 1736.42 24.0227C1736.42 23.7898 1736.38 23.5814 1736.29 23.3977C1736.21 23.214 1736.07 23.0701 1735.88 22.9659C1735.69 22.8598 1735.43 22.8068 1735.12 22.8068H1733.88V28H1733.17ZM1738.25 28V22.1818H1741.76V22.8068H1738.96V24.7727H1741.58V25.3977H1738.96V27.375H1741.81V28H1738.25ZM1747.65 22.1818V28H1746.96L1743.79 23.4318H1743.74V28H1743.03V22.1818H1743.71L1746.9 26.7614H1746.95V22.1818H1747.65Z" fill="white"/>
<path d="M1955.86 28V27.4886L1959 22.8068H1955.83V22.1818H1959.84V22.6932L1956.7 27.375H1959.87V28H1955.86ZM1961.29 28H1960.55L1962.69 22.1818H1963.42L1965.55 28H1964.81L1963.08 23.1023H1963.03L1961.29 28ZM1961.56 25.7273H1964.54V26.3523H1961.56V25.7273ZM1962.75 21.5909L1963.44 20.2727H1964.22L1963.34 21.5909H1962.75ZM1966.46 28V22.1818H1968.42C1968.88 22.1818 1969.25 22.2595 1969.54 22.4148C1969.84 22.5682 1970.05 22.7794 1970.19 23.0483C1970.33 23.3172 1970.4 23.6231 1970.4 23.9659C1970.4 24.3087 1970.33 24.6127 1970.19 24.8778C1970.05 25.143 1969.84 25.3513 1969.55 25.5028C1969.26 25.6525 1968.89 25.7273 1968.44 25.7273H1966.85V25.0909H1968.41C1968.72 25.0909 1968.97 25.0455 1969.16 24.9545C1969.35 24.8636 1969.49 24.7348 1969.58 24.5682C1969.67 24.3996 1969.71 24.1989 1969.71 23.9659C1969.71 23.733 1969.67 23.5294 1969.58 23.3551C1969.49 23.1809 1969.35 23.0464 1969.16 22.9517C1968.97 22.8551 1968.72 22.8068 1968.4 22.8068H1967.16V28H1966.46ZM1969.2 25.3864L1970.63 28H1969.81L1968.4 25.3864H1969.2ZM1967.69 20.4318L1968.28 21.2273L1968.87 20.4318H1969.5V20.4773L1968.58 21.6591H1967.97L1967.05 20.4773V20.4318H1967.69ZM1972.28 22.1818V28H1971.58V22.1818H1972.28ZM1971.62 21.5909L1972.31 20.2727H1973.1L1972.21 21.5909H1971.62Z" fill="white"/>
<path d="M2182.55 28V22.1818H2184.52C2184.97 22.1818 2185.34 22.2595 2185.63 22.4148C2185.93 22.5682 2186.14 22.7794 2186.28 23.0483C2186.42 23.3172 2186.49 23.6231 2186.49 23.9659C2186.49 24.3087 2186.42 24.6127 2186.28 24.8778C2186.14 25.143 2185.93 25.3513 2185.64 25.5028C2185.35 25.6525 2184.98 25.7273 2184.53 25.7273H2182.94V25.0909H2184.5C2184.81 25.0909 2185.06 25.0455 2185.25 24.9545C2185.44 24.8636 2185.58 24.7348 2185.67 24.5682C2185.76 24.3996 2185.8 24.1989 2185.8 23.9659C2185.8 23.733 2185.76 23.5294 2185.67 23.3551C2185.58 23.1809 2185.44 23.0464 2185.25 22.9517C2185.06 22.8551 2184.81 22.8068 2184.49 22.8068H2183.25V28H2182.55ZM2185.29 25.3864L2186.72 28H2185.9L2184.49 25.3864H2185.29ZM2183.78 20.4318L2184.37 21.2273L2184.96 20.4318H2185.59V20.4773L2184.67 21.6591H2184.06L2183.14 20.4773V20.4318H2183.78ZM2188.37 22.1818V28H2187.67V22.1818H2188.37ZM2187.71 21.5909L2188.4 20.2727H2189.19L2188.3 21.5909H2187.71ZM2192.01 22.1818H2192.72V26.3409C2192.72 26.7121 2192.65 27.0275 2192.51 27.2869C2192.37 27.5464 2192.18 27.7434 2191.93 27.8778C2191.69 28.0123 2191.39 28.0795 2191.06 28.0795C2190.74 28.0795 2190.45 28.0218 2190.21 27.9062C2189.96 27.7888 2189.76 27.6222 2189.62 27.4062C2189.48 27.1903 2189.41 26.9337 2189.41 26.6364H2190.1C2190.1 26.8011 2190.14 26.9451 2190.22 27.0682C2190.31 27.1894 2190.42 27.2841 2190.56 27.3523C2190.71 27.4205 2190.87 27.4545 2191.06 27.4545C2191.26 27.4545 2191.43 27.4119 2191.57 27.3267C2191.72 27.2415 2191.82 27.1165 2191.9 26.9517C2191.97 26.785 2192.01 26.5814 2192.01 26.3409V22.1818ZM2194.13 28V22.1818H2197.64V22.8068H2194.83V24.7727H2197.46V25.3977H2194.83V27.375H2197.68V28H2194.13ZM2203.52 22.1818V28H2202.84L2199.67 23.4318H2199.61V28H2198.91V22.1818H2199.59L2202.77 26.7614H2202.83V22.1818H2203.52Z" fill="white"/>
<path d="M2403.44 28V22.1818H2404.14V27.375H2406.85V28H2403.44ZM2408.64 22.1818V28H2407.94V22.1818H2408.64ZM2413.24 23.6364C2413.2 23.3485 2413.06 23.125 2412.82 22.9659C2412.58 22.8068 2412.28 22.7273 2411.93 22.7273C2411.67 22.7273 2411.45 22.7689 2411.25 22.8523C2411.06 22.9356 2410.91 23.0502 2410.8 23.196C2410.7 23.3419 2410.64 23.5076 2410.64 23.6932C2410.64 23.8485 2410.68 23.982 2410.76 24.0938C2410.83 24.2036 2410.93 24.2955 2411.04 24.3693C2411.16 24.4413 2411.29 24.5009 2411.41 24.5483C2411.54 24.5937 2411.66 24.6307 2411.77 24.6591L2412.36 24.8182C2412.51 24.858 2412.68 24.9129 2412.87 24.983C2413.05 25.053 2413.23 25.1487 2413.4 25.2699C2413.58 25.3892 2413.72 25.5426 2413.83 25.7301C2413.94 25.9176 2414 26.1477 2414 26.4205C2414 26.7348 2413.91 27.0189 2413.75 27.2727C2413.59 27.5265 2413.35 27.7282 2413.03 27.8778C2412.72 28.0275 2412.34 28.1023 2411.89 28.1023C2411.48 28.1023 2411.12 28.035 2410.81 27.9006C2410.51 27.7661 2410.27 27.5786 2410.1 27.3381C2409.92 27.0975 2409.83 26.8182 2409.8 26.5H2410.53C2410.55 26.7197 2410.62 26.9015 2410.75 27.0455C2410.88 27.1875 2411.05 27.2936 2411.25 27.3636C2411.45 27.4318 2411.66 27.4659 2411.89 27.4659C2412.16 27.4659 2412.4 27.4223 2412.62 27.3352C2412.83 27.2462 2413 27.1231 2413.13 26.9659C2413.25 26.8068 2413.31 26.6212 2413.31 26.4091C2413.31 26.2159 2413.26 26.0587 2413.15 25.9375C2413.04 25.8163 2412.9 25.7178 2412.73 25.642C2412.55 25.5663 2412.36 25.5 2412.16 25.4432L2411.44 25.2386C2410.99 25.108 2410.63 24.9214 2410.36 24.679C2410.09 24.4366 2409.96 24.1193 2409.96 23.7273C2409.96 23.4015 2410.05 23.1174 2410.23 22.875C2410.4 22.6307 2410.64 22.4413 2410.94 22.3068C2411.24 22.1705 2411.58 22.1023 2411.95 22.1023C2412.33 22.1023 2412.66 22.1695 2412.95 22.304C2413.24 22.4366 2413.47 22.6184 2413.64 22.8494C2413.82 23.0805 2413.91 23.3428 2413.92 23.6364H2413.24ZM2414.84 22.8068V22.1818H2419.2V22.8068H2417.37V28H2416.67V22.8068H2414.84ZM2424.95 25.0909C2424.95 25.7045 2424.84 26.2348 2424.62 26.6818C2424.4 27.1288 2424.1 27.4735 2423.71 27.7159C2423.32 27.9583 2422.88 28.0795 2422.39 28.0795C2421.89 28.0795 2421.45 27.9583 2421.06 27.7159C2420.68 27.4735 2420.37 27.1288 2420.15 26.6818C2419.93 26.2348 2419.82 25.7045 2419.82 25.0909C2419.82 24.4773 2419.93 23.947 2420.15 23.5C2420.37 23.053 2420.68 22.7083 2421.06 22.4659C2421.45 22.2235 2421.89 22.1023 2422.39 22.1023C2422.88 22.1023 2423.32 22.2235 2423.71 22.4659C2424.1 22.7083 2424.4 23.053 2424.62 23.5C2424.84 23.947 2424.95 24.4773 2424.95 25.0909ZM2424.27 25.0909C2424.27 24.5871 2424.19 24.1619 2424.02 23.8153C2423.85 23.4688 2423.63 23.2064 2423.34 23.0284C2423.06 22.8504 2422.74 22.7614 2422.39 22.7614C2422.03 22.7614 2421.71 22.8504 2421.43 23.0284C2421.14 23.2064 2420.92 23.4688 2420.75 23.8153C2420.58 24.1619 2420.5 24.5871 2420.5 25.0909C2420.5 25.5947 2420.58 26.0199 2420.75 26.3665C2420.92 26.7131 2421.14 26.9754 2421.43 27.1534C2421.71 27.3314 2422.03 27.4205 2422.39 27.4205C2422.74 27.4205 2423.06 27.3314 2423.34 27.1534C2423.63 26.9754 2423.85 26.7131 2424.02 26.3665C2424.19 26.0199 2424.27 25.5947 2424.27 25.0909ZM2426.14 28V22.1818H2428.11C2428.56 22.1818 2428.93 22.2642 2429.22 22.429C2429.52 22.5919 2429.73 22.8125 2429.87 23.0909C2430.01 23.3693 2430.08 23.6799 2430.08 24.0227C2430.08 24.3655 2430.01 24.6771 2429.87 24.9574C2429.73 25.2377 2429.52 25.4612 2429.23 25.6278C2428.94 25.7926 2428.57 25.875 2428.12 25.875H2426.71V25.25H2428.09C2428.41 25.25 2428.66 25.196 2428.85 25.0881C2429.04 24.9801 2429.17 24.8343 2429.26 24.6506C2429.35 24.465 2429.39 24.2557 2429.39 24.0227C2429.39 23.7898 2429.35 23.5814 2429.26 23.3977C2429.17 23.214 2429.04 23.0701 2428.84 22.9659C2428.65 22.8598 2428.4 22.8068 2428.08 22.8068H2426.84V28H2426.14ZM2430.86 28H2430.12L2432.26 22.1818H2432.99L2435.12 28H2434.38L2432.65 23.1023H2432.6L2430.86 28ZM2431.13 25.7273H2434.11V26.3523H2431.13V25.7273ZM2437.83 28H2436.03V22.1818H2437.9C2438.47 22.1818 2438.95 22.2983 2439.35 22.5312C2439.76 22.7623 2440.06 23.0947 2440.28 23.5284C2440.49 23.9602 2440.6 24.4773 2440.6 25.0795C2440.6 25.6856 2440.49 26.2074 2440.27 26.6449C2440.06 27.0805 2439.74 27.4157 2439.33 27.6506C2438.92 27.8835 2438.42 28 2437.83 28ZM2436.73 27.375H2437.78C2438.26 27.375 2438.66 27.2822 2438.98 27.0966C2439.29 26.911 2439.53 26.6468 2439.68 26.304C2439.84 25.9612 2439.92 25.553 2439.92 25.0795C2439.92 24.6098 2439.84 24.2055 2439.69 23.8665C2439.53 23.5256 2439.3 23.2642 2439 23.0824C2438.69 22.8987 2438.31 22.8068 2437.86 22.8068H2436.73V27.375Z" fill="white"/>
<path d="M2631.41 28V22.1818H2633.37C2633.83 22.1818 2634.2 22.2642 2634.49 22.429C2634.79 22.5919 2635 22.8125 2635.14 23.0909C2635.28 23.3693 2635.35 23.6799 2635.35 24.0227C2635.35 24.3655 2635.28 24.6771 2635.14 24.9574C2635 25.2377 2634.79 25.4612 2634.5 25.6278C2634.21 25.7926 2633.84 25.875 2633.39 25.875H2631.98V25.25H2633.36C2633.68 25.25 2633.93 25.196 2634.12 25.0881C2634.31 24.9801 2634.44 24.8343 2634.53 24.6506C2634.62 24.465 2634.66 24.2557 2634.66 24.0227C2634.66 23.7898 2634.62 23.5814 2634.53 23.3977C2634.44 23.214 2634.3 23.0701 2634.11 22.9659C2633.92 22.8598 2633.67 22.8068 2633.35 22.8068H2632.11V28H2631.41ZM2636.49 28V22.1818H2638.45C2638.91 22.1818 2639.28 22.2595 2639.57 22.4148C2639.86 22.5682 2640.08 22.7794 2640.22 23.0483C2640.36 23.3172 2640.43 23.6231 2640.43 23.9659C2640.43 24.3087 2640.36 24.6127 2640.22 24.8778C2640.08 25.143 2639.86 25.3513 2639.58 25.5028C2639.29 25.6525 2638.92 25.7273 2638.46 25.7273H2636.87V25.0909H2638.44C2638.75 25.0909 2639 25.0455 2639.19 24.9545C2639.38 24.8636 2639.52 24.7348 2639.61 24.5682C2639.69 24.3996 2639.74 24.1989 2639.74 23.9659C2639.74 23.733 2639.69 23.5294 2639.61 23.3551C2639.52 23.1809 2639.38 23.0464 2639.19 22.9517C2639 22.8551 2638.74 22.8068 2638.43 22.8068H2637.19V28H2636.49ZM2639.23 25.3864L2640.66 28H2639.84L2638.43 25.3864H2639.23ZM2646.51 25.0909C2646.51 25.7045 2646.4 26.2348 2646.18 26.6818C2645.96 27.1288 2645.66 27.4735 2645.27 27.7159C2644.88 27.9583 2644.44 28.0795 2643.95 28.0795C2643.45 28.0795 2643.01 27.9583 2642.62 27.7159C2642.24 27.4735 2641.93 27.1288 2641.71 26.6818C2641.49 26.2348 2641.38 25.7045 2641.38 25.0909C2641.38 24.4773 2641.49 23.947 2641.71 23.5C2641.93 23.053 2642.24 22.7083 2642.62 22.4659C2643.01 22.2235 2643.45 22.1023 2643.95 22.1023C2644.44 22.1023 2644.88 22.2235 2645.27 22.4659C2645.66 22.7083 2645.96 23.053 2646.18 23.5C2646.4 23.947 2646.51 24.4773 2646.51 25.0909ZM2645.83 25.0909C2645.83 24.5871 2645.75 24.1619 2645.58 23.8153C2645.41 23.4688 2645.19 23.2064 2644.9 23.0284C2644.62 22.8504 2644.3 22.7614 2643.95 22.7614C2643.59 22.7614 2643.27 22.8504 2642.99 23.0284C2642.7 23.2064 2642.48 23.4688 2642.31 23.8153C2642.14 24.1619 2642.06 24.5871 2642.06 25.0909C2642.06 25.5947 2642.14 26.0199 2642.31 26.3665C2642.48 26.7131 2642.7 26.9754 2642.99 27.1534C2643.27 27.3314 2643.59 27.4205 2643.95 27.4205C2644.3 27.4205 2644.62 27.3314 2644.9 27.1534C2645.19 26.9754 2645.41 26.7131 2645.58 26.3665C2645.75 26.0199 2645.83 25.5947 2645.83 25.0909ZM2650.88 23.6364C2650.85 23.3485 2650.71 23.125 2650.47 22.9659C2650.22 22.8068 2649.93 22.7273 2649.57 22.7273C2649.32 22.7273 2649.09 22.7689 2648.9 22.8523C2648.71 22.9356 2648.56 23.0502 2648.45 23.196C2648.34 23.3419 2648.29 23.5076 2648.29 23.6932C2648.29 23.8485 2648.33 23.982 2648.4 24.0938C2648.48 24.2036 2648.57 24.2955 2648.69 24.3693C2648.81 24.4413 2648.93 24.5009 2649.06 24.5483C2649.19 24.5937 2649.31 24.6307 2649.41 24.6591L2650 24.8182C2650.16 24.858 2650.32 24.9129 2650.51 24.983C2650.7 25.053 2650.88 25.1487 2651.05 25.2699C2651.22 25.3892 2651.36 25.5426 2651.47 25.7301C2651.59 25.9176 2651.64 26.1477 2651.64 26.4205C2651.64 26.7348 2651.56 27.0189 2651.39 27.2727C2651.23 27.5265 2650.99 27.7282 2650.68 27.8778C2650.37 28.0275 2649.99 28.1023 2649.54 28.1023C2649.12 28.1023 2648.76 28.035 2648.46 27.9006C2648.15 27.7661 2647.91 27.5786 2647.74 27.3381C2647.57 27.0975 2647.47 26.8182 2647.45 26.5H2648.18C2648.19 26.7197 2648.27 26.9015 2648.4 27.0455C2648.53 27.1875 2648.69 27.2936 2648.89 27.3636C2649.09 27.4318 2649.31 27.4659 2649.54 27.4659C2649.81 27.4659 2650.05 27.4223 2650.26 27.3352C2650.48 27.2462 2650.65 27.1231 2650.77 26.9659C2650.9 26.8068 2650.96 26.6212 2650.96 26.4091C2650.96 26.2159 2650.91 26.0587 2650.8 25.9375C2650.69 25.8163 2650.55 25.7178 2650.37 25.642C2650.2 25.5663 2650 25.5 2649.8 25.4432L2649.08 25.2386C2648.63 25.108 2648.27 24.9214 2648 24.679C2647.74 24.4366 2647.61 24.1193 2647.61 23.7273C2647.61 23.4015 2647.7 23.1174 2647.87 22.875C2648.05 22.6307 2648.29 22.4413 2648.59 22.3068C2648.89 22.1705 2649.22 22.1023 2649.6 22.1023C2649.97 22.1023 2650.3 22.1695 2650.6 22.304C2650.89 22.4366 2651.12 22.6184 2651.29 22.8494C2651.46 23.0805 2651.55 23.3428 2651.56 23.6364H2650.88ZM2653.5 22.1818V28H2652.8V22.1818H2653.5ZM2659.53 22.1818V28H2658.85L2655.68 23.4318H2655.62V28H2654.92V22.1818H2655.6L2658.78 26.7614H2658.84V22.1818H2659.53ZM2660.94 28V22.1818H2664.45V22.8068H2661.64V24.7727H2664.27V25.3977H2661.64V27.375H2664.5V28H2660.94ZM2670.4 24H2669.7C2669.66 23.7973 2669.58 23.6193 2669.48 23.4659C2669.38 23.3125 2669.25 23.1837 2669.11 23.0795C2668.96 22.9735 2668.8 22.8939 2668.62 22.8409C2668.44 22.7879 2668.26 22.7614 2668.06 22.7614C2667.71 22.7614 2667.39 22.8504 2667.11 23.0284C2666.82 23.2064 2666.59 23.4688 2666.43 23.8153C2666.26 24.1619 2666.18 24.5871 2666.18 25.0909C2666.18 25.5947 2666.26 26.0199 2666.43 26.3665C2666.59 26.7131 2666.82 26.9754 2667.11 27.1534C2667.39 27.3314 2667.71 27.4205 2668.06 27.4205C2668.26 27.4205 2668.44 27.3939 2668.62 27.3409C2668.8 27.2879 2668.96 27.2093 2669.11 27.1051C2669.25 26.9991 2669.38 26.8693 2669.48 26.7159C2669.58 26.5606 2669.66 26.3826 2669.7 26.1818H2670.4C2670.35 26.4792 2670.25 26.7453 2670.11 26.9801C2669.97 27.215 2669.8 27.4148 2669.59 27.5795C2669.38 27.7424 2669.15 27.8665 2668.89 27.9517C2668.63 28.0369 2668.36 28.0795 2668.06 28.0795C2667.57 28.0795 2667.12 27.9583 2666.74 27.7159C2666.35 27.4735 2666.05 27.1288 2665.83 26.6818C2665.61 26.2348 2665.49 25.7045 2665.49 25.0909C2665.49 24.4773 2665.61 23.947 2665.83 23.5C2666.05 23.053 2666.35 22.7083 2666.74 22.4659C2667.12 22.2235 2667.57 22.1023 2668.06 22.1023C2668.36 22.1023 2668.63 22.1449 2668.89 22.2301C2669.15 22.3153 2669.38 22.4403 2669.59 22.6051C2669.8 22.768 2669.97 22.9669 2670.11 23.2017C2670.25 23.4347 2670.35 23.7008 2670.4 24Z" fill="white"/>
</g>
<g clip-path="url(#clip1_1458_23406)">
<g opacity="0.5">
<path d="M20.3462 86V92" stroke="white"/>
<path d="M34.6396 89V92" stroke="white"/>
<path d="M48.9326 89V92" stroke="white"/>
<path d="M63.2261 89V92" stroke="white"/>
<path d="M77.519 86V92" stroke="white"/>
<path d="M91.8125 89V92" stroke="white"/>
<path d="M106.106 89V92" stroke="white"/>
<path d="M120.399 89V92" stroke="white"/>
<path d="M134.692 86V92" stroke="white"/>
</g>
<path d="M134.692 82V92" stroke="white" stroke-opacity="0.75"/>
<g opacity="0.5">
<path d="M134.692 86V92" stroke="white"/>
<path d="M148.986 89V92" stroke="white"/>
<path d="M163.279 89V92" stroke="white"/>
<path d="M177.572 89V92" stroke="white"/>
<path d="M191.865 86V92" stroke="white"/>
<path d="M206.159 89V92" stroke="white"/>
<path d="M220.452 89V92" stroke="white"/>
<path d="M234.745 89V92" stroke="white"/>
<path d="M249.039 86V92" stroke="white"/>
<path d="M263.332 89V92" stroke="white"/>
<path d="M277.625 89V92" stroke="white"/>
<path d="M291.918 89V92" stroke="white"/>
<path d="M306.211 86V92" stroke="white"/>
<path d="M320.505 89V92" stroke="white"/>
<path d="M334.798 89V92" stroke="white"/>
<path d="M349.091 89V92" stroke="white"/>
<path d="M363.385 86V92" stroke="white"/>
</g>
<path d="M363.385 82V92" stroke="white" stroke-opacity="0.75"/>
<g opacity="0.5">
<path d="M363.385 86V92" stroke="white"/>
<path d="M377.678 89V92" stroke="white"/>
<path d="M391.971 89V92" stroke="white"/>
<path d="M406.265 89V92" stroke="white"/>
<path d="M420.558 86V92" stroke="white"/>
<path d="M434.851 89V92" stroke="white"/>
<path d="M449.145 89V92" stroke="white"/>
<path d="M463.438 89V92" stroke="white"/>
<path d="M477.731 86V92" stroke="white"/>
<path d="M492.024 89V92" stroke="white"/>
<path d="M506.317 89V92" stroke="white"/>
<path d="M520.611 89V92" stroke="white"/>
<path d="M534.904 86V92" stroke="white"/>
<path d="M549.197 89V92" stroke="white"/>
<path d="M563.491 89V92" stroke="white"/>
<path d="M577.784 89V92" stroke="white"/>
<path d="M592.077 86V92" stroke="white"/>
</g>
<path d="M592.077 82V92" stroke="white" stroke-opacity="0.75"/>
<g opacity="0.5">
<path d="M592.077 86V92" stroke="white"/>
<path d="M606.371 89V92" stroke="white"/>
<path d="M620.664 89V92" stroke="white"/>
<path d="M634.957 89V92" stroke="white"/>
<path d="M649.25 86V92" stroke="white"/>
<path d="M663.543 89V92" stroke="white"/>
<path d="M677.837 89V92" stroke="white"/>
<path d="M692.13 89V92" stroke="white"/>
<path d="M706.423 86V92" stroke="white"/>
<path d="M720.717 89V92" stroke="white"/>
<path d="M735.01 89V92" stroke="white"/>
<path d="M749.303 89V92" stroke="white"/>
<path d="M763.596 86V92" stroke="white"/>
<path d="M777.89 89V92" stroke="white"/>
<path d="M792.183 89V92" stroke="white"/>
<path d="M806.476 89V92" stroke="white"/>
<path d="M820.77 86V92" stroke="white"/>
</g>
<path d="M820.769 82V92" stroke="white" stroke-opacity="0.75"/>
<g opacity="0.5">
<path d="M820.769 86V92" stroke="white"/>
<path d="M835.062 89V92" stroke="white"/>
<path d="M849.355 89V92" stroke="white"/>
<path d="M863.649 89V92" stroke="white"/>
<path d="M877.942 86V92" stroke="white"/>
<path d="M892.235 89V92" stroke="white"/>
<path d="M906.529 89V92" stroke="white"/>
<path d="M920.822 89V92" stroke="white"/>
<path d="M935.115 86V92" stroke="white"/>
<path d="M949.408 89V92" stroke="white"/>
<path d="M963.702 89V92" stroke="white"/>
<path d="M977.995 89V92" stroke="white"/>
<path d="M992.288 86V92" stroke="white"/>
<path d="M1006.58 89V92" stroke="white"/>
<path d="M1020.87 89V92" stroke="white"/>
<path d="M1035.17 89V92" stroke="white"/>
<path d="M1049.46 86V92" stroke="white"/>
</g>
<path d="M1049.46 82V92" stroke="white" stroke-opacity="0.75"/>
<g opacity="0.5">
<path d="M1049.46 86V92" stroke="white"/>
<path d="M1063.75 89V92" stroke="white"/>
<path d="M1078.05 89V92" stroke="white"/>
<path d="M1092.34 89V92" stroke="white"/>
<path d="M1106.63 86V92" stroke="white"/>
<path d="M1120.93 89V92" stroke="white"/>
<path d="M1135.22 89V92" stroke="white"/>
<path d="M1149.51 89V92" stroke="white"/>
<path d="M1163.81 86V92" stroke="white"/>
<path d="M1178.1 89V92" stroke="white"/>
<path d="M1192.39 89V92" stroke="white"/>
<path d="M1206.69 89V92" stroke="white"/>
<path d="M1220.98 86V92" stroke="white"/>
<path d="M1235.27 89V92" stroke="white"/>
<path d="M1249.57 89V92" stroke="white"/>
<path d="M1263.86 89V92" stroke="white"/>
<path d="M1278.15 86V92" stroke="white"/>
</g>
<path d="M1278.15 82V92" stroke="white" stroke-opacity="0.75"/>
<g opacity="0.5">
<path d="M1278.15 86V92" stroke="white"/>
<path d="M1292.45 89V92" stroke="white"/>
<path d="M1306.74 89V92" stroke="white"/>
<path d="M1321.03 89V92" stroke="white"/>
<path d="M1335.33 86V92" stroke="white"/>
<path d="M1349.62 89V92" stroke="white"/>
<path d="M1363.91 89V92" stroke="white"/>
<path d="M1378.21 89V92" stroke="white"/>
<path d="M1392.5 86V92" stroke="white"/>
<path d="M1406.79 89V92" stroke="white"/>
<path d="M1421.09 89V92" stroke="white"/>
<path d="M1435.38 89V92" stroke="white"/>
<path d="M1449.67 86V92" stroke="white"/>
<path d="M1463.97 89V92" stroke="white"/>
<path d="M1478.26 89V92" stroke="white"/>
<path d="M1492.55 89V92" stroke="white"/>
<path d="M1506.85 86V92" stroke="white"/>
</g>
<path d="M1506.85 82V92" stroke="white" stroke-opacity="0.75"/>
<g opacity="0.5">
<path d="M1506.85 86V92" stroke="white"/>
<path d="M1521.14 89V92" stroke="white"/>
<path d="M1535.43 89V92" stroke="white"/>
<path d="M1549.73 89V92" stroke="white"/>
<path d="M1564.02 86V92" stroke="white"/>
<path d="M1578.31 89V92" stroke="white"/>
<path d="M1592.61 89V92" stroke="white"/>
<path d="M1606.9 89V92" stroke="white"/>
<path d="M1621.19 86V92" stroke="white"/>
<path d="M1635.49 89V92" stroke="white"/>
<path d="M1649.78 89V92" stroke="white"/>
<path d="M1664.07 89V92" stroke="white"/>
<path d="M1678.37 86V92" stroke="white"/>
<path d="M1692.66 89V92" stroke="white"/>
<path d="M1706.95 89V92" stroke="white"/>
<path d="M1721.25 89V92" stroke="white"/>
<path d="M1735.54 86V92" stroke="white"/>
</g>
<path d="M1735.54 82V92" stroke="white" stroke-opacity="0.75"/>
<g opacity="0.5">
<path d="M1735.54 86V92" stroke="white"/>
<path d="M1749.83 89V92" stroke="white"/>
<path d="M1764.12 89V92" stroke="white"/>
<path d="M1778.42 89V92" stroke="white"/>
<path d="M1792.71 86V92" stroke="white"/>
<path d="M1807 89V92" stroke="white"/>
<path d="M1821.3 89V92" stroke="white"/>
<path d="M1835.59 89V92" stroke="white"/>
<path d="M1849.88 86V92" stroke="white"/>
<path d="M1864.18 89V92" stroke="white"/>
<path d="M1878.47 89V92" stroke="white"/>
<path d="M1892.76 89V92" stroke="white"/>
<path d="M1907.06 86V92" stroke="white"/>
<path d="M1921.35 89V92" stroke="white"/>
<path d="M1935.64 89V92" stroke="white"/>
<path d="M1949.94 89V92" stroke="white"/>
<path d="M1964.23 86V92" stroke="white"/>
</g>
<path d="M1964.23 82V92" stroke="white" stroke-opacity="0.75"/>
<g opacity="0.5">
<path d="M1964.23 86V92" stroke="white"/>
<path d="M1978.52 89V92" stroke="white"/>
<path d="M1992.82 89V92" stroke="white"/>
<path d="M2007.11 89V92" stroke="white"/>
<path d="M2021.4 86V92" stroke="white"/>
<path d="M2035.7 89V92" stroke="white"/>
<path d="M2049.99 89V92" stroke="white"/>
<path d="M2064.28 89V92" stroke="white"/>
<path d="M2078.58 86V92" stroke="white"/>
<path d="M2092.87 89V92" stroke="white"/>
<path d="M2107.16 89V92" stroke="white"/>
<path d="M2121.46 89V92" stroke="white"/>
<path d="M2135.75 86V92" stroke="white"/>
<path d="M2150.04 89V92" stroke="white"/>
<path d="M2164.34 89V92" stroke="white"/>
<path d="M2178.63 89V92" stroke="white"/>
<path d="M2192.92 86V92" stroke="white"/>
</g>
<path d="M2192.92 82V92" stroke="white" stroke-opacity="0.75"/>
<g opacity="0.5">
<path d="M2192.92 86V92" stroke="white"/>
<path d="M2207.22 89V92" stroke="white"/>
<path d="M2221.51 89V92" stroke="white"/>
<path d="M2235.8 89V92" stroke="white"/>
<path d="M2250.1 86V92" stroke="white"/>
<path d="M2264.39 89V92" stroke="white"/>
<path d="M2278.68 89V92" stroke="white"/>
<path d="M2292.98 89V92" stroke="white"/>
<path d="M2307.27 86V92" stroke="white"/>
<path d="M2321.56 89V92" stroke="white"/>
<path d="M2335.86 89V92" stroke="white"/>
<path d="M2350.15 89V92" stroke="white"/>
<path d="M2364.44 86V92" stroke="white"/>
<path d="M2378.74 89V92" stroke="white"/>
<path d="M2393.03 89V92" stroke="white"/>
<path d="M2407.32 89V92" stroke="white"/>
<path d="M2421.62 86V92" stroke="white"/>
</g>
<path d="M2421.62 82V92" stroke="white" stroke-opacity="0.75"/>
<g opacity="0.5">
<path d="M2421.62 86V92" stroke="white"/>
<path d="M2435.91 89V92" stroke="white"/>
<path d="M2450.2 89V92" stroke="white"/>
<path d="M2464.5 89V92" stroke="white"/>
<path d="M2478.79 86V92" stroke="white"/>
<path d="M2493.08 89V92" stroke="white"/>
<path d="M2507.37 89V92" stroke="white"/>
<path d="M2521.67 89V92" stroke="white"/>
<path d="M2535.96 86V92" stroke="white"/>
<path d="M2550.25 89V92" stroke="white"/>
<path d="M2564.55 89V92" stroke="white"/>
<path d="M2578.84 89V92" stroke="white"/>
<path d="M2593.13 86V92" stroke="white"/>
<path d="M2607.43 89V92" stroke="white"/>
<path d="M2621.72 89V92" stroke="white"/>
<path d="M2636.01 89V92" stroke="white"/>
<path d="M2650.31 86V92" stroke="white"/>
</g>
<path d="M2650.31 82V92" stroke="white" stroke-opacity="0.75"/>
<g opacity="0.5">
<path d="M2650.31 86V92" stroke="white"/>
<path d="M2664.6 89V92" stroke="white"/>
<path d="M2678.89 89V92" stroke="white"/>
<path d="M2693.19 89V92" stroke="white"/>
<path d="M2707.48 86V92" stroke="white"/>
<path d="M2721.77 89V92" stroke="white"/>
<path d="M2736.07 89V92" stroke="white"/>
<path d="M2750.36 89V92" stroke="white"/>
<path d="M2764.65 86V92" stroke="white"/>
</g>
<path d="M117.485 68.1818H118.19V72.3409C118.19 72.7121 118.122 73.0275 117.985 73.2869C117.849 73.5464 117.657 73.7434 117.408 73.8778C117.16 74.0123 116.868 74.0795 116.531 74.0795C116.212 74.0795 115.929 74.0218 115.681 73.9062C115.433 73.7888 115.238 73.6222 115.096 73.4062C114.954 73.1903 114.883 72.9337 114.883 72.6364H115.576C115.576 72.8011 115.617 72.9451 115.698 73.0682C115.782 73.1894 115.895 73.2841 116.039 73.3523C116.183 73.4205 116.347 73.4545 116.531 73.4545C116.733 73.4545 116.906 73.4119 117.048 73.3267C117.19 73.2415 117.298 73.1165 117.372 72.9517C117.447 72.785 117.485 72.5814 117.485 72.3409V68.1818ZM119.84 74H119.102L121.238 68.1818H121.965L124.102 74H123.363L121.624 69.1023H121.579L119.84 74ZM120.113 71.7273H123.09V72.3523H120.113V71.7273ZM129.622 68.1818V74H128.94L125.769 69.4318H125.712V74H125.008V68.1818H125.69L128.872 72.7614H128.928V68.1818H129.622ZM134.85 68.1818H135.554V72.0341C135.554 72.4318 135.46 72.7869 135.273 73.0994C135.087 73.41 134.825 73.6553 134.486 73.8352C134.147 74.0133 133.749 74.1023 133.293 74.1023C132.836 74.1023 132.439 74.0133 132.1 73.8352C131.76 73.6553 131.497 73.41 131.31 73.0994C131.124 72.7869 131.031 72.4318 131.031 72.0341V68.1818H131.736V71.9773C131.736 72.2614 131.798 72.5142 131.923 72.7358C132.048 72.9555 132.226 73.1288 132.457 73.2557C132.69 73.3807 132.969 73.4432 133.293 73.4432C133.617 73.4432 133.895 73.3807 134.128 73.2557C134.361 73.1288 134.539 72.9555 134.662 72.7358C134.787 72.5142 134.85 72.2614 134.85 71.9773V68.1818ZM137.2 74H136.461L138.597 68.1818H139.325L141.461 74H140.722L138.984 69.1023H138.938L137.2 74ZM137.472 71.7273H140.45V72.3523H137.472V71.7273ZM142.367 74V68.1818H144.333C144.788 68.1818 145.161 68.2595 145.452 68.4148C145.744 68.5682 145.96 68.7794 146.1 69.0483C146.24 69.3172 146.31 69.6231 146.31 69.9659C146.31 70.3087 146.24 70.6127 146.1 70.8778C145.96 71.143 145.745 71.3513 145.455 71.5028C145.166 71.6525 144.795 71.7273 144.345 71.7273H142.754V71.0909H144.322C144.632 71.0909 144.882 71.0455 145.072 70.9545C145.263 70.8636 145.401 70.7348 145.487 70.5682C145.574 70.3996 145.617 70.1989 145.617 69.9659C145.617 69.733 145.574 69.5294 145.487 69.3551C145.399 69.1809 145.26 69.0464 145.069 68.9517C144.878 68.8551 144.625 68.8068 144.31 68.8068H143.072V74H142.367ZM145.106 71.3864L146.538 74H145.72L144.31 71.3864H145.106ZM146.789 68.1818H147.596L149.21 70.8977H149.278L150.891 68.1818H151.698L149.596 71.6023V74H148.891V71.6023L146.789 68.1818Z" fill="white"/>
<path d="M342.114 74V68.1818H345.602V68.8068H342.818V70.7727H345.341V71.3977H342.818V74H342.114ZM346.809 74V68.1818H350.321V68.8068H347.514V70.7727H350.139V71.3977H347.514V73.375H350.366V74H346.809ZM351.59 74V68.1818H353.625C354.03 68.1818 354.364 68.2519 354.627 68.392C354.891 68.5303 355.087 68.7169 355.215 68.9517C355.344 69.1847 355.409 69.4432 355.409 69.7273C355.409 69.9773 355.364 70.1837 355.275 70.3466C355.188 70.5095 355.072 70.6383 354.928 70.733C354.786 70.8277 354.632 70.8977 354.465 70.9432V71C354.643 71.0114 354.822 71.0739 355.002 71.1875C355.182 71.3011 355.333 71.464 355.454 71.6761C355.575 71.8883 355.636 72.1477 355.636 72.4545C355.636 72.7462 355.57 73.0085 355.437 73.2415C355.304 73.4744 355.095 73.6591 354.809 73.7955C354.523 73.9318 354.151 74 353.693 74H351.59ZM352.295 73.375H353.693C354.153 73.375 354.48 73.286 354.673 73.108C354.868 72.928 354.965 72.7102 354.965 72.4545C354.965 72.2576 354.915 72.0758 354.815 71.9091C354.714 71.7405 354.571 71.6061 354.386 71.5057C354.2 71.4034 353.981 71.3523 353.727 71.3523H352.295V73.375ZM352.295 70.7386H353.602C353.814 70.7386 354.005 70.697 354.176 70.6136C354.348 70.5303 354.484 70.4129 354.585 70.2614C354.687 70.1098 354.738 69.9318 354.738 69.7273C354.738 69.4716 354.649 69.2547 354.471 69.0767C354.293 68.8968 354.011 68.8068 353.625 68.8068H352.295V70.7386ZM356.794 74V68.1818H358.759C359.214 68.1818 359.587 68.2595 359.879 68.4148C360.17 68.5682 360.386 68.7794 360.526 69.0483C360.667 69.3172 360.737 69.6231 360.737 69.9659C360.737 70.3087 360.667 70.6127 360.526 70.8778C360.386 71.143 360.171 71.3513 359.882 71.5028C359.592 71.6525 359.222 71.7273 358.771 71.7273H357.18V71.0909H358.748C359.059 71.0909 359.309 71.0455 359.498 70.9545C359.689 70.8636 359.828 70.7348 359.913 70.5682C360 70.3996 360.044 70.1989 360.044 69.9659C360.044 69.733 360 69.5294 359.913 69.3551C359.826 69.1809 359.687 69.0464 359.495 68.9517C359.304 68.8551 359.051 68.8068 358.737 68.8068H357.498V74H356.794ZM359.532 71.3864L360.964 74H360.146L358.737 71.3864H359.532ZM365.729 68.1818H366.433V72.0341C366.433 72.4318 366.34 72.7869 366.152 73.0994C365.967 73.41 365.704 73.6553 365.365 73.8352C365.026 74.0133 364.629 74.1023 364.172 74.1023C363.716 74.1023 363.318 74.0133 362.979 73.8352C362.64 73.6553 362.377 73.41 362.189 73.0994C362.004 72.7869 361.911 72.4318 361.911 72.0341V68.1818H362.615V71.9773C362.615 72.2614 362.678 72.5142 362.803 72.7358C362.928 72.9555 363.106 73.1288 363.337 73.2557C363.57 73.3807 363.848 73.4432 364.172 73.4432C364.496 73.4432 364.774 73.3807 365.007 73.2557C365.24 73.1288 365.418 72.9555 365.541 72.7358C365.666 72.5142 365.729 72.2614 365.729 71.9773V68.1818ZM368.079 74H367.34L369.477 68.1818H370.204L372.34 74H371.602L369.863 69.1023H369.818L368.079 74ZM368.352 71.7273H371.329V72.3523H368.352V71.7273ZM373.247 74V68.1818H375.213C375.667 68.1818 376.04 68.2595 376.332 68.4148C376.624 68.5682 376.839 68.7794 376.98 69.0483C377.12 69.3172 377.19 69.6231 377.19 69.9659C377.19 70.3087 377.12 70.6127 376.98 70.8778C376.839 71.143 376.625 71.3513 376.335 71.5028C376.045 71.6525 375.675 71.7273 375.224 71.7273H373.633V71.0909H375.201C375.512 71.0909 375.762 71.0455 375.951 70.9545C376.142 70.8636 376.281 70.7348 376.366 70.5682C376.453 70.3996 376.497 70.1989 376.497 69.9659C376.497 69.733 376.453 69.5294 376.366 69.3551C376.279 69.1809 376.14 69.0464 375.948 68.9517C375.757 68.8551 375.504 68.8068 375.19 68.8068H373.951V74H373.247ZM375.985 71.3864L377.417 74H376.599L375.19 71.3864H375.985ZM377.669 68.1818H378.475L380.089 70.8977H380.157L381.771 68.1818H382.578L380.475 71.6023V74H379.771V71.6023L377.669 68.1818Z" fill="white"/>
<path d="M576.977 68.1818H577.818L579.795 73.0114H579.863L581.841 68.1818H582.682V74H582.023V69.5795H581.966L580.148 74H579.511L577.693 69.5795H577.636V74H576.977V68.1818ZM584.333 74H583.594L585.731 68.1818H586.458L588.594 74H587.856L586.117 69.1023H586.072L584.333 74ZM584.606 71.7273H587.583V72.3523H584.606V71.7273ZM589.501 74V68.1818H591.466C591.921 68.1818 592.294 68.2595 592.586 68.4148C592.877 68.5682 593.093 68.7794 593.234 69.0483C593.374 69.3172 593.444 69.6231 593.444 69.9659C593.444 70.3087 593.374 70.6127 593.234 70.8778C593.093 71.143 592.878 71.3513 592.589 71.5028C592.299 71.6525 591.929 71.7273 591.478 71.7273H589.887V71.0909H591.455C591.766 71.0909 592.016 71.0455 592.205 70.9545C592.396 70.8636 592.535 70.7348 592.62 70.5682C592.707 70.3996 592.751 70.1989 592.751 69.9659C592.751 69.733 592.707 69.5294 592.62 69.3551C592.533 69.1809 592.394 69.0464 592.202 68.9517C592.011 68.8551 591.758 68.8068 591.444 68.8068H590.205V74H589.501ZM592.239 71.3864L593.671 74H592.853L591.444 71.3864H592.239ZM599.3 70H598.595C598.553 69.7973 598.48 69.6193 598.376 69.4659C598.274 69.3125 598.149 69.1837 598.001 69.0795C597.855 68.9735 597.694 68.8939 597.515 68.8409C597.337 68.7879 597.152 68.7614 596.959 68.7614C596.606 68.7614 596.287 68.8504 596.001 69.0284C595.717 69.2064 595.491 69.4688 595.322 69.8153C595.156 70.1619 595.072 70.5871 595.072 71.0909C595.072 71.5947 595.156 72.0199 595.322 72.3665C595.491 72.7131 595.717 72.9754 596.001 73.1534C596.287 73.3314 596.606 73.4205 596.959 73.4205C597.152 73.4205 597.337 73.3939 597.515 73.3409C597.694 73.2879 597.855 73.2093 598.001 73.1051C598.149 72.9991 598.274 72.8693 598.376 72.7159C598.48 72.5606 598.553 72.3826 598.595 72.1818H599.3C599.247 72.4792 599.15 72.7453 599.01 72.9801C598.87 73.215 598.695 73.4148 598.487 73.5795C598.279 73.7424 598.045 73.8665 597.785 73.9517C597.528 74.0369 597.252 74.0795 596.959 74.0795C596.462 74.0795 596.021 73.9583 595.635 73.7159C595.248 73.4735 594.944 73.1288 594.723 72.6818C594.501 72.2348 594.39 71.7045 594.39 71.0909C594.39 70.4773 594.501 69.947 594.723 69.5C594.944 69.053 595.248 68.7083 595.635 68.4659C596.021 68.2235 596.462 68.1023 596.959 68.1023C597.252 68.1023 597.528 68.1449 597.785 68.2301C598.045 68.3153 598.279 68.4403 598.487 68.6051C598.695 68.768 598.87 68.9669 599.01 69.2017C599.15 69.4347 599.247 69.7008 599.3 70ZM600.438 74V68.1818H601.143V70.7727H604.245V68.1818H604.949V74H604.245V71.3977H601.143V74H600.438Z" fill="white"/>
<path d="M809.665 74H808.927L811.063 68.1818H811.79L813.927 74H813.188L811.449 69.1023H811.404L809.665 74ZM809.938 71.7273H812.915V72.3523H809.938V71.7273ZM814.833 74V68.1818H816.799C817.255 68.1818 817.628 68.2642 817.918 68.429C818.21 68.5919 818.426 68.8125 818.566 69.0909C818.706 69.3693 818.776 69.6799 818.776 70.0227C818.776 70.3655 818.706 70.6771 818.566 70.9574C818.428 71.2377 818.214 71.4612 817.924 71.6278C817.634 71.7926 817.263 71.875 816.81 71.875H815.401V71.25H816.787C817.1 71.25 817.351 71.196 817.54 71.0881C817.73 70.9801 817.867 70.8343 817.952 70.6506C818.039 70.465 818.083 70.2557 818.083 70.0227C818.083 69.7898 818.039 69.5814 817.952 69.3977C817.867 69.214 817.729 69.0701 817.537 68.9659C817.346 68.8598 817.092 68.8068 816.776 68.8068H815.537V74H814.833ZM819.911 74V68.1818H821.877C822.331 68.1818 822.705 68.2595 822.996 68.4148C823.288 68.5682 823.504 68.7794 823.644 69.0483C823.784 69.3172 823.854 69.6231 823.854 69.9659C823.854 70.3087 823.784 70.6127 823.644 70.8778C823.504 71.143 823.289 71.3513 822.999 71.5028C822.709 71.6525 822.339 71.7273 821.888 71.7273H820.297V71.0909H821.866C822.176 71.0909 822.426 71.0455 822.616 70.9545C822.807 70.8636 822.945 70.7348 823.03 70.5682C823.117 70.3996 823.161 70.1989 823.161 69.9659C823.161 69.733 823.117 69.5294 823.03 69.3551C822.943 69.1809 822.804 69.0464 822.613 68.9517C822.421 68.8551 822.169 68.8068 821.854 68.8068H820.616V74H819.911ZM822.65 71.3864L824.081 74H823.263L821.854 71.3864H822.65ZM825.733 68.1818V74H825.028V68.1818H825.733ZM827.145 74V68.1818H827.85V73.375H830.554V74H827.145Z" fill="white"/>
<path d="M1040.78 68.1818H1041.62L1043.6 73.0114H1043.66L1045.64 68.1818H1046.48V74H1045.82V69.5795H1045.77L1043.95 74H1043.31L1041.49 69.5795H1041.44V74H1040.78V68.1818ZM1048.13 74H1047.4L1049.53 68.1818H1050.26L1052.4 74H1051.66L1049.92 69.1023H1049.87L1048.13 74ZM1048.41 71.7273H1051.38V72.3523H1048.41V71.7273ZM1052.21 68.1818H1053.01L1054.63 70.8977H1054.7L1056.31 68.1818H1057.12L1055.01 71.6023V74H1054.31V71.6023L1052.21 68.1818Z" fill="white"/>
<path d="M1272.35 68.1818H1273.05V72.3409C1273.05 72.7121 1272.99 73.0275 1272.85 73.2869C1272.71 73.5464 1272.52 73.7434 1272.27 73.8778C1272.02 74.0123 1271.73 74.0795 1271.4 74.0795C1271.08 74.0795 1270.79 74.0218 1270.55 73.9062C1270.3 73.7888 1270.1 73.6222 1269.96 73.4062C1269.82 73.1903 1269.75 72.9337 1269.75 72.6364H1270.44C1270.44 72.8011 1270.48 72.9451 1270.56 73.0682C1270.65 73.1894 1270.76 73.2841 1270.9 73.3523C1271.05 73.4205 1271.21 73.4545 1271.4 73.4545C1271.6 73.4545 1271.77 73.4119 1271.91 73.3267C1272.05 73.2415 1272.16 73.1165 1272.24 72.9517C1272.31 72.785 1272.35 72.5814 1272.35 72.3409V68.1818ZM1278.28 68.1818H1278.99V72.0341C1278.99 72.4318 1278.9 72.7869 1278.71 73.0994C1278.52 73.41 1278.26 73.6553 1277.92 73.8352C1277.58 74.0133 1277.18 74.1023 1276.73 74.1023C1276.27 74.1023 1275.87 74.0133 1275.53 73.8352C1275.2 73.6553 1274.93 73.41 1274.74 73.0994C1274.56 72.7869 1274.47 72.4318 1274.47 72.0341V68.1818H1275.17V71.9773C1275.17 72.2614 1275.23 72.5142 1275.36 72.7358C1275.48 72.9555 1275.66 73.1288 1275.89 73.2557C1276.13 73.3807 1276.4 73.4432 1276.73 73.4432C1277.05 73.4432 1277.33 73.3807 1277.56 73.2557C1277.8 73.1288 1277.97 72.9555 1278.1 72.7358C1278.22 72.5142 1278.28 72.2614 1278.28 71.9773V68.1818ZM1285.01 68.1818V74H1284.33L1281.16 69.4318H1281.1V74H1280.4V68.1818H1281.08L1284.26 72.7614H1284.32V68.1818H1285.01Z" fill="white"/>
<path d="M1499.46 68.1818H1500.16V72.3409C1500.16 72.7121 1500.09 73.0275 1499.96 73.2869C1499.82 73.5464 1499.63 73.7434 1499.38 73.8778C1499.13 74.0123 1498.84 74.0795 1498.5 74.0795C1498.18 74.0795 1497.9 74.0218 1497.65 73.9062C1497.4 73.7888 1497.21 73.6222 1497.07 73.4062C1496.92 73.1903 1496.85 72.9337 1496.85 72.6364H1497.55C1497.55 72.8011 1497.59 72.9451 1497.67 73.0682C1497.75 73.1894 1497.87 73.2841 1498.01 73.3523C1498.15 73.4205 1498.32 73.4545 1498.5 73.4545C1498.7 73.4545 1498.88 73.4119 1499.02 73.3267C1499.16 73.2415 1499.27 73.1165 1499.34 72.9517C1499.42 72.785 1499.46 72.5814 1499.46 72.3409V68.1818ZM1505.39 68.1818H1506.09V72.0341C1506.09 72.4318 1506 72.7869 1505.81 73.0994C1505.63 73.41 1505.37 73.6553 1505.03 73.8352C1504.69 74.0133 1504.29 74.1023 1503.83 74.1023C1503.38 74.1023 1502.98 74.0133 1502.64 73.8352C1502.3 73.6553 1502.04 73.41 1501.85 73.0994C1501.66 72.7869 1501.57 72.4318 1501.57 72.0341V68.1818H1502.28V71.9773C1502.28 72.2614 1502.34 72.5142 1502.46 72.7358C1502.59 72.9555 1502.77 73.1288 1503 73.2557C1503.23 73.3807 1503.51 73.4432 1503.83 73.4432C1504.16 73.4432 1504.44 73.3807 1504.67 73.2557C1504.9 73.1288 1505.08 72.9555 1505.2 72.7358C1505.33 72.5142 1505.39 72.2614 1505.39 71.9773V68.1818ZM1507.5 74V68.1818H1508.21V73.375H1510.91V74H1507.5ZM1511.23 68.1818H1512.03L1513.65 70.8977H1513.72L1515.33 68.1818H1516.14L1514.03 71.6023V74H1513.33V71.6023L1511.23 68.1818Z" fill="white"/>
<path d="M1719.52 74H1718.78L1720.92 68.1818H1721.65L1723.78 74H1723.04L1721.31 69.1023H1721.26L1719.52 74ZM1719.79 71.7273H1722.77V72.3523H1719.79V71.7273ZM1728.51 68.1818H1729.21V72.0341C1729.21 72.4318 1729.12 72.7869 1728.93 73.0994C1728.75 73.41 1728.48 73.6553 1728.14 73.8352C1727.8 74.0133 1727.41 74.1023 1726.95 74.1023C1726.49 74.1023 1726.1 74.0133 1725.76 73.8352C1725.42 73.6553 1725.16 73.41 1724.97 73.0994C1724.78 72.7869 1724.69 72.4318 1724.69 72.0341V68.1818H1725.39V71.9773C1725.39 72.2614 1725.46 72.5142 1725.58 72.7358C1725.71 72.9555 1725.88 73.1288 1726.12 73.2557C1726.35 73.3807 1726.63 73.4432 1726.95 73.4432C1727.27 73.4432 1727.55 73.3807 1727.79 73.2557C1728.02 73.1288 1728.2 72.9555 1728.32 72.7358C1728.44 72.5142 1728.51 72.2614 1728.51 71.9773V68.1818ZM1734.6 70C1734.53 69.8087 1734.45 69.6373 1734.35 69.4858C1734.25 69.3324 1734.13 69.2017 1733.99 69.0938C1733.85 68.9858 1733.69 68.9034 1733.52 68.8466C1733.34 68.7898 1733.15 68.7614 1732.94 68.7614C1732.59 68.7614 1732.28 68.8504 1732 69.0284C1731.71 69.2064 1731.49 69.4688 1731.32 69.8153C1731.16 70.1619 1731.07 70.5871 1731.07 71.0909C1731.07 71.5947 1731.16 72.0199 1731.33 72.3665C1731.49 72.7131 1731.72 72.9754 1732.01 73.1534C1732.3 73.3314 1732.62 73.4205 1732.98 73.4205C1733.32 73.4205 1733.61 73.3494 1733.86 73.2074C1734.12 73.0634 1734.32 72.8608 1734.46 72.5994C1734.6 72.3362 1734.68 72.0265 1734.68 71.6705L1734.89 71.7159H1733.14V71.0909H1735.36V71.7159C1735.36 72.1951 1735.26 72.6117 1735.05 72.9659C1734.85 73.3201 1734.57 73.5947 1734.21 73.7898C1733.85 73.983 1733.44 74.0795 1732.98 74.0795C1732.47 74.0795 1732.01 73.9583 1731.62 73.7159C1731.24 73.4735 1730.93 73.1288 1730.72 72.6818C1730.5 72.2348 1730.39 71.7045 1730.39 71.0909C1730.39 70.6307 1730.45 70.2169 1730.58 69.8494C1730.7 69.4801 1730.88 69.1657 1731.1 68.9062C1731.33 68.6468 1731.6 68.4479 1731.91 68.3097C1732.22 68.1714 1732.56 68.1023 1732.94 68.1023C1733.24 68.1023 1733.53 68.1487 1733.8 68.2415C1734.06 68.3324 1734.3 68.4621 1734.51 68.6307C1734.72 68.7973 1734.89 68.9972 1735.03 69.2301C1735.17 69.4612 1735.27 69.7178 1735.32 70H1734.6ZM1740.38 68.1818H1741.09V72.0341C1741.09 72.4318 1740.99 72.7869 1740.81 73.0994C1740.62 73.41 1740.36 73.6553 1740.02 73.8352C1739.68 74.0133 1739.28 74.1023 1738.83 74.1023C1738.37 74.1023 1737.97 74.0133 1737.63 73.8352C1737.29 73.6553 1737.03 73.41 1736.84 73.0994C1736.66 72.7869 1736.56 72.4318 1736.56 72.0341V68.1818H1737.27V71.9773C1737.27 72.2614 1737.33 72.5142 1737.46 72.7358C1737.58 72.9555 1737.76 73.1288 1737.99 73.2557C1738.22 73.3807 1738.5 73.4432 1738.83 73.4432C1739.15 73.4432 1739.43 73.3807 1739.66 73.2557C1739.89 73.1288 1740.07 72.9555 1740.19 72.7358C1740.32 72.5142 1740.38 72.2614 1740.38 71.9773V68.1818ZM1745.68 69.6364C1745.64 69.3485 1745.5 69.125 1745.26 68.9659C1745.02 68.8068 1744.72 68.7273 1744.37 68.7273C1744.11 68.7273 1743.89 68.7689 1743.69 68.8523C1743.5 68.9356 1743.35 69.0502 1743.24 69.196C1743.14 69.3419 1743.08 69.5076 1743.08 69.6932C1743.08 69.8485 1743.12 69.982 1743.2 70.0938C1743.27 70.2036 1743.37 70.2955 1743.49 70.3693C1743.6 70.4413 1743.73 70.5009 1743.85 70.5483C1743.98 70.5937 1744.1 70.6307 1744.21 70.6591L1744.8 70.8182C1744.95 70.858 1745.12 70.9129 1745.31 70.983C1745.49 71.053 1745.67 71.1487 1745.84 71.2699C1746.02 71.3892 1746.16 71.5426 1746.27 71.7301C1746.38 71.9176 1746.44 72.1477 1746.44 72.4205C1746.44 72.7348 1746.35 73.0189 1746.19 73.2727C1746.03 73.5265 1745.79 73.7282 1745.47 73.8778C1745.16 74.0275 1744.78 74.1023 1744.33 74.1023C1743.92 74.1023 1743.56 74.035 1743.25 73.9006C1742.95 73.7661 1742.71 73.5786 1742.54 73.3381C1742.36 73.0975 1742.27 72.8182 1742.24 72.5H1742.97C1742.99 72.7197 1743.06 72.9015 1743.19 73.0455C1743.32 73.1875 1743.49 73.2936 1743.69 73.3636C1743.89 73.4318 1744.1 73.4659 1744.33 73.4659C1744.6 73.4659 1744.85 73.4223 1745.06 73.3352C1745.27 73.2462 1745.44 73.1231 1745.57 72.9659C1745.69 72.8068 1745.76 72.6212 1745.76 72.4091C1745.76 72.2159 1745.7 72.0587 1745.59 71.9375C1745.49 71.8163 1745.34 71.7178 1745.17 71.642C1744.99 71.5663 1744.8 71.5 1744.6 71.4432L1743.88 71.2386C1743.43 71.108 1743.07 70.9214 1742.8 70.679C1742.54 70.4366 1742.4 70.1193 1742.4 69.7273C1742.4 69.4015 1742.49 69.1174 1742.67 68.875C1742.85 68.6307 1743.08 68.4413 1743.38 68.3068C1743.68 68.1705 1744.02 68.1023 1744.39 68.1023C1744.77 68.1023 1745.1 68.1695 1745.39 68.304C1745.68 68.4366 1745.91 68.6184 1746.08 68.8494C1746.26 69.0805 1746.35 69.3428 1746.36 69.6364H1745.68ZM1747.28 68.8068V68.1818H1751.64V68.8068H1749.81V74H1749.11V68.8068H1747.28Z" fill="white"/>
<path d="M1944.51 69.6364C1944.47 69.3485 1944.34 69.125 1944.09 68.9659C1943.85 68.8068 1943.55 68.7273 1943.2 68.7273C1942.94 68.7273 1942.72 68.7689 1942.53 68.8523C1942.33 68.9356 1942.18 69.0502 1942.08 69.196C1941.97 69.3419 1941.92 69.5076 1941.92 69.6932C1941.92 69.8485 1941.95 69.982 1942.03 70.0938C1942.1 70.2036 1942.2 70.2955 1942.32 70.3693C1942.44 70.4413 1942.56 70.5009 1942.69 70.5483C1942.82 70.5937 1942.93 70.6307 1943.04 70.6591L1943.63 70.8182C1943.78 70.858 1943.95 70.9129 1944.14 70.983C1944.33 71.053 1944.51 71.1487 1944.68 71.2699C1944.85 71.3892 1944.99 71.5426 1945.1 71.7301C1945.21 71.9176 1945.27 72.1477 1945.27 72.4205C1945.27 72.7348 1945.19 73.0189 1945.02 73.2727C1944.86 73.5265 1944.62 73.7282 1944.31 73.8778C1943.99 74.0275 1943.61 74.1023 1943.17 74.1023C1942.75 74.1023 1942.39 74.035 1942.08 73.9006C1941.78 73.7661 1941.54 73.5786 1941.37 73.3381C1941.2 73.0975 1941.1 72.8182 1941.08 72.5H1941.8C1941.82 72.7197 1941.9 72.9015 1942.03 73.0455C1942.16 73.1875 1942.32 73.2936 1942.52 73.3636C1942.72 73.4318 1942.94 73.4659 1943.17 73.4659C1943.44 73.4659 1943.68 73.4223 1943.89 73.3352C1944.11 73.2462 1944.28 73.1231 1944.4 72.9659C1944.53 72.8068 1944.59 72.6212 1944.59 72.4091C1944.59 72.2159 1944.53 72.0587 1944.43 71.9375C1944.32 71.8163 1944.18 71.7178 1944 71.642C1943.82 71.5663 1943.63 71.5 1943.43 71.4432L1942.71 71.2386C1942.26 71.108 1941.9 70.9214 1941.63 70.679C1941.37 70.4366 1941.24 70.1193 1941.24 69.7273C1941.24 69.4015 1941.32 69.1174 1941.5 68.875C1941.68 68.6307 1941.92 68.4413 1942.22 68.3068C1942.52 68.1705 1942.85 68.1023 1943.22 68.1023C1943.6 68.1023 1943.93 68.1695 1944.22 68.304C1944.52 68.4366 1944.75 68.6184 1944.92 68.8494C1945.09 69.0805 1945.18 69.3428 1945.19 69.6364H1944.51ZM1946.43 74V68.1818H1949.94V68.8068H1947.13V70.7727H1949.76V71.3977H1947.13V73.375H1949.98V74H1946.43ZM1951.21 74V68.1818H1953.17C1953.63 68.1818 1954 68.2642 1954.29 68.429C1954.59 68.5919 1954.8 68.8125 1954.94 69.0909C1955.08 69.3693 1955.15 69.6799 1955.15 70.0227C1955.15 70.3655 1955.08 70.6771 1954.94 70.9574C1954.8 71.2377 1954.59 71.4612 1954.3 71.6278C1954.01 71.7926 1953.64 71.875 1953.19 71.875H1951.78V71.25H1953.16C1953.48 71.25 1953.73 71.196 1953.92 71.0881C1954.11 70.9801 1954.24 70.8343 1954.33 70.6506C1954.42 70.465 1954.46 70.2557 1954.46 70.0227C1954.46 69.7898 1954.42 69.5814 1954.33 69.3977C1954.24 69.214 1954.1 69.0701 1953.91 68.9659C1953.72 68.8598 1953.47 68.8068 1953.15 68.8068H1951.91V74H1951.21ZM1955.97 68.8068V68.1818H1960.33V68.8068H1958.5V74H1957.8V68.8068H1955.97ZM1961.42 74V68.1818H1964.93V68.8068H1962.12V70.7727H1964.75V71.3977H1962.12V73.375H1964.98V74H1961.42ZM1966.2 68.1818H1967.04L1969.02 73.0114H1969.09L1971.06 68.1818H1971.91V74H1971.25V69.5795H1971.19L1969.37 74H1968.74L1966.92 69.5795H1966.86V74H1966.2V68.1818ZM1973.32 74V68.1818H1975.35C1975.76 68.1818 1976.09 68.2519 1976.36 68.392C1976.62 68.5303 1976.81 68.7169 1976.94 68.9517C1977.07 69.1847 1977.14 69.4432 1977.14 69.7273C1977.14 69.9773 1977.09 70.1837 1977 70.3466C1976.92 70.5095 1976.8 70.6383 1976.66 70.733C1976.51 70.8277 1976.36 70.8977 1976.19 70.9432V71C1976.37 71.0114 1976.55 71.0739 1976.73 71.1875C1976.91 71.3011 1977.06 71.464 1977.18 71.6761C1977.3 71.8883 1977.36 72.1477 1977.36 72.4545C1977.36 72.7462 1977.3 73.0085 1977.17 73.2415C1977.03 73.4744 1976.82 73.6591 1976.54 73.7955C1976.25 73.9318 1975.88 74 1975.42 74H1973.32ZM1974.02 73.375H1975.42C1975.88 73.375 1976.21 73.286 1976.4 73.108C1976.6 72.928 1976.69 72.7102 1976.69 72.4545C1976.69 72.2576 1976.64 72.0758 1976.54 71.9091C1976.44 71.7405 1976.3 71.6061 1976.11 71.5057C1975.93 71.4034 1975.71 71.3523 1975.45 71.3523H1974.02V73.375ZM1974.02 70.7386H1975.33C1975.54 70.7386 1975.73 70.697 1975.9 70.6136C1976.08 70.5303 1976.21 70.4129 1976.31 70.2614C1976.42 70.1098 1976.47 69.9318 1976.47 69.7273C1976.47 69.4716 1976.38 69.2547 1976.2 69.0767C1976.02 68.8968 1975.74 68.8068 1975.35 68.8068H1974.02V70.7386ZM1978.52 74V68.1818H1982.03V68.8068H1979.23V70.7727H1981.85V71.3977H1979.23V73.375H1982.08V74H1978.52ZM1983.3 74V68.1818H1985.27C1985.72 68.1818 1986.1 68.2595 1986.39 68.4148C1986.68 68.5682 1986.9 68.7794 1987.04 69.0483C1987.18 69.3172 1987.25 69.6231 1987.25 69.9659C1987.25 70.3087 1987.18 70.6127 1987.04 70.8778C1986.9 71.143 1986.68 71.3513 1986.39 71.5028C1986.1 71.6525 1985.73 71.7273 1985.28 71.7273H1983.69V71.0909H1985.26C1985.57 71.0909 1985.82 71.0455 1986.01 70.9545C1986.2 70.8636 1986.34 70.7348 1986.42 70.5682C1986.51 70.3996 1986.55 70.1989 1986.55 69.9659C1986.55 69.733 1986.51 69.5294 1986.42 69.3551C1986.34 69.1809 1986.2 69.0464 1986 68.9517C1985.81 68.8551 1985.56 68.8068 1985.25 68.8068H1984.01V74H1983.3ZM1986.04 71.3864L1987.47 74H1986.66L1985.25 71.3864H1986.04Z" fill="white"/>
<path d="M2179.65 71.0909C2179.65 71.7045 2179.54 72.2348 2179.32 72.6818C2179.1 73.1288 2178.79 73.4735 2178.41 73.7159C2178.02 73.9583 2177.58 74.0795 2177.08 74.0795C2176.59 74.0795 2176.14 73.9583 2175.76 73.7159C2175.37 73.4735 2175.07 73.1288 2174.85 72.6818C2174.62 72.2348 2174.51 71.7045 2174.51 71.0909C2174.51 70.4773 2174.62 69.947 2174.85 69.5C2175.07 69.053 2175.37 68.7083 2175.76 68.4659C2176.14 68.2235 2176.59 68.1023 2177.08 68.1023C2177.58 68.1023 2178.02 68.2235 2178.41 68.4659C2178.79 68.7083 2179.1 69.053 2179.32 69.5C2179.54 69.947 2179.65 70.4773 2179.65 71.0909ZM2178.97 71.0909C2178.97 70.5871 2178.88 70.1619 2178.71 69.8153C2178.55 69.4688 2178.32 69.2064 2178.04 69.0284C2177.75 68.8504 2177.43 68.7614 2177.08 68.7614C2176.73 68.7614 2176.41 68.8504 2176.12 69.0284C2175.84 69.2064 2175.61 69.4688 2175.45 69.8153C2175.28 70.1619 2175.2 70.5871 2175.2 71.0909C2175.2 71.5947 2175.28 72.0199 2175.45 72.3665C2175.61 72.7131 2175.84 72.9754 2176.12 73.1534C2176.41 73.3314 2176.73 73.4205 2177.08 73.4205C2177.43 73.4205 2177.75 73.3314 2178.04 73.1534C2178.32 72.9754 2178.55 72.7131 2178.71 72.3665C2178.88 72.0199 2178.97 71.5947 2178.97 71.0909ZM2185.52 70H2184.81C2184.77 69.7973 2184.7 69.6193 2184.59 69.4659C2184.49 69.3125 2184.37 69.1837 2184.22 69.0795C2184.07 68.9735 2183.91 68.8939 2183.73 68.8409C2183.55 68.7879 2183.37 68.7614 2183.18 68.7614C2182.82 68.7614 2182.5 68.8504 2182.22 69.0284C2181.93 69.2064 2181.71 69.4688 2181.54 69.8153C2181.37 70.1619 2181.29 70.5871 2181.29 71.0909C2181.29 71.5947 2181.37 72.0199 2181.54 72.3665C2181.71 72.7131 2181.93 72.9754 2182.22 73.1534C2182.5 73.3314 2182.82 73.4205 2183.18 73.4205C2183.37 73.4205 2183.55 73.3939 2183.73 73.3409C2183.91 73.2879 2184.07 73.2093 2184.22 73.1051C2184.37 72.9991 2184.49 72.8693 2184.59 72.7159C2184.7 72.5606 2184.77 72.3826 2184.81 72.1818H2185.52C2185.46 72.4792 2185.37 72.7453 2185.23 72.9801C2185.09 73.215 2184.91 73.4148 2184.7 73.5795C2184.5 73.7424 2184.26 73.8665 2184 73.9517C2183.74 74.0369 2183.47 74.0795 2183.18 74.0795C2182.68 74.0795 2182.24 73.9583 2181.85 73.7159C2181.46 73.4735 2181.16 73.1288 2180.94 72.6818C2180.72 72.2348 2180.61 71.7045 2180.61 71.0909C2180.61 70.4773 2180.72 69.947 2180.94 69.5C2181.16 69.053 2181.46 68.7083 2181.85 68.4659C2182.24 68.2235 2182.68 68.1023 2183.18 68.1023C2183.47 68.1023 2183.74 68.1449 2184 68.2301C2184.26 68.3153 2184.5 68.4403 2184.7 68.6051C2184.91 68.768 2185.09 68.9669 2185.23 69.2017C2185.37 69.4347 2185.46 69.7008 2185.52 70ZM2186.34 68.8068V68.1818H2190.7V68.8068H2188.87V74H2188.17V68.8068H2186.34ZM2196.45 71.0909C2196.45 71.7045 2196.34 72.2348 2196.12 72.6818C2195.9 73.1288 2195.6 73.4735 2195.21 73.7159C2194.82 73.9583 2194.38 74.0795 2193.89 74.0795C2193.39 74.0795 2192.95 73.9583 2192.56 73.7159C2192.18 73.4735 2191.87 73.1288 2191.65 72.6818C2191.43 72.2348 2191.32 71.7045 2191.32 71.0909C2191.32 70.4773 2191.43 69.947 2191.65 69.5C2191.87 69.053 2192.18 68.7083 2192.56 68.4659C2192.95 68.2235 2193.39 68.1023 2193.89 68.1023C2194.38 68.1023 2194.82 68.2235 2195.21 68.4659C2195.6 68.7083 2195.9 69.053 2196.12 69.5C2196.34 69.947 2196.45 70.4773 2196.45 71.0909ZM2195.77 71.0909C2195.77 70.5871 2195.69 70.1619 2195.52 69.8153C2195.35 69.4688 2195.13 69.2064 2194.84 69.0284C2194.56 68.8504 2194.24 68.7614 2193.89 68.7614C2193.53 68.7614 2193.21 68.8504 2192.93 69.0284C2192.64 69.2064 2192.42 69.4688 2192.25 69.8153C2192.08 70.1619 2192 70.5871 2192 71.0909C2192 71.5947 2192.08 72.0199 2192.25 72.3665C2192.42 72.7131 2192.64 72.9754 2192.93 73.1534C2193.21 73.3314 2193.53 73.4205 2193.89 73.4205C2194.24 73.4205 2194.56 73.3314 2194.84 73.1534C2195.13 72.9754 2195.35 72.7131 2195.52 72.3665C2195.69 72.0199 2195.77 71.5947 2195.77 71.0909ZM2197.64 74V68.1818H2199.67C2200.08 68.1818 2200.41 68.2519 2200.68 68.392C2200.94 68.5303 2201.14 68.7169 2201.26 68.9517C2201.39 69.1847 2201.46 69.4432 2201.46 69.7273C2201.46 69.9773 2201.41 70.1837 2201.32 70.3466C2201.24 70.5095 2201.12 70.6383 2200.98 70.733C2200.84 70.8277 2200.68 70.8977 2200.51 70.9432V71C2200.69 71.0114 2200.87 71.0739 2201.05 71.1875C2201.23 71.3011 2201.38 71.464 2201.5 71.6761C2201.62 71.8883 2201.68 72.1477 2201.68 72.4545C2201.68 72.7462 2201.62 73.0085 2201.49 73.2415C2201.35 73.4744 2201.14 73.6591 2200.86 73.7955C2200.57 73.9318 2200.2 74 2199.74 74H2197.64ZM2198.34 73.375H2199.74C2200.2 73.375 2200.53 73.286 2200.72 73.108C2200.92 72.928 2201.01 72.7102 2201.01 72.4545C2201.01 72.2576 2200.96 72.0758 2200.86 71.9091C2200.76 71.7405 2200.62 71.6061 2200.43 71.5057C2200.25 71.4034 2200.03 71.3523 2199.78 71.3523H2198.34V73.375ZM2198.34 70.7386H2199.65C2199.86 70.7386 2200.05 70.697 2200.22 70.6136C2200.4 70.5303 2200.53 70.4129 2200.63 70.2614C2200.74 70.1098 2200.79 69.9318 2200.79 69.7273C2200.79 69.4716 2200.7 69.2547 2200.52 69.0767C2200.34 68.8968 2200.06 68.8068 2199.67 68.8068H2198.34V70.7386ZM2202.84 74V68.1818H2206.35V68.8068H2203.55V70.7727H2206.17V71.3977H2203.55V73.375H2206.4V74H2202.84ZM2207.62 74V68.1818H2209.59C2210.04 68.1818 2210.42 68.2595 2210.71 68.4148C2211 68.5682 2211.22 68.7794 2211.36 69.0483C2211.5 69.3172 2211.57 69.6231 2211.57 69.9659C2211.57 70.3087 2211.5 70.6127 2211.36 70.8778C2211.22 71.143 2211 71.3513 2210.71 71.5028C2210.42 71.6525 2210.05 71.7273 2209.6 71.7273H2208.01V71.0909H2209.58C2209.89 71.0909 2210.14 71.0455 2210.33 70.9545C2210.52 70.8636 2210.66 70.7348 2210.74 70.5682C2210.83 70.3996 2210.87 70.1989 2210.87 69.9659C2210.87 69.733 2210.83 69.5294 2210.74 69.3551C2210.66 69.1809 2210.52 69.0464 2210.33 68.9517C2210.13 68.8551 2209.88 68.8068 2209.57 68.8068H2208.33V74H2207.62ZM2210.36 71.3864L2211.79 74H2210.98L2209.57 71.3864H2210.36Z" fill="white"/>
<path d="M2405.1 68.1818V74H2404.41L2401.24 69.4318H2401.19V74H2400.48V68.1818H2401.16L2404.35 72.7614H2404.4V68.1818H2405.1ZM2411.42 71.0909C2411.42 71.7045 2411.3 72.2348 2411.08 72.6818C2410.86 73.1288 2410.56 73.4735 2410.17 73.7159C2409.78 73.9583 2409.34 74.0795 2408.85 74.0795C2408.35 74.0795 2407.91 73.9583 2407.52 73.7159C2407.14 73.4735 2406.83 73.1288 2406.61 72.6818C2406.39 72.2348 2406.28 71.7045 2406.28 71.0909C2406.28 70.4773 2406.39 69.947 2406.61 69.5C2406.83 69.053 2407.14 68.7083 2407.52 68.4659C2407.91 68.2235 2408.35 68.1023 2408.85 68.1023C2409.34 68.1023 2409.78 68.2235 2410.17 68.4659C2410.56 68.7083 2410.86 69.053 2411.08 69.5C2411.3 69.947 2411.42 70.4773 2411.42 71.0909ZM2410.73 71.0909C2410.73 70.5871 2410.65 70.1619 2410.48 69.8153C2410.31 69.4688 2410.09 69.2064 2409.8 69.0284C2409.52 68.8504 2409.2 68.7614 2408.85 68.7614C2408.5 68.7614 2408.18 68.8504 2407.89 69.0284C2407.61 69.2064 2407.38 69.4688 2407.21 69.8153C2407.04 70.1619 2406.96 70.5871 2406.96 71.0909C2406.96 71.5947 2407.04 72.0199 2407.21 72.3665C2407.38 72.7131 2407.61 72.9754 2407.89 73.1534C2408.18 73.3314 2408.5 73.4205 2408.85 73.4205C2409.2 73.4205 2409.52 73.3314 2409.8 73.1534C2410.09 72.9754 2410.31 72.7131 2410.48 72.3665C2410.65 72.0199 2410.73 71.5947 2410.73 71.0909ZM2412.57 68.1818L2414.29 73.0795H2414.36L2416.09 68.1818H2416.83L2414.69 74H2413.96L2411.83 68.1818H2412.57ZM2417.73 74V68.1818H2421.24V68.8068H2418.44V70.7727H2421.06V71.3977H2418.44V73.375H2421.29V74H2417.73ZM2422.51 68.1818H2423.36L2425.33 73.0114H2425.4L2427.38 68.1818H2428.22V74H2427.56V69.5795H2427.5L2425.68 74H2425.05L2423.23 69.5795H2423.17V74H2422.51V68.1818ZM2429.63 74V68.1818H2431.67C2432.07 68.1818 2432.41 68.2519 2432.67 68.392C2432.93 68.5303 2433.13 68.7169 2433.26 68.9517C2433.39 69.1847 2433.45 69.4432 2433.45 69.7273C2433.45 69.9773 2433.41 70.1837 2433.32 70.3466C2433.23 70.5095 2433.11 70.6383 2432.97 70.733C2432.83 70.8277 2432.67 70.8977 2432.51 70.9432V71C2432.68 71.0114 2432.86 71.0739 2433.04 71.1875C2433.22 71.3011 2433.37 71.464 2433.5 71.6761C2433.62 71.8883 2433.68 72.1477 2433.68 72.4545C2433.68 72.7462 2433.61 73.0085 2433.48 73.2415C2433.35 73.4744 2433.14 73.6591 2432.85 73.7955C2432.56 73.9318 2432.19 74 2431.73 74H2429.63ZM2430.34 73.375H2431.73C2432.19 73.375 2432.52 73.286 2432.71 73.108C2432.91 72.928 2433.01 72.7102 2433.01 72.4545C2433.01 72.2576 2432.96 72.0758 2432.86 71.9091C2432.76 71.7405 2432.61 71.6061 2432.43 71.5057C2432.24 71.4034 2432.02 71.3523 2431.77 71.3523H2430.34V73.375ZM2430.34 70.7386H2431.64C2431.85 70.7386 2432.05 70.697 2432.22 70.6136C2432.39 70.5303 2432.53 70.4129 2432.63 70.2614C2432.73 70.1098 2432.78 69.9318 2432.78 69.7273C2432.78 69.4716 2432.69 69.2547 2432.51 69.0767C2432.33 68.8968 2432.05 68.8068 2431.67 68.8068H2430.34V70.7386ZM2434.83 74V68.1818H2438.35V68.8068H2435.54V70.7727H2438.16V71.3977H2435.54V73.375H2438.39V74H2434.83ZM2439.62 74V68.1818H2441.58C2442.04 68.1818 2442.41 68.2595 2442.7 68.4148C2442.99 68.5682 2443.21 68.7794 2443.35 69.0483C2443.49 69.3172 2443.56 69.6231 2443.56 69.9659C2443.56 70.3087 2443.49 70.6127 2443.35 70.8778C2443.21 71.143 2442.99 71.3513 2442.7 71.5028C2442.41 71.6525 2442.04 71.7273 2441.59 71.7273H2440V71.0909H2441.57C2441.88 71.0909 2442.13 71.0455 2442.32 70.9545C2442.51 70.8636 2442.65 70.7348 2442.74 70.5682C2442.82 70.3996 2442.87 70.1989 2442.87 69.9659C2442.87 69.733 2442.82 69.5294 2442.74 69.3551C2442.65 69.1809 2442.51 69.0464 2442.32 68.9517C2442.13 68.8551 2441.87 68.8068 2441.56 68.8068H2440.32V74H2439.62ZM2442.35 71.3864L2443.79 74H2442.97L2441.56 71.3864H2442.35Z" fill="white"/>
<path d="M2631.6 74H2629.8V68.1818H2631.67C2632.24 68.1818 2632.72 68.2983 2633.12 68.5312C2633.53 68.7623 2633.83 69.0947 2634.05 69.5284C2634.26 69.9602 2634.37 70.4773 2634.37 71.0795C2634.37 71.6856 2634.26 72.2074 2634.04 72.6449C2633.83 73.0805 2633.51 73.4157 2633.1 73.6506C2632.69 73.8835 2632.19 74 2631.6 74ZM2630.5 73.375H2631.55C2632.03 73.375 2632.43 73.2822 2632.75 73.0966C2633.06 72.911 2633.3 72.6468 2633.45 72.304C2633.61 71.9612 2633.69 71.553 2633.69 71.0795C2633.69 70.6098 2633.61 70.2055 2633.46 69.8665C2633.3 69.5256 2633.07 69.2642 2632.77 69.0824C2632.46 68.8987 2632.08 68.8068 2631.63 68.8068H2630.5V73.375ZM2635.55 74V68.1818H2639.06V68.8068H2636.25V70.7727H2638.88V71.3977H2636.25V73.375H2639.11V74H2635.55ZM2645.01 70H2644.31C2644.27 69.7973 2644.19 69.6193 2644.09 69.4659C2643.99 69.3125 2643.86 69.1837 2643.71 69.0795C2643.57 68.9735 2643.41 68.8939 2643.23 68.8409C2643.05 68.7879 2642.86 68.7614 2642.67 68.7614C2642.32 68.7614 2642 68.8504 2641.71 69.0284C2641.43 69.2064 2641.2 69.4688 2641.04 69.8153C2640.87 70.1619 2640.79 70.5871 2640.79 71.0909C2640.79 71.5947 2640.87 72.0199 2641.04 72.3665C2641.2 72.7131 2641.43 72.9754 2641.71 73.1534C2642 73.3314 2642.32 73.4205 2642.67 73.4205C2642.86 73.4205 2643.05 73.3939 2643.23 73.3409C2643.41 73.2879 2643.57 73.2093 2643.71 73.1051C2643.86 72.9991 2643.99 72.8693 2644.09 72.7159C2644.19 72.5606 2644.27 72.3826 2644.31 72.1818H2645.01C2644.96 72.4792 2644.86 72.7453 2644.72 72.9801C2644.58 73.215 2644.41 73.4148 2644.2 73.5795C2643.99 73.7424 2643.76 73.8665 2643.5 73.9517C2643.24 74.0369 2642.97 74.0795 2642.67 74.0795C2642.18 74.0795 2641.73 73.9583 2641.35 73.7159C2640.96 73.4735 2640.66 73.1288 2640.44 72.6818C2640.21 72.2348 2640.1 71.7045 2640.1 71.0909C2640.1 70.4773 2640.21 69.947 2640.44 69.5C2640.66 69.053 2640.96 68.7083 2641.35 68.4659C2641.73 68.2235 2642.18 68.1023 2642.67 68.1023C2642.97 68.1023 2643.24 68.1449 2643.5 68.2301C2643.76 68.3153 2643.99 68.4403 2644.2 68.6051C2644.41 68.768 2644.58 68.9669 2644.72 69.2017C2644.86 69.4347 2644.96 69.7008 2645.01 70ZM2646.15 74V68.1818H2649.66V68.8068H2646.86V70.7727H2649.48V71.3977H2646.86V73.375H2649.71V74H2646.15ZM2650.93 68.1818H2651.77L2653.75 73.0114H2653.82L2655.8 68.1818H2656.64V74H2655.98V69.5795H2655.92L2654.1 74H2653.47L2651.65 69.5795H2651.59V74H2650.93V68.1818ZM2658.05 74V68.1818H2660.08C2660.49 68.1818 2660.82 68.2519 2661.09 68.392C2661.35 68.5303 2661.55 68.7169 2661.67 68.9517C2661.8 69.1847 2661.87 69.4432 2661.87 69.7273C2661.87 69.9773 2661.82 70.1837 2661.73 70.3466C2661.65 70.5095 2661.53 70.6383 2661.39 70.733C2661.25 70.8277 2661.09 70.8977 2660.92 70.9432V71C2661.1 71.0114 2661.28 71.0739 2661.46 71.1875C2661.64 71.3011 2661.79 71.464 2661.91 71.6761C2662.03 71.8883 2662.1 72.1477 2662.1 72.4545C2662.1 72.7462 2662.03 73.0085 2661.9 73.2415C2661.76 73.4744 2661.55 73.6591 2661.27 73.7955C2660.98 73.9318 2660.61 74 2660.15 74H2658.05ZM2658.75 73.375H2660.15C2660.61 73.375 2660.94 73.286 2661.13 73.108C2661.33 72.928 2661.42 72.7102 2661.42 72.4545C2661.42 72.2576 2661.37 72.0758 2661.27 71.9091C2661.17 71.7405 2661.03 71.6061 2660.85 71.5057C2660.66 71.4034 2660.44 71.3523 2660.19 71.3523H2658.75V73.375ZM2658.75 70.7386H2660.06C2660.27 70.7386 2660.46 70.697 2660.63 70.6136C2660.81 70.5303 2660.94 70.4129 2661.04 70.2614C2661.15 70.1098 2661.2 69.9318 2661.2 69.7273C2661.2 69.4716 2661.11 69.2547 2660.93 69.0767C2660.75 68.8968 2660.47 68.8068 2660.08 68.8068H2658.75V70.7386ZM2663.25 74V68.1818H2666.76V68.8068H2663.96V70.7727H2666.58V71.3977H2663.96V73.375H2666.81V74H2663.25ZM2668.03 74V68.1818H2670C2670.45 68.1818 2670.83 68.2595 2671.12 68.4148C2671.41 68.5682 2671.63 68.7794 2671.77 69.0483C2671.91 69.3172 2671.98 69.6231 2671.98 69.9659C2671.98 70.3087 2671.91 70.6127 2671.77 70.8778C2671.63 71.143 2671.41 71.3513 2671.12 71.5028C2670.83 71.6525 2670.46 71.7273 2670.01 71.7273H2668.42V71.0909H2669.99C2670.3 71.0909 2670.55 71.0455 2670.74 70.9545C2670.93 70.8636 2671.07 70.7348 2671.15 70.5682C2671.24 70.3996 2671.28 70.1989 2671.28 69.9659C2671.28 69.733 2671.24 69.5294 2671.15 69.3551C2671.07 69.1809 2670.93 69.0464 2670.74 68.9517C2670.54 68.8551 2670.29 68.8068 2669.98 68.8068H2668.74V74H2668.03ZM2670.77 71.3864L2672.2 74H2671.39L2669.98 71.3864H2670.77Z" fill="white"/>
</g>
<defs>
<clipPath id="clip0_1458_23406">
<rect width="2745" height="26" fill="white" transform="translate(20 20)"/>
</clipPath>
<clipPath id="clip1_1458_23406">
<rect width="2745" height="26" fill="white" transform="translate(20 66)"/>
</clipPath>
</defs>
</svg>
