<svg width="512" height="512" viewBox="0 0 512 512" fill="none" xmlns="http://www.w3.org/2000/svg">
<path d="M256 511.018C396.833 511.018 511 396.847 511 256.009C511 115.171 396.833 1 256 1C115.167 1 1 115.171 1 256.009C1 396.847 115.167 511.018 256 511.018Z" fill="#0C0C0C"/>
<path d="M295.605 128.311L356.111 163.422C359.138 165.178 361 168.436 361 171.947V328.642C361 336.21 352.833 340.95 346.315 337.166L280.919 299.206V136.855C280.919 129.286 289.067 124.546 295.605 128.33V128.311Z" fill="#FCFCFC"/>
<path d="M231.081 270.259V202.377C231.081 198.866 229.219 195.608 226.192 193.853L165.685 158.741C159.167 154.957 151 159.697 151 167.266V316.763L266.233 383.67C272.751 387.454 280.918 382.714 280.918 375.145V299.207L231.1 270.279L231.081 270.259Z" fill="#FCFCFC"/>
</svg>
