<?xml version="1.0" encoding="UTF-8" standalone="no"?><!DOCTYPE svg PUBLIC "-//W3C//DTD SVG 1.1//EN" "http://www.w3.org/Graphics/SVG/1.1/DTD/svg11.dtd"><svg width="100%" height="100%" viewBox="0 0 4500 4500" version="1.1" xmlns="http://www.w3.org/2000/svg" xmlns:xlink="http://www.w3.org/1999/xlink" xml:space="preserve" xmlns:serif="http://www.serif.com/" style="fill-rule:evenodd;clip-rule:evenodd;stroke-linejoin:round;stroke-miterlimit:2;"><rect id="Ver-B--Fav-" serif:id="Ver B (Fav)" x="0" y="0" width="4500" height="4500" style="fill:none;"/><g><path d="M1359.69,1199.43c91.291,8.286 225.327,73.199 503.388,73.199c817.747,0 907.989,-426.61 1149.38,-414.11c312.331,16.173 731.018,271.15 731.167,441.984c0.16,183.333 -262.5,250 -262.5,500c-0,629.382 -38.867,1127.5 -145.568,1408.92c-27.502,72.537 -77.343,87.716 -141.241,79.501c-45.994,-5.914 -97.969,-38.247 -125.511,-84.564c-73.836,-124.17 -53.011,-190.627 45.961,-311.685c92.537,-113.188 45.513,-441.204 45.525,-804.672c0.013,-345.834 -98.738,-582.06 -329.166,-620.834c-273.93,-46.093 -287.5,77.084 -475,108.334c-158.334,26.389 -300,-13.517 -408.334,20.833c-108.333,34.35 -220.833,125 -179.166,408.333c41.441,281.8 205.758,1532.1 87.5,1612.5c-31.572,21.465 -107.588,39.403 -137.893,6.349c-33.414,-36.446 -64.348,-395.64 -80.228,-491.521c-26.56,-160.368 -65.021,-373.873 -131.879,-518.994c-89.734,-194.774 -197.293,-329.279 -191.667,-470.834c8.333,-209.668 50,-120.833 37.5,-366.666c-12.5,-245.834 -93.936,-139.94 -147.933,-238.716c-69.951,-127.962 39.698,-347.883 155.669,-337.357Zm1540.91,2006.37c49.357,-9.71 94.915,-3.973 118.705,33.399c106.644,167.536 202.152,66.641 212.963,173.998c5.688,56.489 -136.236,136.624 -275.702,64.572c-194.124,-100.291 -136.36,-256.152 -55.966,-271.969Zm-1993.64,-1741.73c-71.018,-66.721 -82.74,-140.18 -11.686,-215.809c71.053,-75.63 193.293,-125.348 253.693,-49.266c51.532,64.911 -23.139,166.513 -32.784,235.92c-10.165,73.151 -138.205,95.876 -209.223,29.155Z"/></g></svg>